<mxfile host="app.diagrams.net" agent="Mozilla/5.0 (Windows NT 10.0; Win64; x64) AppleWebKit/537.36 (KHTML, like Gecko) Chrome/134.0.0.0 Safari/537.36" version="26.1.3">
  <diagram name="第 1 页" id="jSq3WYapVqlczGgGYq37">
    <mxGraphModel dx="1050" dy="522" grid="1" gridSize="10" guides="1" tooltips="1" connect="1" arrows="1" fold="1" page="1" pageScale="1" pageWidth="827" pageHeight="1169" math="0" shadow="0">
      <root>
        <mxCell id="0" />
        <mxCell id="1" parent="0" />
        <mxCell id="O1dx7EC58STcq-n9Xf8L-3" value="后台" style="rounded=1;whiteSpace=wrap;html=1;" vertex="1" parent="1">
          <mxGeometry x="280" y="80" width="120" height="60" as="geometry" />
        </mxCell>
        <mxCell id="O1dx7EC58STcq-n9Xf8L-4" value="" style="strokeWidth=2;html=1;shape=mxgraph.flowchart.database;whiteSpace=wrap;" vertex="1" parent="1">
          <mxGeometry x="100" y="30" width="60" height="60" as="geometry" />
        </mxCell>
        <mxCell id="O1dx7EC58STcq-n9Xf8L-5" value="" style="strokeWidth=2;html=1;shape=mxgraph.flowchart.database;whiteSpace=wrap;" vertex="1" parent="1">
          <mxGeometry x="100" y="130" width="60" height="60" as="geometry" />
        </mxCell>
        <mxCell id="O1dx7EC58STcq-n9Xf8L-6" value="" style="strokeWidth=2;html=1;shape=mxgraph.flowchart.direct_data;whiteSpace=wrap;" vertex="1" parent="1">
          <mxGeometry x="510" y="100" width="100" height="60" as="geometry" />
        </mxCell>
        <mxCell id="O1dx7EC58STcq-n9Xf8L-7" value="" style="strokeWidth=2;html=1;shape=mxgraph.flowchart.direct_data;whiteSpace=wrap;" vertex="1" parent="1">
          <mxGeometry x="510" y="200" width="100" height="60" as="geometry" />
        </mxCell>
        <mxCell id="O1dx7EC58STcq-n9Xf8L-8" value="协议程序" style="rounded=1;whiteSpace=wrap;html=1;" vertex="1" parent="1">
          <mxGeometry x="280" y="200" width="120" height="60" as="geometry" />
        </mxCell>
        <mxCell id="O1dx7EC58STcq-n9Xf8L-12" style="edgeStyle=orthogonalEdgeStyle;rounded=0;orthogonalLoop=1;jettySize=auto;html=1;exitX=0.5;exitY=0;exitDx=0;exitDy=0;entryX=0.5;entryY=1;entryDx=0;entryDy=0;endArrow=classic;endFill=1;" edge="1" parent="1" source="O1dx7EC58STcq-n9Xf8L-10" target="O1dx7EC58STcq-n9Xf8L-8">
          <mxGeometry relative="1" as="geometry" />
        </mxCell>
        <mxCell id="O1dx7EC58STcq-n9Xf8L-10" value="" style="shape=image;html=1;verticalLabelPosition=bottom;verticalAlign=top;imageAspect=1;aspect=fixed;image=data:image/jpeg,/9j/4AAQSkZJRgABAQAAAQABAAD/2wBDAAEBAQEBAQEBAQEBAQEBAQEBAQEBAQEBAQEBAQEBAQEBAQEBAQICAQECAQEBAgICAgICAgICAQICAgICAgICAgL/2wBDAQEBAQEBAQEBAQECAQEBAgICAgICAgICAgICAgICAgICAgICAgICAgICAgICAgICAgICAgICAgICAgICAgICAgL/wAARCAFoAWgDAREAAhEBAxEB/8QAHwABAAEFAAMBAQAAAAAAAAAAAAoGBwgJCwIDBQEE/8QAXhAAAAYCAQEEAgkPBggLCQEAAAECAwQFBgcIEQkSEyEKFBUWFyIxQVFhlTY3OFRVV3R2d5O0tbfT1CMyQnGB1RkkM1JzkZKxGCU0OVNYY4KX0tZFYnV4lJahtte4/8QAHQEBAAIDAQEBAQAAAAAAAAAAAAUGAwQHAgEICf/EAFsRAAEDAgMCBwsJBAUHCQkAAAEAAgMEEQUSIQYxEyIzQVFxkQcUMjRhcoGhscHRFUJSVJKistLwCCNT4RYYYoKVJTZDc8LU1VZXY3Sjs7S18SQ1N3V2g5OUw//aAAwDAQACEQMRAD8An8AiAiAiAiAiAiAiAiAiAiAiAiAiAiAiAiAiAiAiAiAiAiAiAiAiAiAiAiAiAiAiAiAiAiAiAiAiAiAiAiAiAiAiAiAiAiAiAiAiAiAiAiAiAiAiAiAiAiAiAiAiAiAiAiAiAiAiAiAiAiAiAiAiAiAiAiAiAiAiAiAiAiAiAiAiAiAiAiAiAiAiAiAiAiAiAiAiAiAiAiAiAiAiAiAiAiAiAiAiAiAiAiAiAiAiAiAiAiAiAiAiAiAiAiAiAiAiAiAiAiAiAiAiAiAiAiAiAiAiAiAiAiAiAiAiAiAiAiAiAiAiAiAiAiAiAiAiAiAiAiAiAiAiAiAiAiAiAiAiAiAiAiAiAiAiAiAiAiAiAiAiAiAiAiAiAiAiAiAiAiAiAiAiAiAiAiAiAiAiAiAiAiAiAiAiAiAiAiAiAiAiAiAiAiAiAiAiAiAiAiAiAiAiAiAiAiAiAiAiAiAiAiAiAiAiAiAiAiAiAiAiAiAiAiAiAiAiAiAiAiAiAiAiAiAiAiAiAiAiAiAiAiAiAiAiAiAiAiAiAiAiAiAiAiAiAiAiAiAiAiAiAiAiAiAiAiAiAiAiAiAiAiAiAiAiAiAiAiAiAiAiAiAiAiAiAiAiAiAiAiAiAiAiAiAiAiAiAiAiAiAiAiAiAiAiAiAiAiAi+HksuTBobSXEdNmSxFWtl0koWba+8lPeJLiTSaiIz6dSMuvxGC1K6R8VJUSRuyva3Q6aHdfW47VY48uyc/8A21K8i6eTUMv90XzMFV/lGu+su7G/lX57bsn+7Ur83D/hgT5RrvrLuxv5U9t2T/dqV+bh/wAMCfKNd9Zd2N/Kntuyf7tSvzcP+GBPlGu+su7G/lT23ZP92pX5uH/DAnyjXfWXdjfyp7bsn+7Ur83D/hgT5RrvrLuxv5U9t2T/AHalfm4f8MCfKNd9Zd2N/Kntuyf7tSvzcP8AhgT5RrvrLuxv5U9t2T/dqV+bh/wwJ8o131l3Y38qe27J/u1K/Nw/4YE+Ua76y7sb+VPbdk/3alfm4f8ADAnyjXfWXdjfyp7bsn+7Ur83D/hgT5RrvrLuxv5U9t2T/dqV+bh/wwJ8o131l3Y38qe27J/u1K/Nw/4YE+Ua76y7sb+VPbdk33alfm4f8MC+HEK4m/fTuxv5Va2z2Rn0W0sGGMrsENR50ltlHq1U4SG0OqJCD8auV3yIuhe+69enn1EhHFG6ONxZq4Anf0da1XYpiLXECrdYHoZ+VZQ6xyGyyjDq62t1tO2Cn7CK++00lhMj1Kc/FbfUy2RJbdU00g1kgko73U0pSkySWpMwMkLW7t6tuFVMtVRRyzEOku4EgWvY2BsNL232sL7gNyr8YlIoCICICICICICICICICICICICICICICICICICICICICICICICICICKmcyWhGMXKnFpbR6p0NaiWaU951tJGZNoUoy7xl8BH8I+taXENGpK0sRF6GpF7Xb7x0LHPxYn29H/ADU/+BGXgJPJ2hU/g3dLe0/lTxYn29H/ADU/+BDgJPJ2hODd0t7T+VPFifb0f81P/gQ4CTydoTg3dLe0/lTxYn29H/NT/wCBDgJPJ2hODd0t7T+VfLev6KO64w9aNodaV3Vp9RuFESuhH5KTWmSi6GRkZH0MjL5R972m5mg/3m/FeC5jSWmQAjzvgvX7Zce+6zf0fc/3Z84d7TfQ+834r5ni/ij73wT2y4991m/o+5/uwO9pvofeb8UzxfxR974J7Zce+6zf0fc/3aHe030PvN+KZ4/4o+98E9suPfdZv6Puf7sDvab6H3m/FM8X8Ufe+Ce2XHvus39H3P8Adod7TfQ+834pnj/ij73wT2y4991m/o+5/uwO9pvoj7TfimeL+KPvfBPbLj33Wb+j7n+7Q72m+h95vxTPH/FH3vgntlx77rN/R9z/AHYHe030PvN+KZ4v4o+98E9suPfdZv6Puf7s+YO9pvofeb8UzxfxR974J7Zce+6zf0fc/wB2B3tN9D7zfimeL+KPvfBYyzN26csc2ynGGNoYVEyKnyS2prCmyC4bxCa3ZQpjkd+LFTmCICbVfjJMknDVIJZ/zDMbUcjGNZG92V7AAb9I037vWsLoJHnOwB7X6ixF9f7JId6LLYbpRpxrXtX4ja2/EmXDzffQaScZdtJa2nmzP/KMqQZKSoveqI+pGZeY1akgyaEEWG7VXHBGuZQRh7Sx2Z+hBB8I8x1V1xgUsgIgIgIgIgIgIgIgIgIgIgIgIgIgIgIgIgIgIgIgIgIgIgIgIgIgIqRzz6kbz8FR+kMDLByrOv3LSxHxKo833hYujbVUQEQEQEVFZLG8OUzJSREmS13F9P8ApWOiep/ObSm/zZjKw6WWjVNs5r+Zwt6R/K3YqcHtaqAiAiAiAiAiAiAiAiAi0GchEpVvndKVJJST2hmnUlERkf8Ax3L+Ej+ERcvKv6ypWPk4+oexSBuyvZZj8NsMbYZaYbLM9qKJtltDaCUrYmQmo+6giLqZ+Z/KMatWFeJM85/4itioKRQEQEQEQEQEQEQEQEQEQEQEQEQEQEQEQEQEQEQEQEQEQEQEQEQEQEVI559SN5+Co/SGBlg5VnX7lpYj4lUeb7wsXRtqqICICICL5F7G9YrXjIuq4xlKR5dfJolE8X5hbh/1pL+z0w2PWsM7c0Ztvbr2fyVvhmUagIgIgIgIgIgIgIgIgItBvIP6/W6fyoZp+vJYi5eVf1lSsfJx+aPYpBXZafYc4Z+OW0/2h5CMatWFeJM85/4itiAKRQEQEQEQEQEQEQEQEQEQEQEQEQEQEQEQEQEQEQEQEQEQEQEQEQEQEVI559SN5+Co/SGBlg5VnX7lpYj4lUeb7wsXRtqqICICICL8MkqI0qIlJURpUk/gUlRGSiP5jIzH0GxB6E0Oh1BVrpDCo0h+Mrr1YdW11PyNSUKMkL/qUjuqL5lDONQD0qJc3K5zT802XpBeUBEBEBEBEBEBEBEBFoN5B/X63T+VDNP15LEXLyr+sqVj5OPzR7FIK7LT7DnDPxy2n+0PIRjVqwrxJnnP/EVsQBSKAiAiAiAiAiAiAiAiAiAiAiAiAiAiAiAiAiAiAiAiAiAiAiAiAiAipHPPqRvPwVH6QwMsHKs6/ctLEfEqjzfeFi6NtVRARARARW82ntTCdM4bLzrPrCVAo406DVMN18FyztbS3szfODVVUBtaPWJi2Ys10++402hmE8644hCDMU7bzb3ZjubbOVG1O1lY+lwyGWKBjYYjPUVFRNm4KCnhaW55HNZI85nMYyOOSR72taSqR3RO6Jsn3K9larbHbOtko8Hp5oaZjYIXVFTUVVRnMNNTQtLQ+Z7IppeO+ONkUMsj3tawlUzQ5xiez8Xx3ZGDz3bLGcriS1RH5MN+unMzaawk0tnAsYEn38OdHmQnWVpPvIUcbxGXHWFturktjNr8A292awvazZisdW4LiwkMT3xvhla+GaSnnilifxo5YZ4pInjVpLc8b5I3Ne75sltls33Q9mMG212SrXV+AY8yUxPkidBM19PPLTVEM8L+PFNBPDJE9pzNOUPifJE+OR3nIsocWQ3GecUl1wkGXRBqQgnFGhs3FF/N6qI/l6EXU+hGRnx3ul/tWdw7uQ90nZXuUbebTVGG7XbWMo5WmGhmqKHDosRqpKOglxatYQyjZVTxSBuVs7oIQKqrbTUr45n9DwvZPHcZwyrxbD6VstJSF7TeRrZJDGwPkELDq8saRe5aHOuxhc8Fo+my0t95phHdJbriGk99SUJJS1EhPeWsyJKepl1MzIi+EzH6NdFI2V0Dm5ZWuLSDpZwNiD0WO9ViSVkUT53XMcbS82BJsBc2A1JtuAFzuCxL4+82+OPKHMc2wTTeXW95kOD1j2QyEW+MWVBAybE411Ax6Tl+GzJhn7L4+3cXFIytT6IkovZuK6UU2XScKl7N7e7L7WVtfh+B1r6ipoGGQh8To2ywh7YzPA434SIPexpLgx/7xhyWNx+lO7X+yV3dv2e9l9k9sO6nsxTYRgm11Q2hYabEIK2bD8SfSzVseGYrFFbvWtkpaarka2F9VTk0lTH3wJI8hvvsbY2JaoxKbmuazpEKkhyYcBKYMNywsbCysXFohVtbBbUn1ma4TT6+iltoQ1GddccQ22pRfdututmu5vs1V7WbWVj6TCaWSKECGJ0889RO4thp6eFpGeV+V77OcxjI45JHvaxjiPx7t/t/st3Mdl6zbDbCtfR4PSSRQgQxOnqKionJENNTQtLeEmeGvfZz2MZFHLLI9kcbnD+jAs8xfZuJVObYdOdn0FymWUdyTFdgTY8mvmyK6wgT4Lx96LNYmxX0LT1UhRJS40txlbbitjYzbLZ7ugbM4ZtdstWOrcFxUSiN0kboZo5IJXwTwzQv40csU0b2OF3NdYPje+J7Huz7EbbbN90XZbCtstkq11dgeLiURukidBNHJBNJTzwTwv40csM0T2OF3McAJInyRPY91YCzq1oCICICLQbyD+v1un8qGafryWIuXlX9ZUrHycfmj2KQV2Wn2HOGfjltP9oeQjGrVhXiTPOf+IrYgCkUBEBEBEBEBEBEBEBEBEBEBEBEBEBEBEBEBEBEBEBEBEBEBEBEBEBFSOefUjefgqP0hgZYOVZ1+5aWI+JVHm+8LF0baqiAiAiAioTZOs8J27iM3B9g0vs5jsyVCsPAbmzaybCs65bioNnWWdc+2/AnNpfkoJaF9FtS3mHUrZdcbVVdtNidmO6Fs/U7MbXYZ8qYRUvjlDWyywSxTQkmKeCeB7JYpWXc3M11nRvkikD43vY6n7ebBbJd0zZmr2Q22wr5XwKrkhnyNmmp5YqiAuMNRT1ED2SwzRh8jA5rrOjklika+KSRjv56TX+K69wCpwjB6hFJjeKtPLqq9MmXNdIpM6XY2smXPsH3X50x+XYz5LzjrilKccPp3UklKd3ZPZfANicAwvZXZfDxheBYQx7YIQ+SVwMsr55pHyzPklkklmkklke95Jc87m2AzbM7H7ObCbK4TshslhgwnZ/AmPbTwiSSVwMs0lRPJJNM98s0s080s0kkj3Oc55As0NaKefr4cl9qQ8z33Wu6SVd9ZJUSFGpJOISfRxJGZ9CP5eh9S6EXLu6D+zN3D+6p3Qtle6lt5sO3HdtNj20sdNP35XU9PUR0NTJWUMeJUVPUR0mIspKmWSSJtVE8PY7veo4alDYBcMO2nx3CcOq8Kw+vMFFWlxc3JG5zTI0MkMcjml8Ze0AEsIsRmblddx+g064w80+2fddZcQ62oyIyJxtRLSZpMuh++IvI/Id5Mj3SGZzs0jnFxJ3lxNyT1neq7JEyWJ8LxeORpaRu4pFiNN2hWMejuHfHDjdlma5vpjXDWIZJnkRyqtpisgyS7YrMeetot6/i+KwLu1fZxjG3LiBWyFxIiEJUqqiN97wYkZpqpYBsTsvsvWV1fgWFihqsQaWPdwksgZEXtkMMLZHuEURka1xYwAXYwXysaB+ge67+1F3du7vs3spsl3VdunbT4FsdK2ppo+8qCkfUVzKaSjZiOIzUlPDLiFeylmngZU1DnODampfbhameSS8+e4BiWzsWnYbm1V7MUE96JKWwiXMr5cWdXvePCsK+wgPNvQZrazWRLQou82+6y4S2XXG1fds9i9me6Ds7WbK7XYb8qYNWvikLBJLDLHNC7NDPBPC9ksMsZJAcxwDmOkikD4pJGO/K22+w+y3dG2brNktssL+VsDrXxSuYJZYJY5oHZ4Z4KiB7JYZoyXAPY4Zo3yRSB8UsjHf04VheMa7xepwzDatNPjtK3IRChlIlTHjdmS37CdLlzpzzj02Y9OlSHXHHFqMzc7qe6hKEpz7J7J7PbDbPYbsrsthwwvA8KEghizySuzSyvmmklmme+WWWWaR8kj5HkkusMrA1oz7H7H7N7A7N4XsjslhgwnAMIbIIYeElmeXTSvnmllmmfJNNLNNI+R8kjybuytysa1raoFiVlQEQEQEWg3kH9frdP5UM0/XksRcvKv6ypWPk4/NHsUgrstPsOcM/HLaf7Q8hGNWrCvEmec/8RWxAFIoCICICICICICICICICICICICICICICICICICICICICICICICICICKkc8+pG8/BUfpDAywcqzr9y0sR8SqPN94WLo21VEBEBEBE+EEWuLYHa8dmjq/PM71ZsPljjGO53rfMcp13nuNvaw5AWbtBl+HXU7GsqoX7Ck1FKhT3YlzXzo63YkmRGcUwamXnGzSs/BlY0kF2o61uNw6qlYHCPivF9SNx3G3lHTr5FZVXbKdlqlSkp5lYmtKVKSlfuT8kC76SMySroel/IzSRH/aMvfEX0/Ufgo84LiQJApswB3549fLq++vlX5/hluy3/wCuRif/AIUcj/8A+Lh3xD9P1H4L58jYn9VP24vzp/hluy3/AOuRif8A4Ucj/wD+Lh3xD9P1H4J8jYn9VP24vzqutY9qR2eu6NiYXqXVfKHHMy2PsS8axrCsVi643pUSL+8fjyZTNexZ5JquFAhuKYiSDJcqWw31b7vf7ykkf0TxOIaHXJ3aH4LHLhdfBG+aWmLI4xdxzRmw6bB5PYFnsMq0EBEBEBEBFoN5B/X63T+VDNP15LEXLyr+sqVj5OPzR7FIK7LT7DnDPxy2n+0PIRjVqwrxJnnP/EVsQBSKAiAiAiAiAiAiAiAiAiAiAiAiAiAiAiAiAiAiAiAiAiAiAiAiAiAipHPPqRvPwVH6QwMsHKs6/ctLEfEqjzfeFi6NtVRARARARfqfhL+sv94IoF8Li5qzlL2mHaoUW1Hs1Zg4Tyu5DXlIrC8hrsfkKnXXJraNbNKe7YY/YFJY9WiNdxKUNmlXUzUrqRF0buW7FYNttiWP02MvqGRYZDDKzveVsRJklkjcHF0cl9zSNBaxHPpzXu8d0zafuZYDshXbMMo3T4zUVEE3flPJUNyQ00UjMgjqKctdmcbklwI0sOe/GS9k9xWr6SdYVU3dypcFCZKkSdiY482uK2rpL94jXaDJSGVG5173TowZdD6+XcsP7gvc9mq4oaqXFOClu0ZK2JpDz4Opo3aE8W1hqQb6WP5YxP8Aaw7sNNQz1FHDgRlgs8h+GVTgWDw92Jttlbxr33NOmqtbM7NbjMy4g2pW4fV5DDUmOa89oVK7jhGS0KV7Qy6qQ8h1Bn8Zt9egscf7N/czc055MYL2ktNsQhGo8nePOLH0qqS/tn92ljgWU+zpjka1zb4VV3sRuP8AlbUhwc09S/l/wbvGn7a2/wD/AH3Q/wDoQZP6tvcx/iYz/iMP+4rH/XS7tf1bZ3/Cqv8A4sqZ48aOwTQHa8dnniOvnMldqbrOMRyqarKbeHczitJFhs6lcSxJhVEJLUT1OlhGSDbUrvmtXf6GSS/OXdh2FwLuf7V4RhOz76l9FXYeyrd31M2aQSOqquAgPZFCMuWBpAy6EnUr9hfs/d1Larut9zjazaDa5lFHiGGYrNQRChp5KaIwNoMOqW52S1FS50nCVMgLg9oy5RluCTOBHNV0ZARARARARaDeQf1+t0/lQzT9eSxFy8q/rKlY+Tj80exSCuy0+w5wz8ctp/tDyEY1asK8SZ5z/wARWxAFIoCICICICICICICICICICICICICICICICICICICICICICICICICICKkc8+pG8/BUfpDAywcqzr9y0sR8SqPN94WLo21VEBEBEBF+p+Ev6y/3gihccZ/+dI7X7/5lt4//AOqttjun7P3/AL52w/6pS/8AiZF+dv2uf81e51/1+t/8FAtnppQtKkOIJxtxKm3G1F1S42tJocbUXxpUg1EZfIY/ToJBBabOabg9BGoPWDqvwxZpBa5uZjgQQdxBFiD5CND0rGm3rF1y7GqX3lOUU5XgrV/Odqp5oXHcP5TI1R1q+IjmKF8pqgVDYKhoGWrZqOiRl8w/EB5gXMayldSuqaN1y7D5OKTvdDJ4LuscVx88jmVPDbUasRKL/noOzc/+J4V/+z7kH4q/aW/z82b/APksX/mGJL+l37GP/wAHNvf/AKin/wDKMGUyMcEX6KQEQEQEQEWg3kH9frdP5UM0/XksRcvKv6ypWPk4/NHsUgrstPsOcM/HLaf7Q8hGNWrCvEmec/8AEVsQBSKAiAiAiAiAiAiAiAiAiAiAiAiAiAiAiAiAiAiAiAiAitDtbYq8PhsVlOtpWR2SfFaU4hLzdZAStSFznWVH0ceW4hTbCFF3DUlxau8lo217EEQkJLhxB6z0KGxfEzRMbFCQamXUX1DG/SI5yTo0br3JvaxsGe0NqlFTPO4sSgLMkosFYzUlAWpSzbSlE46TwlKNwjSREvqZkZfCQ2eAgvly69Fzf2qvnFsWyCThXcGfncEzL0eFktv8q9Pus7LUhbickcNDfQluFS0BobNX83vq9ieif7R973h+h6z8V5+WMUIJFRoP7Ef5FdCDn+Uy4UOUVuf+MxWHlEUGr6EtbaTcT/yL4nO+X9gj3tyvc36JP8vUthuK17mhwqTr/Yj/ACL+r275V911f/Q1f8CPK9fKlf8AWT9iP8i9jmSXVtT5JEsppSmE0ipKEqjRWVIdasq5ojSuMyjqk0SF9SV1/mkZdPPrlg5Viyx1tVURVcc8vCMERcOK0WIewb2gczudWxG2tNARARARfqfhL+sv94Iud3s/nPV8OO0o7Tm3g0uCZxOzfl9yVxudWZDsZvD10vsByR2ZaJfT6pVzlvvuOTFNqbcbb7hN9epmfQrbsNt3U7B12L1VPhUeKnFI44nNkmdCGCKR0gILIpC65daxy2te53Kt91HuU0ndXwnZugq8flwBmByy1DXw0rKoymeCOLKWvqIA0NDMwcHOJva2iqn/AA6q/vNaf/8AH+Z/6GHR/wCsJiX/ACPpv/3pv92XGf6n2C/84lZ/hNP/AMSVL3PbStXdi3ZK1FqaKs692tlNtb1kvomMLNxTSlLPC0G04g3PIyJXUkILy7okaT9pfFaSF0H9C6WUZw9pOIzNyEWuAO9HXBtru3npUTXfsS4DXVTao90qvhvEYntbg9MRI03tqcSFi2511vZu6ypX/C+tkRF7mmrTMi8z92p4up/L09qnkN/+tPiv/IKj/wAUqP8AclFf1D8B/wCdXEP8Dpv+KKu+F3Kup5OdrN2fuVyImHYtPptn4th0emo82Yyf11mKvYF6md4z0OK4h413zjZtpaURFGSrvGajIuQd0HuhVHdJx/DMZqcIjwWSgo20YiiqH1DXtbPUVHCF74YS03qC3LlIs0HNrYfoHuWdyGj7i+xG0ezVFtDNtLFi1dJiJnnpI6NzHPpaOk4IRxz1Ac0CkD85eDd5blsATPZFSU4gIgIgIgIsUNNcZ9J7myTkzmOzcRl5RdwOUmycRr1+2zL6CJBpqqkwy9abZi4veQkvSHLDKbE3XHzdUaWmUo8Mkq78XLyj+sqRDiGRgH5o9i2G6sx2m0nhsHX2roa8Ww+um2thDqDmTb82pl3YyLWzeOyyeRNlu+JPlPr7q31JR4ndQSUkSSxrZirqyFgjhnyMFzbKw7zc6lpO/wAvqVdzc/ymHCmSztjP1aK+8kjg1nRS0NqNpJ/4l8bncL+0emNzPa36RA+PYNV7OK4g0Fxqbgf2GflVrfdc2QRJ65KfmXUj9h6H3xfB1L/ivzLqRiQ73h+h6z8VrfLOJi16n7kf5F7/AHUtpnFVOK4n+oJM0qsCxqqOAhSVk2pKp3sL4SVE4ZJMjX1JR9D8x84CC+XKL9Fzfsuvfyti2ThBK4x/S4JmXfbwslt/lV+9U7FXmEN+suFtJyOtR4rqm20sN2cBS0oROZZSfRDyFrQ2+hJd1KltrT3UukhGtPDwZzNHEPqPQrBhGJmtY6KYgVMeptoHt+kB0jc4btxFgbC7411MoCICICICICICICICICICICICICICICICKmcuyiBh9HKup/8AKE10ZhxErJDs+e6SvVoTKjI+6pRoUald1XhttrcNJpQZD2xhkcGjn9QWrWVcdFA+eTW2jRzucdzR1855gCeZYqYXi1ttPKZ11euLXWIlJkX0xPfaRId7qTjUVefe7zaCjpbSrumZsR0p6qJ11pSt6R7YGBrdHcw95/W/ybqjQ0k2LVck9QSYgbyO3X6I29Gltx4ree5BNxdqZEdq/E1dirLCzUuEm5OO0hMavYhOMSYVWwlCO614Zsx3HO53SQlDTBea3EowwRkXmfu5vTpf9eU8yksXqhK5uFUoGuXORuaGkFrBYc1gTa1uK3nIFQx8CpsbxdSJpNqMo61yHHST1ccNBmtTnX4ep/6iMi6dCDhnPks0ac3P7v1vWUYfDS0hMhGYjXm1trz/AK8itridTPuK2Q7R1Ux+ri2k6HEfIkJadbSpuSo2DdcT32kvSXkdUkaSNo09SUkyLHUA8Le9y5ov1jTX0AKGhppqhr301O50Ic4A6W010ud2vNpzKpvankv3Gl/64/78YbHydoWb5Prvqzvu/Ff0ewNxW1GSyp8B2JHOjXHS46tn3zztlWuJQlCHTUfvGHDM+nQuhF16mQyQi0rFmipKmCOrkmhMbOCLbkjeXsO4E8wKtsNtaqAiAiAiAi95SXiNR98jNalLWpSG1KWtajUtalKSZqUajMzMz6mZ9TH25618sF++tP8A+cn801/5AufJ2BLDy9pVD5J4zU1uQk0kiU159G2y6vR+6255EjyLwlR/6zMxkYbix5lo1LMrw4bne0foKnvWXv8AOL/Yb/8AKPa1l+HIeMyPvkRpMzSokoJSTNJpM0qJPVJ91Si8viMwRekEQEQEQEQEWNOiN+6X1be8ncU2PsSlwu+lcq9l5RDhXUa5JM2ktMfwamjTIkqDWPtOmVljVs2433ycb8NtSkEl1Bqi5eUf1qRAJZHYX4o9iz719d0+18XiZrrWyjZpic6VYwod9Tm6mE/LqZr1dZMITPbYdJbM6O+2rq2Rd5s+6Zl5jGtiOjqpWh8cDnsN9Rbm0O89K+5d0EuJHiN39fLiV0+zhQXXlkjwO8o3JLTb7jTivCQt6K0gu90JSnUo69VER56cHhMw1c0Ejr3ewn9XR9HNHk75hdHE9wFza194Bsee1ui9hzqpcv1fEscealU6GkS4rJORzQRElZERdW1ElJe8URdD+HofQy+DzyxzWdlfof1+tf8A0kazC2yUwkgsS0X9Qv7wV8nTmYMNtva5yJllBKVORVIlNNm1IKU6/IsqSYhaTS64pb0hxvvEZOtuLaPp3WkuKlhuJmnovbyaAjsXjBK1oacNqQLHNkuNCCSXMPMb3JF94uOgGhszxe21ZlUG6onForFy1SaGWo1uojrJKjk0Vgfe7ziDjqcSXePq/HUZko3W3TTljkbMwtcLu5/iP1ofQtCupJcJq456c2iuTG7fbpjd06XAv4Tb7yDbKzEcogZhRRLuAXhk71ZlxFLJx2BOaJPrMJ5REXeUk1JNKu6nxG3EOEkkrIaL2GNxaeb1jpVuo6uOtp2Tx6ZtCOdrhvaermPOCDuKqUeFtICICICICICICICICICICICICICICICLF7f9dern1Fr4bzuNxa44xONka2YFu/Le8d6Wki/kSejnXobcV701MKb6pUoiXu0rm2c355PqVU2iiqC+GWxNM1ttNzXkm5PRmGUAnnBHPr+w9r4/QYDApsQgSYuSmyiC3AfiuPIizXfKVcyJymSYsVLdNbiCIzWtxxBOsttkokjA98rjI67Ovm6OkfrW6+sxemp8PZDRRllT4OUi9nHe8utZ1zqOcmwIAVaatwlujgOX1ur1i1nd+VLkyFKed8R1RvOKW+4Zm64a1qUtR9TWtZmfUx4qJbkMabj3brfDq6lt4TRCFjqqc5pX6knU3OpJJ57nU851Kp/KbKw2Tk7eD0Dy2KuMon8itGv5kSC2oicbQvoZLkuGfcbT595avMibS6pHpjWwxmR+rj+gLdHPv3eUrWqZZMVqxRU5yxM1kePmt+J3AdPkBIv7V1kGmr4dVWx24sCAwiPGYbLolDaC+FRn5uOKUalLWozUta1LUZqUZnqOcXOLnG5KskUUcEbIYmhkcYsAP1vO8neTqdV/ePiyKkc8+pG8/BUfpDAywcqzr9y0sR8SqPN94WLo21VEBEBEBEBEBFFY9Il7QLnTw639wS1lw65DyNE1m+MT2MvPnz15qvOq9UmkzvGqxnJ5iM+wO3lIZrqCdZvOMQnG1PNxjQ22p5Rd7FM9zMmU2zXvoDz+VSuGUsFSJ+GZnyFttXC1wb7iOhRmpPbvduC/kttiV7zYkx5WK41a5nkbrOmOLUoqumoqxc+6bjoa0017IW6FtuRGoxOIbflm2ZyG4hnNRhE8o3Ot6B8FJOwnD3WzU+a39p/5lJu9Ht5pc2+V+UdpBgfNjdRbkyXjBsLQGv8AF32MQ1xi1dQ2dra8oqPYS617AMHpTtok6frbHVIXNQ6pDdYg2ksm46S9qnkfJnzuva1vWq9jlHTUhpRTxcHwnCX1cb2yW3k9JUkYbKgUBEBEBEBEBFoN5B/X63T+VDNP15LEXLyr+sqVj5OPzR7FIK7LT7DnDPxy2n+0PIRjVqwrxJnnP/EVsCs62FcV8ursWESYU5lbEhlfX3yFfApCi823UrJKkLSZKQtCVoMlJIy+tcWkOabELdlijnjfFK3PHILEH9aEbwd4Oo1VtcWtJuO2z+EZE+bzjLZvUlm7/NuapRmhp4+hESZrZkTUhHQu64nvpI2nG1HnkAkaJGCx1uOj38+n6tE0kj6Wd1BUuz87HHQOYdx84eC4dNiNCFbzbuBrjvJymkJxp5pTch8opqbeQthROtS47jXQ0Sm3EpUhST73vS6H1IumWnlzDITc9e8Hyfoe+OxfDzG5tVBpbXTfcagi2txvB9d16pW2ccyLX0yqyyG/NyJcY4pw40VxpqbLQRep3UWelk2K9SXPDcWRmS23G1k2y42aCWED2yhzCAy/TzdFt5/VyF9djFLU4c+KrYX1BFsoFg4/NeHWyt11POCDZpFr/nH+uvUT7e0NDzWNyq4oynHCNtifbsSmSYeiIV/lSZjlPQ44n3pKeSgzUpJkj5VFtmt+eD6l82djnD55bEUz2213OeCLEdNhmBPlA5tMoRpq1oCICICICICICICICICICICICICICICL1vMsyGXY8hpt9h9tbL7DzaXWXmnEmhxp1tZGlxtSFGSkmRkZGZGXQASDcGxC+Oa1wLXAOa7Qg6gjoIWvrtBOR3GDs/8AjHmPJ3dUytwfHcHlwGseq8Xo6SVnG0c5smprGNapwKielQ1ZFlNq4mUttlMlhiFGq5V1ZyYlNVWUyPJYdBWV9S2mp2mZ7wb62DQLEuJ3ADQa7yQ0akKGxChoo6fhGNjpHxuBDgwamxGU2F7EEkkeDbMbgEKneP8Azj07zM0dh+1eLefVWy8PzlSaiHIq1FEvsbyZhmEdthGcY5KMpWHZzXnYQimV05DTjbcuPNaU9XyokuRlnopKOZ8dTHwT2a+QjWxBtqLgjyEEEBwIEPNiEz2R0kTbzSZQAP7VrWOrSCDoRdtuNct1WemA4ZGwqjRB7yJNrMWUy7sSIzVMnLLzShayJXqjSTNDKTIvIlOGknHXDVGyyGR19wG4frnPOrHh1CyhpxGDmlfxnu+k78o3NHp3kqtxiW+gIqRzz6kbz8FR+kMDLByrOv3LSxHxKo833hYujbVUQEQEQEQEQEUFv0wa+tsU352b2VY/LKvv8X15t7I6KecaJMKFc0e0cItKyWcSew6xKJubFZUbbzbjThJNDiFIUaTwVG6PqPtU5gu6q62ewqLtobLsUyrDcwwnNpTr2fuT8RqtayIq7BV7ZxcsRe4VlUuWl+DJhZJX1sWxw560rZi2F2NFRuR0LKI3cInaynFKk9EAubXIovahZDfWEu3vL/JuGF5dW095cidaW9unmJY2djMkLPvPyn5sl91xZ+alumZ+ZjcpP9J6PeqttLvoeqX/APmpmI3FWEBEBEBEBEBFoN5B/X63T+VDNP15LEXLyr+sqVj5OPzR7FIK7LT7DnDPxy2n+0PIRjVqwrxJnnP/ABFbEAUiqPzXFiyirSiK6iFeVjvr9DZqSfWJPQnp4TykkalQH0F4b6CI+qVE4STcabNOSKTg3ai7XaEdI+PQtKupBVxANOSeI5o3/Rd+Vw0dv6bEgLCDk3zm0XxK0Tlu3uUOe1Gr8SwwzqbIrZfrV9e5U61LVWYPhGNxVKl5pmtgqBM9Rr4LbjrjUV+W6bMCLKlsSNNQy1M7Y6Zpkc+x0BsAbanmAu4C5FySGi5NjAOxJz4zTyt/fsuC02uC297ncALXLjZoALibA28uz15DcXOe3F7DOS+j5ldm+L5vKsGr6qyikpoucauzevbiM5NqjPKFmXMVjeU1Ly46nGDkvx5sa0i3VXJmU1rWzZPjEYKugqn01Q0xPaARrcOab2cCNCDuNtxBaeM0qRw7D6F1Nmc1lW57iS7KNDpxRpfKN4v4V8w0cFsJZZZjstR47TbDDDaGmWGW0tMstNpJDbTTaCJLbaUEREkiIiIuhF0EaSSSSbkqaa1rWhrQGtaLADQADcAOYBewF9QEQEQEQEQEQEQEQEQEQEQEQEQEQEQEVv8Aa+1ddaN1rnO4duZfTYDrLWuM22Y5xmWQSFRqnHscpIjkyxsJSm0LceNLLZpaYZbdkSHVtsR2nX3G21ZIopJ5GQxNL5JCAAOcn1Dyk6AanReXODGlzjYN9PqGpPQBqeZc1vfO3eVnpRPadYpqPTca61pxl1y7bOa+j5DAcn1egdD+ycSFmPIjatRCsCjWu6cmQzBZr6VmWhpEh6qxdiw9VhXGSSOm08FHsnhrp6g8NWSgXA0zPtoxpI0a06XIJtmeG72qqTPqMaqTDEODpIjYm5IdY3tpa4HFLg0ht7fvDeIrokcSOIGh+EmgtX8cNBYexQa/1TTrr6aXYohT8rvbmxT4uU5xll6zBYO2zW7slyJltMQ0w28/KU2xHjQ248Vnm9XVz1tRLUzuvJMbm17DoAuSbDmuSeckkkmzx08UbYg1gvCLNNhcXABtYC1wACGgCwAAAACycGssyAiAipHPPqRvPwVH6QwMsHKs6/ctLEfEqjzfeFi6NtVRARARARARARYHcyuzI4N9oJda+yHl9pOVtu21bSXuO4NIZ2nt7XzVLU5JZRLe4jnE1pnVQ1YOOzoUdXiSUOuJJBJSokkRF8c1rrZm5rbt/uKzQ1M9Pm4GTg89r6NN7bvCBWGB+jd9iqfTrwym+Rkoj/4SvKw+iiPqRl13X5GRkPPBR/Q9Z+Kz/KNb/H+6z8qyy4rdnFw17PJWx4/D7T0jUkHdJYM9sJl7ZG0thJvJOsvbm1ihtr2Xmduqq9Va2DkfUohseN7JF4xLJlnuZomMbfKLX3/r9elReI1FRUOiMz87WA5dGixNr7gOgb1lsMqjkBEBEBEBEBFoN5B/X63T+VDNP15LEXLyr+sqVj5OPzR7FIK7LT7DnDPxy2n+0PIRjVqwrxJnnP8AxFbEAUigIsYeXPD3Q3N3QO0OOG/cPYv8A2rTtwbibWohQMsoLuuSbmK5ziV89Bf9ic2pLJMeXVS3GpDbL0YmpEeTCdkRXtqkrJ6KoiqYH2khNwDexF7kEAjQ89iDzgggEYZKeGRsrXRgGYcYgC50sL3BvYG1nAi1wQQSFzutB7g5V+i79p1leoNzRrrZfGbYr1U5sOPj1e5Aq9+aIOylwcM5GaoqJtgceq3PjSHZ7NjSuy3GnH2LXF37D1aXT5JH6PUQ0e1mGNngPA1kI0vqWvtqxxA1a4/OAvbK4t0DTWIXz4LUiGUcJSSkAG9g0kk21vYHUtDjlvfjgiUrpSaq2nrveGtsH3BqTL6bPdZ7JxmpzHB8yx+QcmoyHHLyI3NrbGItaEra7zDpE4y8ht9h1C2JDTT7bjaeZSxSQyPilaWSRkgg8xH63jQ7xorW1we0Oabh3o9R1B6QdRzqvxjXpARARARARARARARARARARARARARARDMiIzM+hF5mZ/ARfKYIucj223af7h7ZLlhg3Zh9nlHnbH0TF2axjdS1hstJxOVu5ceclSp2cW9+2vwGuN+Fxq+1sokta00z6aSdm1i/KhQcdfq+k4FhUOC0cuLYk0Mny3Gf/RtO4WsSHuNgdC65DGgEnPVsSrH187cOpH3a7Rxbre41ANxmJF9LhoBOd2ruDmWdkv2X+puyw4vVOm8OOuyzbOXOQct5D7o9jii3O1NilEW0SWHHkm/W69pGJEmBjVR3iagw1vzHUOXFrczp1KxfFZ8WqjPKcsbNI2Dc1vPpc8Z29xuSTYXsABPUdHFRRCKIa853k23a+S53WFyTYElbQhFrbQEQEQEVI559SN5+Co/SGBlg5VnX7lpYj4lUeb7wsXRtqqICICICICICICICL4mQRvHrlOEXVcRxL5eXn4fm28XX4k9xZLP/AERD2w2NulYKhmaMnnZr8fj6FQQyqOQEQEQEQEQEWg3kH9frdP5UM0/XksRcvKv6ypWPk4/NHsUgrstPsOcM/HLaf7Q8hGNWrCvEmec/8RWxAFIoCICLV32tPZe6m7VDi9a6dzA67FNt4e7Oy7jvuc68pNxq3YioiGlNSHWE+PY67u2I0WBktQSjanRG481pCLippp0GVwjFZ8JqhPEc0b9JGHc5vVpxm72m4I1F7OcDqVtHDWxGOVtzrY7iL9B9AOoIuASDlChrdiN2oO4Oxx5W5z2YXaGsTtb6KkbOkYzZs5nKQUXijufIXYsqJmtVfuOeA5xuzNixqrKXMbWqlYK8hZtXPRYNhkUizuuPYVDjVHHi2Gt4SctucmvCtG8EWBMjTcDQPvdjm3tkgMNrH0E7sPrJLNGjS7SwA0BJJDbAbrlpFix2jTL0bRzVWpARARARARARARARARARARARARARARQhfSZu2klpXkPZVcNL23v86y9cfCOW2a4AmXZWkdrK1M1kHibr46Ylyb7Pr5M+OxlyISVFEgWzGKIXLtLO+g0l52YwRoy4xX2jhi40QdpcjUSG+gAPgc5PGAHEcYHF68gChpm8JUT3BFtANQb9IGt/m6EPJDXtO0D0fLsV4HZsaaVvLe9LTzebW8sYgtZihkoljH0DrmY5Et67ReM2zXeRIujkR66Xl8+Gv1SdcQGK+G7NrKSDZ2EXtHjZxSpMUDiKKA2bzZyNC+3MN+W+tjc2uGt2sLoBRQDMP30mrjvN/Kenybm7hc5nvkdCtKUWGfJ/tEeDXC4243KPlTpXTN4/DYsYeGZVm1WrY1lWyFOIZsqjWlS7JyC4rTcaWn1iLWvMkrok1kpSSPcpsPrawjvamfMCbXA4twL2zGzb21te9lhlnhhDjI+2QXIFyQDfUtAJtodbW0KtDxv7YnsxOWuX1+vtC80tL5bsC5nM1mPYFeXFlrbN8qs5KlJYrsPxLaFVS2GXz1d1RkzWRpbndSau73SMxnqsGxSibmqKJ7GgEkizwGjeSWFwAFxqbDVY4a2lqBeKUOBNhcFtz0DMBc+QXWyoRi2kBFSOefUjefgqP0hgZYOVZ1+5aWI+JVHm+8LF0baqiAiAiAiAiAiAiAi8VoQ6hbThd5txCm1kfxoWk0qL/ZMx9BsQehfCAQQRcHQ9Sta80uO86w55rYcW0o/lNtRoNRfMfTqXzGM6iXNLXFp3tNl6wXxARARARARaDeQf1+t0/lQzT9eSxFy8q/rKlY+Tj80exSCuy0+w5wz8ctp/tDyEY1asK8SZ5z/xFbEAUitbPI/thezG4lZdP19vvmlpXENgU016tyDAqe7n7FzjFrGOaCer8vxDWVZc2OIzkktBmzZxorndWSiT3TIxJUuD4nWNDqaje9pAcCbNBaSRdpeWhwuCLi4uD0LVmrKaAF0soAacpsC6zt9jlBsba2Nld7jD2hnBzmebkfi5yp0nui6jw3rKbh2I5zUK2HV1sdbbTtlca2sno9/TVpOuoT6xKrWWTUZpSs1EZFhqcPraMkVNM+INNiSOLffbMLtv5L3WWOeKUNLHg5xcA6EjpsbG2o1ssyBprKo4XpB/YrQe0l02nemh6Woh82tHYxOaxFp1MSuj8gNcRHJVtY6MyW1e7qI96UiRYy8Pny1+qQ7edIrZrsKtu5tnXWXZzGzhdQIZ3E0M5s7nyE6Z7c4+kBrYXF7ZXReKUArYbsFp49Wncb6bj06btztxscr2axfRme2mlvKx3sq+ZV7b0Od4gcnCuJWcZ8mVXWctjEzdrZ3FDYJ3Hck0WwKFECQxiSJqUlMgVL+LOKiWlXRQ7yU2nwMcbF6C0kMnGlDddSdZBbeL+Hzg8Yg8dw1cJry69DUt4Oog08hHMRbcDpb5u4NIDmNE3cUZTyAiAiAiAiAiAiAiAiAiAiAiAijpekNdsars09AQNR6OuqouZvIijt2teyZHqtgWkNbMOOVWT75uad5C25Fm3J9ZrsRjTkphTb1qRPeasoGO21XKsmzeC/KtVwk7T3jTnjEaZ3WuGA26i61zYgaZswjMTxAUUPFIdO+wa3UnW9tAQdbEA3AFidSA12r30ZnsV5Fc3jvam8yMesrvYOYk9mXEzBc8KTY2lTBygnLGVyozz2XWuRcbEyBFhJexY5neOBXWLmSr9ZtbWpkUcptPjgdmwmiHBwwnLI4HfbTgxbQAfP1JPgkjjtOnhOHubetqXcJPMARutbQi1tCG2GW1m87QQ2Nym3ijqfUVf0kjttMv7P7E8a4ncWshiUPKfb+IvZrmOyDhNWMjQWmpM+fR1t3RRp8ZcN/ZmR29VfRahTqZXsRDx6fZPxW5MmjfctezWBtxKR9TUi9JAbWuOM7fqN+UA9GUnQk5S0w+K4iaNjIogXVExAaLHW+lr7t9r2OaxAGUuD26j+z09FR3Vypx+Lye7S3eO1tM2u4FyM8m6ooShZFyrvlZOt2yTlu+Np7Wg3LGFZ7OcdROl0kinvrllNolq9m0141YU8SZxHayCicaTCadkjYbNDzfg+KALNAsXtsA3Nmb4N2lzSHLQpsFfUgT4jI6R78xyG4tmN7ixGU3u4gjXNYsaWkm7HaLeiL4drnQOYbU4Dbj3ZszYOusftMssdEb39ouY2G06+kZ9kJtPrDKtc4Bjj2P58VdGmLq4UyBas288mICZVV4xSkYcP2zlkqGx4hTxtikIAdHduU8xIe51xe1yXANAv5V6n2fhjhJpJXMlaHcZxJLr7wcoAsRdpDW3sb8a2V2e3otHavbC5nab2LxF5F5tNz7dnGykxrLNa7EyOfLsM02lx7yF5VG0nLZ8o3Xchy3EMpZgV064kuok2NbnGOlJRKso1pZTY7arB4qGaOspW2paq9x81r99gdNHC5A1tlJJN7DdwiudUxOhnIFVAS1w5zlIBOXmGo10BcXBoAaFLKFSUwqRzz6kbz8FR+kMDLByrOv3LSxHxKo833hYujbVUQEQEQEQEQEQEQEXj4jfiqY8Rvx0MsyFseIjx0R5DklmPIUz3u8lhx6FMQhZl3VqiOpSZm2siXGYszDOGtcW3GYNcXNa4jeGuLHhpIs4scATlNlxe19bXtz2NwDboJBAPOQegqiMjj+FPJ8i6IltEsz+LxmSJpwv9jwT/rUYzMPFHkUfVNyyB3M8esaH3dq+APS10BEBEBEBFoN5B/X63T+VDNP15LEXLyr+sqVj5OPzR7FIK7LT7DnDPxy2n+0PIRjVqwrxJnnP/EVpI9KV7V/YXC/TeuuI/HPNpmA7u5KUmTZZsjYuOT5VfmmrOPmPPJo3valPiqadx3Lsvyl6fXQLmO6uTXV2EZF6qiLZyKqzhW3ZbB4q+aWrqm5qWltYHwXP3kE9DW2JGl8w10IODF659NE2GAg1M5DWjnGYkA2NrjQi+ozWBBDjbAPs6fRGMR2RoPD9rc+dx7r1hsDY2P1mWVuiNEpwTELPV1fdslYQanaGWbIwDJHb/PVV0iKuzgw6+raqJ5vwVS7U2VSVyOIbZzRzujw+nY6KMkZpLuzdJAY5ttb2OYg+s6VPs/DJCHVcjnzPDdQSC23MMw8G1m2c24AvxfBbajtCvRVN3cU6GVyg7NHeO1tzWen1s55D1Vd+qY1ytx48ZU1ZLy3RG0tUwqZjN88gracmxaSNT0Fy6irU1RS7q8egVErNh21kFaRR4vAyNk125/9HxhazgbljbcUvzHwruLWgleanBX0wfUYfK6N0eUhgub5TfUEnMdzhpoW2axxcMu3X0bjttMu7QTEsl4o8pMhiXvKjT+IsZriGx0wWq17fumo8+BRWN9dxq+OiHH2Xjtza0UW4NpMUraHkUCyjxXJEe8eahdpsDbhkrammbakmNrXByuIvYDfYjXdlB3EBwaJDCsRNYx8coy1ERIcLHS3l3dOW5zWBBDspe6VKKqpdQjvSZexWkzk5D2p3DXHrKjz/DzYzPlng2BFKrbSyiYv3LKLyrwIqdaJFNsOgTBjP5UcLunOr61rJ0erWlXcSbu8bMY2BlwiutJDKcsbnHdfTgzfeN2TUOHggniNEBi+HudatpXcHPCCebKRqTe+4G5zXJZrdwAc962j+jzdsartLNAWGpd4XNT/AMM3jvSVDOxJEcotcW7tcSHEVeMb6paZlCG49k7JKPXZbGgpVCg3rjE5lqsr8iqauLF7SYL8lVIlgae8qg3Zz5Hc7Ce0tvY5dNcuY7eF14rYeOQJ23zN3HQjmJJ0uATcg6HQktbIqFbUogIgIgIgIgIgIgIgIgIgIqYzfNMV1vheX7Ezu9gYvhGBYvf5pmWS2rimazHcVxaql3mQ3ti6lKjagRKiDMkPKIjNLcdRkR9Og9xxvleyKNpfJIQ1oG8kmwA8pJsvLnNY1z3nK1gJJO4AaknqC5rvAfUuVekU9tjs3knv+kt5fGvD7qNuzYuHW7ipFZS6SxS0PHOLvFl15iA9CbcuCrIr2RsNtwUXkLHc7smXY1rYE8fSsQmbs3gcFJTOHfcwy5rWJJBLn2zBwsTdt84DgGkBrgFWKZrsUxJ9RJcQUpIaNCMwtm1AcwnUAEZXFuVwdmYumM222y22yy2hpppCG2mm0JQ222hJJQ22hJESEEkiIiIiIiLoQ5krSvMEXOR2pitNyU9L7bw3dUZE/GYHLbXnq9LNQmTWSYPH3ifQ7H1fTPwZXfbep5uVYFj0iZGUk2JR3UvxW1FJcJXRYZn0ux73QOBc5rm3tqM5u7XpBcSDvHNuCrcsTJcdaX3GSMO0JtcScHqN1nN4pHON66Nw50rIgIuc32HkaNoj0mXk/prX7DdRg6M/7SjRjFTGIkR4+A4HuywyTGaltBERJjxpes8YShJERJKIki8iHSMda6p2XoqmV5fIGwya87nhoPpAcRfoJ6Sq1QFkOL1sMTAxhcxthpbLE8+s6+s6royDm6sqpHPPqRvPwVH6QwMsHKs6/ctLEfEqjzfeFi6NtVRARARARARARARWR5A79wnjjr6TnWYK9fnS1v12F4dGktx7jN8ibZJ1NbBUpKjiVbCXGXbKeba2oMdxJml2S9FjSKR3QO6BgXc32flxzGT3xUSl0dFRMcGzV1QBcRsJDuDhZcOqagtLYY+Z8r4opIvGMXpcFo3VdTx3Ou2KIGzpX28Eb7NGhe+xDG9Li1rsX+zyzLNtuUW/N37DsSs8ozza1Rjpertrj1NPR4Nh0KyqsaxyCtxfsdj0FefTG2Gu+ta1KckSXX5b0h93mH7POM43tfQbfbcbRVXfWK47isNNxQWwwwUNFHLDTU0ZJ4Ong7/e2Nt3OJLpJHyTPkkdBbHVVViMOL4pWycJPV1DWaaNayGIFrGC5ysZwpAF73uXFziSc8shj+NXm6kuq4jiHi6F1M2lH4TxfMREtKz+Zkfolh1tzFWmpbmjuN7Tf3H4+hUGMqj0BEBEBEBFoN5B/X63T+VDNP15LEXLyr+sqVj5OPzR7FIK7LT7DnDPxy2n+0PIRjVqwrxJnnP/ABFQq+3EjRd8ekycYNM7AYbuMHXn/ZsaLkVMkiWxIwLPd2V+SZNUuINJkqPJlbNyZK0mRkopaiPyMdIwMOp9lqyohfkkLZpNOYsDgPSQ0C/RboUVXlk2L0UMrA5gc9uut80TDz9B16/KujIObqzICLnI6pxSn41el9O4ZpWMiDjE/ltsT1ilhJKJWRYHILiffbH2dTMQYpoaap4OVZ7kEiHGSkmYx0sQmm0lHbJPRZ5n1Wx7TObFoa29hd2Q3aSekkC53nn3lVuOJkWOOLCTnjL9Sd5lyaDoDOKBuA3Lo3DnSsi8HWmn2nGXm23mXm1tOtOoS40604k0ONuNrIyW2pBmRkZGRkZkZdA5784RcznnrqfK/R1O2x1nyR0BS28XjXmFzJ3XrvDqh1bFbd6Pyu0TjnKDi02/IgswnXqb2SlPY4w4icikhX+CWT7sm0gKeLpuHzN2kwOakqXA1cIy5iLkFoBY/wAIuN7cYjKCTlAsNarUNdhWJsqIwe96kgOFwBmN8pJIawHQi5zODQ55dmeulFhOaYrsjDMR2Hgt7AyfCM9xigzTDslqnTeq8ixXKaqJeY9e1rykkbsCXUTochlRkRqbkJPoXXoOayRvie+KRpZJGS1wO8EGxB8oIsrQ1zXta9hzNeAQRuIOoI6wqnHhekBEBEBEBEBEBEBEBEBFHt9J95IS+P3ZIbexynnWVXk3KDOde8YKSwrXDaNuszWXZZvs2BNUSD71fY6W1vsyrdLqjr7NpLvf0FWDZilFVjFOHZC2AGQtfudl0sBcXcL5hv8ABuRYFRuLVBpqKWQFzXHQOaL5XWJaTcEBpcA03041t5Csj6JnxlqdQ9mS9v56HDVmXL3cewM5l2ZRHo9rH1/qi/s9JYDi0xx3oUiuZtMJzu9hKSnu93ZDyiUslF02drqt1RipgsWso2htiQRmdxi4dGZpYCP7O4G6xYLA2Ghic2zjKA64FjY62d0lri4X6LKUAKspdARc6Pk7OTg/pimOzYnSM3N5gcQonUj7vfVsLh5pfGrAy6fD4krIZZH8prMdGo4c+xkrjqSyZ/Vkc4exu/8AmqzUTNZjzGjUlkbD1ulDh6iNV0XBzlWZARc63sXWU5f6ULy3yeKZvRoW3O1CzBLpe+LwLTfd1SNO9S+AjPJWy6/9p0+MdDxd+TZShjPhFsTfsED3KvUbQ7GK54+aYj2wvC6KQ54rCqRzz6kbz8FR+kMDLByrOv3LSxHxKo833hYujbVUQEQEQEQEQEVtNv7dwjRmAXGyNgT1xaWsNMSBXRPDXdZTfyWnnKzF8diurSUq4kmw6Zd40tR2GXpclbUZh5xNa2v2uwPYXZ+s2l2hnMVDS2ZHGy3D1dQ8ExUtM1xAfNLlcbkhkUbXzSlsUb3DRxLEaXCqOWtq3Wij0DRbNI83yxsB3udbqaAXOIaCVGX3lu/OOQmwrDYmdPNsvuNqrsbxqE867SYVjTby3oePUxOkk3eilG5LlqQh2dKWuQ6lBG201/MrbnbfHO6DtDUbRY68NkcODpqZjiYKKmBJZTw3AvbwpZSA6eUmRwaMrG8OxXFavGax9bVmxPFjjHgxR3uGN9rnb3uu48wG8vs36L2G4l4hONHcXl2Z7JylZmXQ1pbyh/DWF/ORxsOZ6fN0H7m/ZvoBR9yXCKi1nYxW4lVHyhtU6jaT/dpBbyWXVdiohHs9TOAsamWeT/tDF7Igs5ltodQtpwurbiFNrL5ULSaVF/smY7qDY3VpIDgWncRZWsdaWw66w508RlxxlfTr077ajQoy6/EZl1L5jGdRJBBIO8aLwBfEBEBEBFoN5B/X63T+VDNP15LEXLyr+sqVj5OPzR7FIK7LT7DnDPxy2n+0PIRjVqwrxJnnP/EVC97aJlOIelC8ScmlH4MaZtzsvcvU6fvS8Cr31SUjzvUy8yI8acLr/wBmZfEOh4O/PspXRjeGyt+2SPeo6sa1uMUL/pGUn0QtXRSHPFYkBFzo+Mc5GcemKZFNlkUhuDzA5exOpn3+4vXnD3dGNQD8y8vCl47EIv8ANNsi+EiHR62Is2MhI0syF323NHscqzBM1+PPaTqGSMHW2Uu9gXRcHOFZkBFF+9LN4y1W3uzJY38xDhJzLiFuPX+cxLNUR6RayNfbXv6zSWfYtCcaIyj1z1rmuB3s1Sk93u63ZUakpQfW07IVb4MVbTgFzKxpbYGwzN4wcemwDhb+1pc2URjcDZqGVxsDCCbkXNt9m9Bc4NbfoJV8PRg+SEvkD2SGoMduJ1laZNxfzfYPF+8sLJw3DcrcJmVubaygQTNsuldXaV2PrKrbLvL6ewivf/0Ea209KKXGKgNDWtnAkDWbm5rix1JDiQXG9r5rgWIWXCqg1NFFIS5zhoXOFsztC4jQDKHEtFtAG23hSERX1JICICICICICICICICICKFh6Zvn8yu0hwM1ciT3K3Kt07f2VLh97oT8vWOuanE4Mk0fAomo+5LJPX+j650/pGLvsTTMkqqyoc276ZrA09BfnB7QLKu7RTcHSsi/j3FvNcx1/Vb0qRx2QWMVeIdlR2cNPUQigR3uEXGPIZcckkgzvMw09iOXZJKWkkl0dfyG8tH19S7xrkKNRmrqZ1XETKa+sE7s8zZHtcektcW+5TsOTgmGO3BuGYW3EO41x13uti40llQEXON7ShldD6WxpWxR7w7rmH2XkszI+hqRZQNDYYv4Ph6ohqSfykRkOnYWQdjagH5sFV7ZSFTq2MnaGAj50kX3WsJ9S6OQ5irigIudR6MNLTnHbncw8ye6PLl6O5o5o28ZkfR/JuYGjUk6k/jUqPdyPP4yUY6LtTGYsDw5o0DXsb2sc7/Z/V1W8JlbNiFe4by2Ij0MLT2XAPWuiuOdKyKkc8+pG8/BUfpDAywcqzr9y0sR8SqPN94WLo21VEBEBEBEBFSGf59h+rMMv9hZ9ctUWJY1E9as5y0+NIeccUTUKqqoaVEqzu5cpTbESM379551KfepJS0w+0O0GD7K4LiG0OP1goMJw1maR51c5x0jiiYNZJ5n2ZFG3jPeQBpcjXq6umoKWatrJOBpoBdx5z0NaN7nuPFa0ak+kqNFyV5G5fyXz9WWX7btLi9KmVXa9wdEnx4eJ0j7qVOvSVo6In5VONlh2ym93q4ppqMz3IcWM0j+aPdK7o+M90zaA4tiANHhdEHR4fQh12UkDiC4utxX1U+Vrqma13FrI2Whija3iGOY1U45Wd8SgxU8VxDFfSNhO88xkdYGR3OQALNa0DHsc9UMt0/FPnlx2wDUGttRZt7esFssLx86mdkU7FfbDh9lZTLWxubGbElYdOnWUVl2wtJS+kmpaS2Suhuq81D9pdyju8dzvZ/ZHZzZHGm12A1GDU/BSVL6XvmkllfLJLI9jqN89S1rnyud+8pWBo3uO9dPwDa3BaTDaHDqoy0klIzKXmPPE4lznlwMZfILucfCjAHStlmAbV1ftZpLms9jYVnizb8VUHGcirbC5joIu8ZzceS+mwr1EXwpkRWlF08yIfpfANrNltqo+E2a2kocd4uYspqmKSZg5+Ep8wnjI5xJG0jnCu1HX0GID/wBhrYqw9EcjXOHWy+celoXtyWIuNY+IpCkestpUpKkmk0vM9GXUmky6kfdJlR/O4YswDho4FrhpYiyxVLS2S9rZvaNCqfH1a6AiAiAi0G8g/r9bp/Khmn68liLl5V/WVKx8nH5o9ikFdlp9hzhn45bT/aHkIxq1YV4kzzn/AIioXPpPMxODdudw8zNnoyuJo7hdmjrpKJJ+NjPMDeSTdUfxGmPSMefxEkh0XZaPhcDxBp1zPc23Uxrur5yjMWlbFiFA4nUNlPazKPYV0VhzpWRARc43s12V33pbG6rFZ986XmH2oUsjM+ppRWQN84Y2fzdETUpL5CPoOm4oQ3Y2nH04KX2xkqnUbHf0hmcfmyS9jmvIXRyHMlcUBFro7X7GKrL+yo7R6nt4RT47HCLk5kUSOaSWabzD9PZdl2NSkJNJ9XmMio6t9HQu8S4yTSZK6GW7hxlFfRiB2WV0jGtPQXODfescwZwTzJbI0ZjfdxeNf0Wuo5HoZGfzLHR/PLVypPfrsV3VqHZUSJ3upMS9m65tcTnSCR16JJ1jTdcnr8KvU+hn70ulq22pmRVVHUNbZ9S1+Y9JZkaOwEKB2dn4SmfDfxewt5znuv6b29CmnCkKxICICICICICICICICICLn0+mkbMatt7cJNOxEmqz19obfmzHEtl3nVluHMcAxKmQTaS6rUcnSVqSC8+prUSS6mfXoOxcMjafEalgvmswDpcxpcNea2f1qt47JA6Whp5SL8JG43+g4ua7XmBsOfm8inh6M1nB0tpLTunKzwvY3U2rNfazr/AI0s+o4JiVRi0TwSMupNer1TfdI/Pp0FEqJTUVE853zPc8/wB5xPvVgiYIoo4xujaG9gAV0xhWRARc6ztemEVPpU3E2xUXdKXyF7Ky4WfTyV4G6MGrDV5n/mVXQ/mT0HRMLcf6I1oHMyYfaLh71XapuXGqJ30jJ6omropjnasSAi5xPoeiHL3tJOSGXOdVqd4X5u644fmZuZfyE0tcqMz+M1HTqP5+6OnbakDCqRg/jtI9Ecg96p2zzXCvqXO3hj2m/SHsXR2HMVcVSOefUjefgqP0hgZYOVZ1+5aWI+JVHm+8LF0baqiAiAiAiAitztHUWtN1YyeIbSxGvy2jRLTYwUSHZcGzpbZuPIiNXFBd1j7Mums0R5UhHiMOpJxt5bL6HWVrbVXNqdkdmttcLODbU4THi1AHiRgcXRywygFolgnjLZYZA1zm5mOAc0ljw5hLTpV+HUOKQd7V9OKiG9xckOY6xAexzSHNcATqDqLgggkLUNvDsv8ANse9bvdA5EWxKZHfePA8tlVtHn0Rsj6+DTXxpj1OWdE94+6/7ESe6kkNImvKIj/IW3H7L+N4dwtfsDiH9I6Ia94VbooK9g00hn/d0tWNTo/vOQNbYCZ5F+dYrsJVQ5pcHm78iGvAyFrJh5Gv4scnp4J24AOJWsG8pLzF7qfjeUUdzjGR1bnhWeP5FVzqS7gLPr3Sl1lkw28ylRF1Qo0d1affIUpJkY/MFdRV2F1s+G4pQzYZiNKbS09RE+GeMndnika17Qd4JFnDUEjVUSWKWCV8E8ToJo9HMe0te3ra4Ajs15l8way8KrNf65yza+c45gmAUS73NL2Z3Khls/V0V6IxePMu7KzJJ+w1LCjpW/KlqMiZbbPu95xSG1yuAbO4rtVjmG4FgNCa7Ga54EIHF4PLq+eSS37mGFvHkl0ygWF3lrTsUdFU4hVw0lFFwtVMeKN1rb3ud81rRq53MB02Ck26v1LM1DqShwizz3MtmXtKs7C7y3M8lyHInpdjNQxHnQsaYyGykqxzD4yWo7cCvZNCG2oyn3SXLfkOL/qRsHstNsZs1QYDVY9WbS10Iz1FZW1NRUufM5rQ5lOKiWQ09JEGiOngYQGtBe/NLJI93cKTDn4fhsNLJWS18sNy6SWR7ySd4YHlxZE3QMYLWAu67i4n74uaICICICLQbyD+v1un8qGafryWIuXlX9ZUrHycfmj2KQV2Wn2HOGfjltP9oeQjGrVhXiTPOf8AiKhM+mFpcou0k435e2ZoUzwvwh1t0vIycw/kJum5SaVfKk7hJ/N3iHTtiiDhVWy9v37vXHGPcq/tCxxr6ZzRcljG28pe9dHYcxVxQEXOs7IVlFt6VLyysU++TE5C9qncoPoXQvH3RnNYSi6H5e8ten9Sug6Jijz/AEQomnnZCPskD3Ku0ozY1Wu35TH64nLopjnasSAitXvTWcLdOktx6cszaKt2zqvYWs7A3yM2ShZ5iVvi0s3iIjM2vAtXO8RefTqM1PKYJ4Jxvhe1462uB9yxys4SKSPdwjS3tBCgfehb7Laqd683NOy0mm02BobQWy20udUuoLT2YbAxK6Sbai6pUUjdlSS/gMjQklF1Iul721hldT4dUv0DSWFvQ57Q49fgW9Cr+BSQtlrqeK3KPcLc7AWtZqN41PbpvXQVHPlZEBEBEBEBEBEBEBEBEBFzle3wcgco/SO+M3HiUlDlfTWvZ88ZrlCS8Uii7H3ZI2ZeHIa+Dyx/djK3Pg6stpM/Ih0nZ8S0mzVZVMPhCWUDzAWk9jO0Kr4i6CfF6SCQAubmYdN+djTGL+c426Dc9K6NQ5srQgIgIudp23X+Lek5cPn2/JZ7C7MWQZ9On8o3yOZQk+pH5+9ZQOgYT/mpXjyP9qr1Yf8AK1D5DN/3LF0Sxz9WFfzTZSIUOXNd8mokZ+U4Zn0LuR2lur6n8XvUGPoFyB0r4TYE9C53/oXtaT3KrlfcGnqqu4oazriX0MzIrzZBS1J6/F1OgSfT4+58w6Fte8uwzDLm+ctcevgzr61X8HZaqxB2+80w7HNPvXRJHPFYVSOefUjefgqP0hgZYOVZ1+5aWI+JVHm+8LF0baqiAiAiAiAiAiAi05drLmUJ2Xo3XbbEB64jw8sz+2nuxIrlxCp33ouK4lXRrNTZyGKqROi5y6/GS4llx6piOrQpbTak/jf9rLGoXz7EbOtbHJWRMqq+Z5jaZmROLKWkjbMRnEMrm1rnxAhhfDE4hxa3JzbuhVLS7CaMAGRokmcSBmDSRHG0Hwg0kSktvYlrTa4utTWLYtkuc5NRYXhtLMyPLMnsGqqho69KVSp810lLPqtxSURYbTDbz0mQ8pDEWPHdkSHG2W1rT+TsKwrE8dxOhwXBaF+JYticgiggjF3yPNzvNmsY1oc+SR5bHFG18kjmsY5w59T089XPFS00RnqJzlYxu8n2AAXLnGwa0FxIAJUknihxZxrjJhbkY3IV/tHJ4sZWws1YbUbTqm1eO1iWLqfQlyJh8N8y6GaW3rKS2c6WhBeqxYX9Je5R3K8M7mOCujLmYjtTijGnEa1oOW44wpKQuAcyjhdzkNfUyAzyhv7qKHtmz+AwYFSltxNXzgcNKNxtqI476iNp9L3cd3zWtymcbQ824y4XVt5tbThF8PccSaF9Pn7qjHVBoQehTpAIIO46K1rja2XHGXPJxlxbS/h/ntqNCvh+LqX/AORsDUA9KiSC0kHeNF4AviAiAi0G8g/r9bp/Khmn68liLl5V/WVKx8nH5o9ikFdlp9hzhn45bT/aHkIxq1YV4kzzn/iKhjemhVpM8q+KFuSS71jxP2ZXGo+vUyo9kKlpL4PPod+o/wDvDoWyDy3DcUsbFhLv+z3+pR+MMBq8PdziWEdrn/BdECFKRNhxJjX+TlxmJTfn195IaQ6jz+P3qyHPiLEjoVgBuAelf0j4vq52nYi9JPpOXMF9zzWWwu06kEf/AGjnI91Cj8//AHXl/wCsdAxb/NSgG4WZ7dFX6M3xauJ3kxf9y9dEsc/VgQEQEXOW7A9yBxc9I75M8eYyUt19zadoLxlpUKLwyVF1vuyNsyjOO38Bdce0k8tvp8DLiunkZjpO0Amq9maOqebZRFKR54DWnsfu3a+RVfDXU8GLVlPGBdxaxun0GOMgvzcdovzEgdAXRpHNlaEBEBEBEBEBEBEBEBEBFzk8Om1vLT0wiZNmpS9W4zzOzqL322+rTU3hHxcvMZrTcJKDJCk5pomAg1eXV5ZGoyUo+nR3slotjOK7MJWNdv3Nnc24Hpfe3lJVYa+Gpx8tcAHxMLRcfPjkzAjf8zn9hXRsHOFZ0BEBFzs+2rMrL0n7h/AR75SNo9l/WGReZkuRyIr5JJPoRefdnI+Mz8/h+Dp0HCdNk68ndaTsBVfrNcXoAN5MvrhYPcuiYOfKwKls5WprCswcQfdW3i2QLSr5FIqZakn1/rIh7j5RnWPavjvBd1FQCfQsG0HvTmo6Ze/Rx448tpV8iHMw2CpZf2m0j/ZF52tJ7wwgc2Vv4AoLCfGK/wD18/4o10HxQ1PKkc8+pG8/BUfpDAywcqzr9y0sR8SqPN94WLo21VEBEBEBEBEBF+kRmZERdTMyIiL4TM/IiH0AkgDUlFGt5n5Va7j5e7DrsYhTskl1mR1OmcKpalhc6fZS8NbRQTa2sjtdTfXIzheUPJ6e9IphrUZJJSi/mr3aMVq9sO69tFTYZDJiUtNUxYNQwRNL5ZH0Y73fFE0eEX1xqnjm45cTa7lxPaaokxLaOsZAwzGN7aaJrQXFxi4hDQN5dLwh9PQtwHDjiLU8a8acvsjKDc7qyuuQxlV2wpuVCxOqeU1JPBcUlEnocRLzbSrKag+tjJjpJJ+px4yR+v8AuNdyOl7muGOxDEslZtri0YbVTtIcykhdZxoKV30A4NNTMNaiVo14GOJo6Ns3s5HgcHCz5ZcUqG2keNRG068FGegHlHDw3D6LWrNEdqVmQEVC5FG8Gf4xEZIltJc6/F4zf8k6kvn7pMqP53RlYbi3Qo+pbaTNzPHrGnw7V8Ee1roCICLQbyD+v1un8qGafryWIuXlX9ZUrHycfmj2KQV2Wn2HOGfjltP9oeQjGrVhXiTPOf8AiKh4emntoLenCt0i9+vjxyGbUr5UN5hr5SC/sN1f+0L5skT3ji/QGu/AVpYvy9AP+ng/FIp+2DLU5hOHuLPvLcxbH1qV8qlVMRSj/wBZmKNJyj+s+1TrfBb1KqR4X1c7TsUzKt9J+5gQF+Sl7Q7UCsIj+HxI/IifJNPn1Pr3IK/j6+9Pz+XoGLC+ylA4bgGH0EqvUYti9cL6gxeqF4966JY5+rCgIgIucpmE2u4l+mERJsIkM1uT8zsGjd91vo07N5t8W6PGbE2iUhJLUrM97zkErz6PoMyUpSep9HYyau2MOZ2VsTHHTnZA42B9LL+gdKrDpIabHg1ou+ZoabDc+STMSejiHf7yujWOcKzoCICICICICICICICICLnKejYWtZyq7ebk5yasY61rs9e81+T9C+ljvMx73dvI3AKuGS1p7qYzq8T25liUdC6qS04lKST3jT0TaSKXD8BoKJhzwFwY431uP3jAOkCzh0Cw8irWFvZVYnXzublmbwdgRY6NLH9WttOpdGsc7VlQEQEXOd7Vad7Nele8aq9J+J7Ccp+yqqHEF1V3UozzUmTuoMi+D+QuDV/Urr8Y6ThcY/ofVk/OiqXfZz29YVWqpg3HqVrvmPsP78bAPWexdGIc2VpXyb6CdpR3VYRd47GpsYJJ8vM5cN6ORef+kHphyuab2sQV8cLgjpC57/oW9klnklzBqDURKsOMWmLFKOpdVFS57fRHFdPjJJ3rZH8niF8ovm1rLYdhLiNQGg//AI/5KBwhwNTiDRzTTHtcz4FdDYUFT6pHPPqRvPwVH6QwMsHKs6/ctLEfEqjzfeFi6NtVRARARARARARUzm2YNa+wzLs8dgv2p4bjV3kkamiMuyZ19ZVFdImVGO10VhKnJlpY2rcKDFZbSpx6RYNNNpUtZEcZjeLt2fwXF8ddA6qOD001Q2FgJknkiYXRQRtHGdLPLkhjY0F7nva1oLiAsFVUijpqirLTJ3rG+QNAJL3NaS1jWi5LnuAY0AXJcAFhRwl4fPaNrD2ltdLF1yDzCLJlWbrqmpjOuo14bkm3qa6QhSkScvnvSn1XNghRkgnVVkFXqyZcmy4r3Eu4+7YWl/pTtYG13dCxhjnyk2eMNbPd00MbgS19ZO5zjWVDSQ0E00J4MTSVNX2X2bOFMFfiFpcYqAS46EQh18zWkaGR9zwrxuvwbDlzF+fo76regIgIvg5FH8aATxF1VEdS58Hn4bnRpwi+QiNTaj+Zse2Gxt0rXqWZo787NfRz/ryKhRlUegIgItBvIP6/W6fyoZp+vJYi5eVf1lSsfJx+aPYpBXZafYc4Z+OW0/2h5CMatWFeJM85/wCIqG16aRZJe5I8PqgldV1/GLdFitPXr3Sus9oIrR934u8qidLr8fc+YX/ZJn+TsWcNXEEAf/bWji7gKjD2nnmhPY59/aug/QQTq6KlrDIiOuqa6CZERERHEhsxzIiL4C6tihON3OPSSp5osAOgL6w8r6uc72VE32G9K95LV61E2dzyn7VWpbR1Mu+hzPNtZM0jp08/5CoJfydE9R0jFIx/Q+jI+bFTn0uLL+1VelmDseqgBo91vsRvB9YXRiHN1aEBEBFzlPSTrSr4q9vPxj5NV8daF1mvuFHJ/IH1MdGZN7pLkZn9VMJtau8mS6jE9RYmlfvfepcbStPdNJq6Hs3FLiGA19FIcsAcWMN9bn944Hdobt67n0VrFHspcToJ2tzSvz3AFzq0Rs3anW5tqd+mq6NY54rKgIgIgIgIgIgIgIgIse+W+2HtDcUuTe8o5ml/THHvdG2GVEZkZPa61xkuXtmRkfUj79OkbNHCKirpYDunkYz7Tg33rFO8xwTSC5LGOItv0BOnlUJ/0K/W8RzN+fGz5cRZ2OKa64uawpp6mi8M2cpst0ZPl8Nt0z6ocJzDcHccQXkonGjV5pSLptqXxNw2mD7wBrrDnzMs255tQ63aoLAXRzGtnDcsjpXu3fNksQL8+rD1elT5BQlYkBEBFzmOY1cvPfTBcOqYxlLRUcx+Cspsm1eISEa8406J2DYkZF16GzIqZ5rL+ibJmfmQ6TQyiPYyUHQ8FUN9L3Pt2hwVUqqcv2gY8a6RSdWV7WH2etdGcc2VrQEXOP8ARASlYb2mPJjWksjakQ+HOwoUtlRkkyna15FaXxl5CkfGtC8hfL5S8/nHTNs8jsKo3s3CZtrbrGN/vAsqlgBl7+q84OrS4n+09zXD0kAn0FdHAczVtVI559SN5+Co/SGBlg5VnX7lpYj4lUeb7wsXRtqqICICICICICJ8nzKQovmU2tLjai+RSXEIUR/CSkkZeZEF/d6iCOwgEdBAKfrs19uqBv3ogIgIgIvBxtDzbjLhdW3m1tOEXw9xxJoV0+fumfT5x9BIIsvhAcCDuKtY42tlxxlz/KMuLacIuvkttRoX8Pxd5JjOokggkHeF4gviAi0G8g/r9bp/Khmn68liLl5V/WVKx8nH5o9ikFdlp9hzhn45bT/aHkIxq1YV4kzzn/iKhPel/lKzLtMeM+tYhG6/L4c69hRGUn1M52yuRW6MaZQlPxOLXjscvlPon5h0zYzI3Cq17v4zr9QiZb2lQePGYV1JwYOjQ5p/tMc4nTXUAg7ucLo4jmatqAi5zHDmuXgXpguZVMkyiIt+Y3OqS4ThkgnG9hcat7bCr0+fTqb0m1rzR/nG6n4TMdKrpWv2LiG88HTtHkLHsv6gehVWlpyzH5HHS4lk68z3MHt9q6M45qrUgIgIoDfpqGt4jeb8B9nxIjnsjlmuuUesLqeTReETGLWWl8nxCG46Xmt03MzzhxtB+RE04afNShfdis8zcSpy60GVtxz5pLtuPQ3X0Ku48+OE0U+W8jJWO3fNjuSL82rgpsPEnbDu+uKfGTeT5mb+5+PmmNsPGZ9TN3YuuMby9wzMzPqffuDFLrIRT1lXTjdBJIz7Li33KdgeZIYZCCC9rTrodQDqOnpWQY1llQEQEQEQEQEQEQEWnzt+9lydUdjlz5ySI4bT1/phvU3eL4TZ3vmuJ6Qkt/B/TjbCdR/3xMYBAKjGKCImwLy77DXP/wBlalfMaekmmDS/g7Gw1NswB9AFyegarU96HRgEWm4D8l9lLiKZtNgcxsgoUS1JIkzca13pjTkWr8NXTqpDWSZHmjZ/ESiV08zMTG2jnfKcMZdma2JrgOjMSCPuA+lR2z4HeDTlyvaS06b9S9p8os9S5BT1OICICLnMcV7T3b/TAstvpDS50PHOY3MWHJWpJOFFToLjht/U1W8rqXvUNZDhdO2g/wCiZo6efQdHq4hBsZGWusXshf1l7mAjrsT2KrwTl+Pvjewgta+O9uh5laT5C0WHToRobrozjnCtCAi5zXY9Tj42+lG8hdLxI71ZV53ubtHNH10RaTR3sbj5Xl2/8S8RPkSWXaHUlM+35dD8Vvu/CQ6NjMYqNlaOpe/NJGyF4635QR1tBI6bA811WKKUsxqrgbEQ2S2p5mxMcy/UXWsfiujKOcqzqkc8+pG8/BUfpDAywcqzr9y0sR8SqPN94WLo21VEBEBEBEBEBEBEBEBEBEBEBFQmRR/BsDdIuiJbSXfkLxUfyTpEXy+9bUfzuf1jM03HUo+oZlkvzP1+K+EPS10BFoN5B/X63T+VDNP15LEXLyr+sqVj5OPzR7FIK7LT7DnDPxy2n+0PIRjVqwrxJnnP/EVCr7YWcfJH0o3j1peZHdsqvBNzdnFo+xhpR3zTjcnK8R5AZb4ZH5KZbodt3D6/iLw3OvwGOj4PGINk6ypZJlfIyZxtzFhc0DrIA9BUTWyl+NUsLoiWxk6jW7ZWNZfqa69zzWPQujIOcKzoCLnMcp7X3D/TA8TvozS4EPI+Y3DyHGWhJNlKTv7jfqDU1o8np/ObdyHNbhtZ/wBI+/18+o6PSRNn2MkL3XLGTPHkMbnho7G+tVeafg8fYxsZJc1ke7peJXOHkAOp5je/SujOOcK0ICICKI36Yvr+Jc8B+NGy0xFvWmvuY2P0C5SSI0wsb2JpncUW08Q+nUkO5JjmFtl8RqNPXz6C4bFvd8pzRh2Vroi4jpLXNAH3yfQoPaADvBxy5nkhosN2oe49VmarbD2Auy5O1+xy4DZJLcNx+g0u5qbvGXQya0PmmWaQjt9Pi7kfXjSf+4IfH4BT4xXRNNxnDvtta/8A2lI0MxqKSGYtLOEBIB32zG3aLEeRbgxDrbQEQEQEQEQEQEQEUYz0tbZUvCOyhj4dGcWhreHKfRetZyUde67Dx1rM97eG708vD9b0xFUXXy77afj6Cz7IwMmxhhebGFjnt1HhAtGnToToNbX5rqJxuV0VBK5rcwddp8ge1zb+hxCv76MZgcfCuxi4uWBQVQbPY2Qb/wBjXJrQaFzXbnkDsyqoZ6uv89LmGUWL9xXwG2hHTy6GMG1Dy7G6xpdnEeQA+TI11vQXELLhPiFMSwsJaAQd928S/py3HkOuq37CvqRQEXg442y2t11aGmmkKccccUlDbbaEmpa1rUZEhBJIzMzPoRF1MN+5N29c5r0XubM5TdtTye5W5DVS3nbPTvKHf67B1PiIps65F8hcAm18Wa91MkzX8YynYqEGRmaygPmR9CUOh7StjpcBw+nppQ6B7mgDW7mlpeHC4HFB6ekKtYU90+I10k0ZbKC0X0IDowY3i45zmB0uOk7r9Ggc8VlQEXN87Yya72b/AKStrXl9PkHR6/yvOOKPLK0foojjz7Gr3IsPjzyHgpYb/wCVXk2k1ls6W80Rms/bfHcNB+MgldGwbLiWzFTRNZmmgD25pDZgcSS0hx0GRliRpzX0JKrFc51LjFNO59o5hlysF3kAh4BGp48psLAGwI6SukA242822604h1p1CXGnW1JW242tJKQ42tJmS0GkyMjIzIyPqQ5yrOqUzz6kbz8FR+kMDLByrOv3LSxHxKo833hYujbVUQEQEQEQEQEQEQEQEQEQEQEXwcij+LAJ8i6riOpX8/gvGTTpF83eNlR/M0Y9sNj1rXqW3jzDe0+oqhRlUegItBvIP6/W6fyoZp+vJYi5eVf1lSsfJx+aPYpA/ZcONtcNsQddWhpprL9quOOOKShtttGwciUta1qMiQgkkZmZn0Ii6mMe/crVhelEy/S/8RUI/sdZz3aQ+kr7K5ewJJ3uv8Tznldyxq372G4y/I1czEmceOO8I2HD/wAVvIVLszV8tlszJRe1GQ4SP5JZJ6PjAbhuzFPRlmWWcRtzMN2Fws5xc4CxL2gm3TexOW5iaFxqsYqp2vvHCMuV4s8AnMQBof3cosSQdCB0FdIMc4VnQEXOX9KDmy+LPbVcYeVuPVMtp2s07xe5AIsGkk2i5zrjpyGz+ZYRYbvUiVNYxjFddIWZmRoKcx1MiNI6Hs01lVgOI09TKG07HOB33a0ND3ONgdCeYXOh01VaxV7oMSoJIoi6QlwvoAXSARsF+nQnXTo510ZW3G3m0OtLQ606hLjbjakrbcbWklIWhaTMloNJkZGR9DI+pDnm7erKvMEQEWgj0nPA4+bdjDyjsDgqm2euch0BsamNKO+uG7TcgdZ1V7PL/MS3hl7k/fV8SFq6+XUWDZd7m43RtDsgkzg+UZHOt6S0BR2K6YfUkNLyGkADfd3Ev6M1z5BpqrCeiU7Kl5v2UEjDpLi1taP5Tb01rBSvr3WomRN4bvbw2uvwN+tbnlKPp5d9avj6jPtdCyHGHlhuZmNe7yOJcLH0AeiyxYJK6Wgjc5uUNs1vlDGtbf0uBUnIVhSyAiAiAiAiAiAiAihK+mg7On1GreAOok98qbLdjcgdv2Ku/wBGSnaewrAMKrUuJ69DX6rvm4NKunvSQrzLr0O7bExwvq6uR5tNCxpYPIczXno0u0ann7K/tE+VtLHGxuZk7sh6b3a5thz3ykelSaeyhwFOsOzF7PnCFViqefT8NeOLt9WrSSXI2VXOp8Vvcu8VJIT0eXk9nbuL6l3u86feM1dTOr4k5zsQrcz+FIleM3SGuLQfSAFNwFphic1uRrwHWNrjNxrG1xpfmJHlK2AjRWVARaz+2R5EtcV+y75vbiRYTKq9h6Fy/AsGsK51LU+DsvcjLOntZ2EQzIzNUbPM6x6Svul3iZhuK6pJJqKTwandVYpQwtAN5GuIduIZxyD1htus6arWrJGxUs735gwNIJaLuAOhIFj4N77rAC50Ud30MrQUnHdGc1eSkptooGxdp6v0HiyHYqUyWYOh8NtsyyCwhSltEpddMtN8QYjncWbapGFmlReIwZFYttZWGspKdrCx0UZJN+KWuPFs29hlIcNwOvOLKK2fa7vSSZ787pnucbjjBx33POHAMcOtTUhSlPICKKv6Vx2e91yg4Z4ryv1rQP3uyuFL+X5DmNPXRjdsMj43ZxDqS206hiNEU7ZS8bnYvi2SIJ11DMOlqcmW0lciUlDlr2SxFtJiHe0rgIq2zQTrZ4vlG+wzXsdCSQ0AKHxqlNRSFzDlfBxwb2tlB1vbm1Gpa1ocXk8VfE9Hp7cvj/uvixrTiNyq3JhGp+TXH3FKTW2K3W0svo8Po+Qur8dZjUeucgxDI8jlxo1vsqFjTdTV31OqS/bz36VeSMJkRp8xur97R4DU09ZLV0kDpqWoJccrS4scblwIHzSbuBAAbfLYWaXfMLxKKenayRwiliFiCbAWNgNdRzAXJzDnLg8NklXm6NOZZTTqHF9taxyO8tGCarKejz7FLW0sXUGUpTUGBBtluy3SjR33O62lSu4ypRF0IxW44J2Pa98L2tG8lrgB1my2cQljdR1AbI1xtuBBO8cwVqBmVXQEQEQEQEQEQEQEQEQEQEQEXg60h9p1hz+Y+24yvp06klxBoUZdfjIj6l85D6DYg9C+EBwIO4q1i0LaWtpwujjS1tOF8jjajQsv9pJjODfUKJIIJB3g27F4gvij38i8rxGHyA3hGm5jh0GVF2tnMeVFnZbjsKVGkM30xt5iTGlWaHGHkOJUlaFpJSTIyURGI+SGd0j3Ngkc0m9wxxBHSDaxClGOaI2XcBoOcdCsTzx7Z7UfF/so7bhjx/2XjGc8sOQrO4cHyeRgWS1WRV/HjUea5pksDNsrzG8o332KnYVnhkufAx2rRJZtIjuQtZI74EevjM2Nl2bwGoqauKrq4HwUtOcwztLS9zdW2DrHKDYl1iHWyi93FsmcQjpsMETSJJpS8BoN73cdNNTfnsRYfODiwO2CeijdnzdcYeGeVcsNk0D9Fsnms/iGQYbUWUY2bHHuN2Dw7b3Jn1sSoiXa2Tks7KMpyRRNOrZmUtrjLjqUyIxob87W4i2rrxTRG8VFdpI0u/5w32OXcLgEEuFlI4LSup6UOecz5znJvmBzAag259AbFzXZQ9p4ylVCqKYQEUKz0zTQUnItG8KuSsVppUHXe0toaDylDURK5D0He+G1OZ49YTpSGjUmuh2eiLCI2TiiaTIzQkJLxX0kd12KmYKyqgczO6WO4N9A1p412k2OYlg0BOnMLqB2ga7vRkrH5DC8OFhxi4aNseYNBe49Q3aqRL2OHIprlR2XnCLcblhMtb2doTD8DzmxsXUu2E7ZmnGXtP7NsJZkXUlSc9wXIZKO8XeNmY2ozV3iUdcximNJidbAQBaQuAbuAfx2gdQcB0ggg6qVo5Gy0sD2XLC0AFwsSBoCRYeFa4sACDcaLZcI1bKAi1/dq/gKdn9mJ2g2EJrFXM+44a8jnqGtQklOScqptT5Ve4j4STQrq8jKKyocR0Lr3mi7pkroZb2GOc3EaIsfwTjKwZvo5nBpPoBKxTlrYZXObmawFxAtc5eNYX05vJ1qMt6F9s2db6s5/ahV3zpsS2Px/wBv16u91ZOduHCc+wqxS2jr5L9V0LUGpXQu8S0kZn3ehWjbaKFlZSSMP76Zji8eQFrWH02cPQoTZ18rqWRj25WQOyDpvdz3XHMeOB6OtTahSVYEBEBEBEBEBEBEBFBW9NK1HllhW8DN0w6+yfwSIjkdpDIrzok6XHs2zqBq/NNf1rvVzqiyt6PX+y3UGSe6pGEmlS+93Endti7ST10BcGl0Rta+c5i0EjQgBthck7y2wNyoHHnOiipp2sLxDKx51AaAwmw11u4v0sDoCToFKV7LjnHonnhw40ntHTmY4hY3ldrLAqLbWtKS2iOZJpjZFdjsWryfAcsxxXhzKEo15WWrda/IjMR7atYj2laqRXyo77lbxWhqKCtninjcwOc4scdz2k3BBFwTYjNYmxuDqpSjninp4nRvDrNF7X0IFtxAIFwbXAuNVsUEatpARQFvSxO0do92ZtqjsxOO9hI2RaYBsOrz/kDEwRmRkEqz3Y+1Mw/THHmmbpJDjl/mMWVkdxZXVQiM+bNrZ4rFad9lYdjDidA2Sw11MyXGKocFGWlseYgXboS4hwsA42DHZ2nQ6FrgVWscqTKYqCAkySnUi9gNQTdpzWaMwcMrmkFw8JhAludlJwxVwA7P3jTxcsiguZvg+DHebYnV7seZFn7i2FbWOwNpKiWrDDZ3NTFzXJbivrJLiScVU08BBklLaUJp+K1nf+IVVUPAkdxdLcVoytNrmxIAc4XPGJU7SQ9700MR0LGgakG3kuAL5RxQbC4AWw0R62EBEBFEm50eiP8AEzkXsa42bxU3HZ8MHstt591l2qmdW1m4tEJnTush9euMETmuLztXMPWTkh1yBFuZlDFbdRFpqSqisoZFto9sMQpoDDPG2sc0AMe8kEWOpfbWQkaXu0kjM4uJJMLUYHSzSMkYTTlpuSzR242DTewAJvq0kAZQQ0AC0PCP0Vm84F8tdGcwpPNLB9lQtCZZY5dJwWt4tzsCm5O1PxPIsUTXtZOvfdwmqWleRJkEtUGQRLhp978Y81e0kuJRd6vo4o85NnNacwOUi7SXHKdSDobtJbpe4w1GHmmpp5e+5prBukkmZuj2uvbKNeLbfpcqTOIRQ6AiAiAiAiAiAiAiAiAiAiAiAioLII/gWKnSL3kttL5eXQicSXhOp/r6oSo/9KMzTdo8ij6ltpL20cL+4/H0r4g9LXUFXnX2PNht3m9zB2wjfuKY+1szkxufPWqOTpWbdSqdrK87ubpqtdtEbMipnusImJbU8TDROqQpwm0EokFY6fbFtHTwUnycZO9mMZm4UC5Y0NJI4M+Fa+moFhrvW/HCwxx5nSbuaSwFyTo3Ibb9dd9zz2G3nsfPRmuI02lwvlPyk2Bd8onKvLLp3F9GTcFq9d6MZs8MyOzp2JGxcb9sd5O21D9erIcxuvlWFdRPpU5AuaW5iLWhzUxDbGtqozFSwihDgQXB2d9jztdlZkNtNLkbwQQLT2F4VSFnfLmmQucbB2pGU2IJFgQSL+C02u0lzSQZrIp6saAiAi149q5wxXz/AOz85LcXKsoKM4zfBivdTTbB2NDiwdx68tq7YGrTlWshhz2GqZWaY1UV9nJbSbiKq4nIIlJcUhUjhNb8n4jS1RNmRuGbeeKdHGwIuQDmAvvAWvVw98U80W8vaRoQCdNRcg2zC7SbXANxqok3onXaOUels02v2YnIawka4tc/2FabB4/Q85ZfoJVbullmHiW6OPVy3dSW3KDMZMnHKizpalcVg3rSuyqM86VrLrocu3bW4c6pZFi9LaWNrQ1+Ug8XUh1mixDTcOdmcdRoGtuoLA6kxGWgnNpIjoTexGgBBcc1nAtDQGNaAG65ngKfOKArKgItd3ajc4NFcEOG+7NqbkzDEq64sdZ57Q6m1vd2kVvItz7Jsccl1uMa+xLHUk5Mv1Sruzq0WT0eM/Hqa1+Ra2ao9dFkyG5LCqCor62GKCNzw1zS9wGjGg3LiTYDQHLcjMbAalatXPFBBI6R4bdptfn5twBJGovYGwUWf0LXUmWV9dz03RLr7JjA5SOOOkMevOhFS5Dm+CwNo5pn9a10d6rsqijz/Wrq+qDJKM3SSV9fESLJtpljnoIA4OLItb+GLEgF2gBDr6EHeHaC2sXgRdJHUzujLBPK941BBDyLgWN7tLDe7RoQRoVOpFJU8gIgIgIgIgIgIgIse+U/FnR/NDRWecceROFRM71ZsOvZiXNS6+/Asa+fBktWFHkuN3MNaZGP5TW20aLLgTo60usPxkmffbU42vPTVM1JPHUQPySRm4+B8nrG8EEArHLEyZjo5G5mO0I/Wh6CDcEXBBBIUIDfXofPKfXexizHgnzB1tfUsWZPm47I3lP2DozcmFwiceVWVTGzNKYjkEbNbco6Y6HLFqsxNpbi1KKEylPU7zFtpC+Fza2gzykBvFILXajMTm1aOcAB24AnnFffgLmSA0tUYGAl1jxxfc2zCbHS4LnON+gA2FCJ7D30muKXsLH5o5sVS2RtI9W7TnlA1Tm2kzSRNwlRkOJaNPQ+hxiPofQ09fIYflTZc/vHYeRIea8n/p5Nyy954tu7+Nv9TD+Zel30bTt9s2Qp/L+ams1uvoU08zmvPHmNkDi23iNDrcj1XTFk280aVKJaTWolEoy6GR9B6btNhEBtBhAIHPmH+00o7C694IdiI43/AEEYPaHewrcP2NPoyuG8DdnY7yk5eZzg++eRGEqcm6mwTAay2Vo3TWTOnJZd2BFsctrYdltLYjURxHsRYT6qmh0L0qRNjVcq5aqris0Ma2plxCJ9LSRmmpZPCJtncLC7TYkBpde9jdzbA2GYOy4fg0dG5ssjzNM0WvfTTRpseYACzdQ063cQwtleipKaQEQEQEQEVrd1Wcyn1jlVjXrbblx2K7wlustSGyJ65rmHCUy8k0rI2nVl5l5depeZEMsAvKwbt/sK0MTdloZza/g+tzQtf3ul5d9s1n0JW/uBuadB7f5KrXPQPX8U90vLvtms+hK39wGnQe3+SXPQPX8U90vLvtms+hK39wGnQe3+SXPQPX8U90vLvtms+hK39wGnQe3+SXPQPX8U90vLvtms+hK39wGnQe3+SXPQPX8U90vLvtms+hK39wGnQe3+SXPQPX8U90vLvtms+hK39wGnQe3+SXPQPX8U90vLvtms+hK39wGnQe3+SXPQPX8U90vLvtms+hK39wGnQe3+SXPQPX8U90vLvtms+hK39wGnQe3+SXPQPX8U90vLvtms+hK39wGnQe3+SXPQPX8U90vLvtms+hK39wGnQe3+SXPQPX8U90vLvtms+hK39wGnQe3+SXPQPX8V/LKz7I5pNlKXVvE13/D61EJvud/u9/obSEmfXuJ+H5B9Btuv2/yXlzWvtma11t2h5/Sv5Pbhcf8AR1f0az/5h9zny+r4LzwUf8NvYfitB3IbaMmDyD3XDl4bh1k0zsvKEqlEvMqu0c785Tq1+LXZcmEh01uKPr7HqLz80mNCXlH9ZUlHTwmKP93Y2GoLhzeUkepSNuyevYeRcMMOsYVY/UMnnG1mDgyLVFyttxnYN8Ti0zUVcPq0pR95KFNGpCVElTjhl3jx+m6ncPY1lM1rbkAu37/CPkHsWyMFuoCICICKJ/2y3oyuIc8Nn5Dyl4g5zg+h+Q2butzttYHsCttkaN3FkzRxWW9hPWWI1c2y1dsV2I0s7idBqrmHfvxY86RWQ7l21uLS24LtTLh0LKSqjNRTR+CRbO0WNm6kAtDrFpJu0XaLjKGQtfg8dW8zRPMM50uDYa6ONgOcE3boHO1u27y7T616OD6QFhSUvYjzV1+lxhCWmGsL58cxKFbbbKUtstx/W9QVqGWiQhJISSkklKSLonp0LedtJg0+k2EhoO+xt+Fo/msLcMxCMAMxEHLu/cR308pdr1nVeZ9iR6TrJI6SRzP2CdO4XhOHI7T/AJOO0xtq96ZOQi77i2u78JerH1IundP4B5+UtlQM4w4mTovJ8bepfe9MWOhrjb/UwfnVd6J9D95XbI2R7c+d3MLWtFTy5NfNyOZpOy2Hvfc+ZQzcZVZ1D+yd14lj8bDLY46pCG7Jyvy1pt1CVeovoPqWaXbOCOBraHD+Dls4EOIyNGuUgt1dYm5BDb7rg6rEzAXPe41VUZo3OD8oGQF2512NNhxbAOa4W6CBZTfuK3FjR3C3ROCcceOuFRcE1Zr2A9Fp6pt9+fZWNhPku2F5kuS3UxapGQZTZW0iVLnzZC1OPPyVdO40ltpFHqamasnkqKh/CSyG5P6/R3m5JKsMcbImNjYLNaLD0dWnkAFgBYAAABZDDAvaAiAiAiAiAiAiAiAiAiAiAiAiAiAiAiAiAis9v360eY/6Cp/X9UM1PyzPT7Co/FfEJ/7v42rWgNpVdARARARARARARARARARARARARARARR5uTP2Rm8vym5P+lENOXlX9ZUpFyTOoKSz2Nzne4RY4jr18HZW2G/j8u/mU98i8/meL/WMamaLkBpbjO9pW1AFtoCICICICICICICICICICICICICICICICICICICICICICICICICICKz2/frR5j/oKn9f1QzU/LM9PsKj8V8Qn/u/jataA2lV0BEBEBEBEBEBEBEBEBEBEBEBEBEBFHm5M/ZGby/Kbk/6UQ05eVf1lSkXJM6gpJvYyr73CuAn/AKLa20EH83evGnv7PJ0v9YxqZouQ/vO9q2uAttARARARARARARARARARARARARARARARARARARARARARARARARARARfOtqirva+TU3NfEtKyWTaZUCcw3JiSEtOtvtk8w6k0uEl5ptRdS8lII/hIfQS0gg2IXh8bJWFkjQ9jt4IuDz+1UX7kWrfvfYh9A137ge+Fl+me1YO8aP6sz7IT3ItW/e+xD6Brv3AcLL9M9qd40f1Zn2QnuRat+99iH0DXfuA4WX6Z7U7xo/qzPshPci1b977EPoGu/cBwsv0z2p3jR/VmfZCe5Fq3732IfQNd+4DhZfpntTvGj+rM+yE9yLVv3vsQ+ga79wHCy/TPaneNH9WZ9kJ7kWrfvfYh9A137gOFl+me1O8aP6sz7IT3ItW/e+xD6Brv3AcLL9M9qd40f1Zn2QnuRat+99iH0DXfuA4WX6Z7U7xo/qzPshPci1b977EPoGu/cBwsv0z2p3jR/VmfZCe5Fq3732IfQNd+4DhZfpntTvGj+rM+yE9yLVv3vsQ+ga79wHCy/TPaneNH9WZ9kJ7kWrfvfYh9A137gOFl+me1O8aP6sz7IT3ItW/e+xD6Brv3AcLL9M9qd40f1Zn2QnuRat+99iH0DXfuA4WX6Z7U7xo/qzPshWDzHgDwzz65tMhyjjxr2beXUx+wtraFBm0U+wnST6vy5UmgnRVOyFn5qWZ94z8+oxkkkkm5K9d6U1gBC0AC2gtp6LK9WmdH6t4+Yb7n2n8Uaw3D/ZizvipWbW9uG021wttyylJl5FaS5CCdcabPwydJpBl7xCep9SysYyNuVgyt/XSrrgvaAiAiAiAiAiAiAiAiAiAiAiAiAiAiAiAiAiAiAiAiAiAiAiAiAiAiAiAiAiAiAiAiAiAiAiAiAiAiAiAiAiAiAiAiAiAiAiAiAiAiAiAiAiAiAiAiAiAiAiAiAiAiAiAiAiAiAiAiAiAiAiAiAiAiAiAiAiAiAiAiAiAiAiAiAiAiAiAiAiAiAiAiAiAiAiAiAiAiAiAiAiAiAiAiAiAiAiAiAiAiAiAiAiAiAiAiAiAiAiAiAiAiAiAiAiAiAiAiAiAiAiAiAiAiAiAiAiAiAiAiAiAiAiAiAiAiAiAiAiAiAiAiAiAiAiAiAiAiAiAiAiAiAiAiAiAiAiAiAiAiAiAiAiAiAiAiAiAiAiAiAiAiAiAiAiAiAiAiAiAiAiAi/9k=;" vertex="1" parent="1">
          <mxGeometry x="210" y="340" width="100" height="100" as="geometry" />
        </mxCell>
        <mxCell id="O1dx7EC58STcq-n9Xf8L-13" style="edgeStyle=orthogonalEdgeStyle;rounded=0;orthogonalLoop=1;jettySize=auto;html=1;exitX=0.5;exitY=0;exitDx=0;exitDy=0;endArrow=classic;endFill=1;" edge="1" parent="1" source="O1dx7EC58STcq-n9Xf8L-11">
          <mxGeometry relative="1" as="geometry">
            <mxPoint x="340" y="260" as="targetPoint" />
          </mxGeometry>
        </mxCell>
        <mxCell id="O1dx7EC58STcq-n9Xf8L-11" value="" style="shape=image;html=1;verticalLabelPosition=bottom;verticalAlign=top;imageAspect=1;aspect=fixed;image=data:image/jpeg,/9j/4AAQSkZJRgABAQAAAQABAAD/2wBDAAEBAQEBAQEBAQEBAQEBAQEBAQEBAQEBAQEBAQEBAQEBAQEBAQICAQECAQEBAgICAgICAgICAQICAgICAgICAgL/2wBDAQEBAQEBAQEBAQECAQEBAgICAgICAgICAgICAgICAgICAgICAgICAgICAgICAgICAgICAgICAgICAgICAgICAgL/wAARCAFoAWgDAREAAhEBAxEB/8QAHwABAAEFAAMBAQAAAAAAAAAAAAoGBwgJCwIDBQEE/8QAXhAAAAYCAQEEAgkPBggLCQEAAAECAwQFBgcIEQkSEyEKFBUWFyIxQVFhlTY3OFRVV3R2d5O0tbfT1CMyQnGB1RkkM1JzkZKxGCU0OVNYY4KX0tZFYnV4lJahtte4/8QAHQEBAAIDAQEBAQAAAAAAAAAAAAUGAwQHAgEICf/EAFsRAAEDAgMCBwsJBAUHCQkAAAEAAgMEEQUSIQYxEyIzQVFxkQcUMjRhcoGhscHRFUJSVJKistLwCCNT4RYYYoKVJTZDc8LU1VZXY3Sjs7S18SQ1N3V2g5OUw//aAAwDAQACEQMRAD8An8AiAiAiAiAiAiAiAiAiAiAiAiAiAiAiAiAiAiAiAiAiAiAiAiAiAiAiAiAiAiAiAiAiAiAiAiAiAiAiAiAiAiAiAiAiAiAiAiAiAiAiAiAiAiAiAiAiAiAiAiAiAiAiAiAiAiAiAiAiAiAiAiAiAiAiAiAiAiAiAiAiAiAiAiAiAiAiAiAiAiAiAiAiAiAiAiAiAiAiAiAiAiAiAiAiAiAiAiAiAiAiAiAiAiAiAiAiAiAiAiAiAiAiAiAiAiAiAiAiAiAiAiAiAiAiAiAiAiAiAiAiAiAiAiAiAiAiAiAiAiAiAiAiAiAiAiAiAiAiAiAiAiAiAiAiAiAiAiAiAiAiAiAiAiAiAiAiAiAiAiAiAiAiAiAiAiAiAiAiAiAiAiAiAiAiAiAiAiAiAiAiAiAiAiAiAiAiAiAiAiAiAiAiAiAiAiAiAiAiAiAiAiAiAiAiAiAiAiAiAiAiAiAiAiAiAiAiAiAiAiAiAiAiAiAiAiAiAiAiAiAiAiAiAiAiAiAiAiAiAiAiAiAiAiAiAiAiAiAiAiAiAiAiAiAiAiAiAiAiAiAiAiAiAiAiAiAiAiAiAiAiAiAiAiAiAiAiAiAiAiAiAiAiAiAiAiAiAiAiAiAiAiAiAiAiAiAiAiAiAiAiAiAiAiAiAiAiAiAi+HksuTBobSXEdNmSxFWtl0koWba+8lPeJLiTSaiIz6dSMuvxGC1K6R8VJUSRuyva3Q6aHdfW47VY48uyc/8A21K8i6eTUMv90XzMFV/lGu+su7G/lX57bsn+7Ur83D/hgT5RrvrLuxv5U9t2T/dqV+bh/wAMCfKNd9Zd2N/Kntuyf7tSvzcP+GBPlGu+su7G/lT23ZP92pX5uH/DAnyjXfWXdjfyp7bsn+7Ur83D/hgT5RrvrLuxv5U9t2T/AHalfm4f8MCfKNd9Zd2N/Kntuyf7tSvzcP8AhgT5RrvrLuxv5U9t2T/dqV+bh/wwJ8o131l3Y38qe27J/u1K/Nw/4YE+Ua76y7sb+VPbdk/3alfm4f8ADAnyjXfWXdjfyp7bsn+7Ur83D/hgT5RrvrLuxv5U9t2T/dqV+bh/wwJ8o131l3Y38qe27J/u1K/Nw/4YE+Ua76y7sb+VPbdk33alfm4f8MC+HEK4m/fTuxv5Va2z2Rn0W0sGGMrsENR50ltlHq1U4SG0OqJCD8auV3yIuhe+69enn1EhHFG6ONxZq4Anf0da1XYpiLXECrdYHoZ+VZQ6xyGyyjDq62t1tO2Cn7CK++00lhMj1Kc/FbfUy2RJbdU00g1kgko73U0pSkySWpMwMkLW7t6tuFVMtVRRyzEOku4EgWvY2BsNL232sL7gNyr8YlIoCICICICICICICICICICICICICICICICICICICICICICICICICICKmcyWhGMXKnFpbR6p0NaiWaU951tJGZNoUoy7xl8BH8I+taXENGpK0sRF6GpF7Xb7x0LHPxYn29H/ADU/+BGXgJPJ2hU/g3dLe0/lTxYn29H/ADU/+BDgJPJ2hODd0t7T+VPFifb0f81P/gQ4CTydoTg3dLe0/lTxYn29H/NT/wCBDgJPJ2hODd0t7T+VfLev6KO64w9aNodaV3Vp9RuFESuhH5KTWmSi6GRkZH0MjL5R972m5mg/3m/FeC5jSWmQAjzvgvX7Zce+6zf0fc/3Z84d7TfQ+834r5ni/ij73wT2y4991m/o+5/uwO9pvofeb8UzxfxR974J7Zce+6zf0fc/3aHe030PvN+KZ4/4o+98E9suPfdZv6Puf7sDvab6H3m/FM8X8Ufe+Ce2XHvus39H3P8Adod7TfQ+834pnj/ij73wT2y4991m/o+5/uwO9pvoj7TfimeL+KPvfBPbLj33Wb+j7n+7Q72m+h95vxTPH/FH3vgntlx77rN/R9z/AHYHe030PvN+KZ4v4o+98E9suPfdZv6Puf7s+YO9pvofeb8UzxfxR974J7Zce+6zf0fc/wB2B3tN9D7zfimeL+KPvfBYyzN26csc2ynGGNoYVEyKnyS2prCmyC4bxCa3ZQpjkd+LFTmCICbVfjJMknDVIJZ/zDMbUcjGNZG92V7AAb9I037vWsLoJHnOwB7X6ixF9f7JId6LLYbpRpxrXtX4ja2/EmXDzffQaScZdtJa2nmzP/KMqQZKSoveqI+pGZeY1akgyaEEWG7VXHBGuZQRh7Sx2Z+hBB8I8x1V1xgUsgIgIgIgIgIgIgIgIgIgIgIgIgIgIgIgIgIgIgIgIgIgIgIgIgIgIqRzz6kbz8FR+kMDLByrOv3LSxHxKo833hYujbVUQEQEQEVFZLG8OUzJSREmS13F9P8ApWOiep/ObSm/zZjKw6WWjVNs5r+Zwt6R/K3YqcHtaqAiAiAiAiAiAiAiAiAi0GchEpVvndKVJJST2hmnUlERkf8Ax3L+Ej+ERcvKv6ypWPk4+oexSBuyvZZj8NsMbYZaYbLM9qKJtltDaCUrYmQmo+6giLqZ+Z/KMatWFeJM85/4itioKRQEQEQEQEQEQEQEQEQEQEQEQEQEQEQEQEQEQEQEQEQEQEQEQEQEQEVI559SN5+Co/SGBlg5VnX7lpYj4lUeb7wsXRtqqICICICL5F7G9YrXjIuq4xlKR5dfJolE8X5hbh/1pL+z0w2PWsM7c0Ztvbr2fyVvhmUagIgIgIgIgIgIgIgIgItBvIP6/W6fyoZp+vJYi5eVf1lSsfJx+aPYpBXZafYc4Z+OW0/2h5CMatWFeJM85/4itiAKRQEQEQEQEQEQEQEQEQEQEQEQEQEQEQEQEQEQEQEQEQEQEQEQEQEQEVI559SN5+Co/SGBlg5VnX7lpYj4lUeb7wsXRtqqICICICL8MkqI0qIlJURpUk/gUlRGSiP5jIzH0GxB6E0Oh1BVrpDCo0h+Mrr1YdW11PyNSUKMkL/qUjuqL5lDONQD0qJc3K5zT802XpBeUBEBEBEBEBEBEBEBFoN5B/X63T+VDNP15LEXLyr+sqVj5OPzR7FIK7LT7DnDPxy2n+0PIRjVqwrxJnnP/EVsQBSKAiAiAiAiAiAiAiAiAiAiAiAiAiAiAiAiAiAiAiAiAiAiAiAiAiAipHPPqRvPwVH6QwMsHKs6/ctLEfEqjzfeFi6NtVRARARARW82ntTCdM4bLzrPrCVAo406DVMN18FyztbS3szfODVVUBtaPWJi2Ys10++402hmE8644hCDMU7bzb3ZjubbOVG1O1lY+lwyGWKBjYYjPUVFRNm4KCnhaW55HNZI85nMYyOOSR72taSqR3RO6Jsn3K9larbHbOtko8Hp5oaZjYIXVFTUVVRnMNNTQtLQ+Z7IppeO+ONkUMsj3tawlUzQ5xiez8Xx3ZGDz3bLGcriS1RH5MN+unMzaawk0tnAsYEn38OdHmQnWVpPvIUcbxGXHWFturktjNr8A292awvazZisdW4LiwkMT3xvhla+GaSnnilifxo5YZ4pInjVpLc8b5I3Ne75sltls33Q9mMG212SrXV+AY8yUxPkidBM19PPLTVEM8L+PFNBPDJE9pzNOUPifJE+OR3nIsocWQ3GecUl1wkGXRBqQgnFGhs3FF/N6qI/l6EXU+hGRnx3ul/tWdw7uQ90nZXuUbebTVGG7XbWMo5WmGhmqKHDosRqpKOglxatYQyjZVTxSBuVs7oIQKqrbTUr45n9DwvZPHcZwyrxbD6VstJSF7TeRrZJDGwPkELDq8saRe5aHOuxhc8Fo+my0t95phHdJbriGk99SUJJS1EhPeWsyJKepl1MzIi+EzH6NdFI2V0Dm5ZWuLSDpZwNiD0WO9ViSVkUT53XMcbS82BJsBc2A1JtuAFzuCxL4+82+OPKHMc2wTTeXW95kOD1j2QyEW+MWVBAybE411Ax6Tl+GzJhn7L4+3cXFIytT6IkovZuK6UU2XScKl7N7e7L7WVtfh+B1r6ipoGGQh8To2ywh7YzPA434SIPexpLgx/7xhyWNx+lO7X+yV3dv2e9l9k9sO6nsxTYRgm11Q2hYabEIK2bD8SfSzVseGYrFFbvWtkpaarka2F9VTk0lTH3wJI8hvvsbY2JaoxKbmuazpEKkhyYcBKYMNywsbCysXFohVtbBbUn1ma4TT6+iltoQ1GddccQ22pRfdututmu5vs1V7WbWVj6TCaWSKECGJ0889RO4thp6eFpGeV+V77OcxjI45JHvaxjiPx7t/t/st3Mdl6zbDbCtfR4PSSRQgQxOnqKionJENNTQtLeEmeGvfZz2MZFHLLI9kcbnD+jAs8xfZuJVObYdOdn0FymWUdyTFdgTY8mvmyK6wgT4Lx96LNYmxX0LT1UhRJS40txlbbitjYzbLZ7ugbM4ZtdstWOrcFxUSiN0kboZo5IJXwTwzQv40csU0b2OF3NdYPje+J7Huz7EbbbN90XZbCtstkq11dgeLiURukidBNHJBNJTzwTwv40csM0T2OF3McAJInyRPY91YCzq1oCICICLQbyD+v1un8qGafryWIuXlX9ZUrHycfmj2KQV2Wn2HOGfjltP9oeQjGrVhXiTPOf+IrYgCkUBEBEBEBEBEBEBEBEBEBEBEBEBEBEBEBEBEBEBEBEBEBEBEBEBEBFSOefUjefgqP0hgZYOVZ1+5aWI+JVHm+8LF0baqiAiAiAioTZOs8J27iM3B9g0vs5jsyVCsPAbmzaybCs65bioNnWWdc+2/AnNpfkoJaF9FtS3mHUrZdcbVVdtNidmO6Fs/U7MbXYZ8qYRUvjlDWyywSxTQkmKeCeB7JYpWXc3M11nRvkikD43vY6n7ebBbJd0zZmr2Q22wr5XwKrkhnyNmmp5YqiAuMNRT1ED2SwzRh8jA5rrOjklika+KSRjv56TX+K69wCpwjB6hFJjeKtPLqq9MmXNdIpM6XY2smXPsH3X50x+XYz5LzjrilKccPp3UklKd3ZPZfANicAwvZXZfDxheBYQx7YIQ+SVwMsr55pHyzPklkklmkklke95Jc87m2AzbM7H7ObCbK4TshslhgwnZ/AmPbTwiSSVwMs0lRPJJNM98s0s080s0kkj3Oc55As0NaKefr4cl9qQ8z33Wu6SVd9ZJUSFGpJOISfRxJGZ9CP5eh9S6EXLu6D+zN3D+6p3Qtle6lt5sO3HdtNj20sdNP35XU9PUR0NTJWUMeJUVPUR0mIspKmWSSJtVE8PY7veo4alDYBcMO2nx3CcOq8Kw+vMFFWlxc3JG5zTI0MkMcjml8Ze0AEsIsRmblddx+g064w80+2fddZcQ62oyIyJxtRLSZpMuh++IvI/Id5Mj3SGZzs0jnFxJ3lxNyT1neq7JEyWJ8LxeORpaRu4pFiNN2hWMejuHfHDjdlma5vpjXDWIZJnkRyqtpisgyS7YrMeetot6/i+KwLu1fZxjG3LiBWyFxIiEJUqqiN97wYkZpqpYBsTsvsvWV1fgWFihqsQaWPdwksgZEXtkMMLZHuEURka1xYwAXYwXysaB+ge67+1F3du7vs3spsl3VdunbT4FsdK2ppo+8qCkfUVzKaSjZiOIzUlPDLiFeylmngZU1DnODampfbhameSS8+e4BiWzsWnYbm1V7MUE96JKWwiXMr5cWdXvePCsK+wgPNvQZrazWRLQou82+6y4S2XXG1fds9i9me6Ds7WbK7XYb8qYNWvikLBJLDLHNC7NDPBPC9ksMsZJAcxwDmOkikD4pJGO/K22+w+y3dG2brNktssL+VsDrXxSuYJZYJY5oHZ4Z4KiB7JYZoyXAPY4Zo3yRSB8UsjHf04VheMa7xepwzDatNPjtK3IRChlIlTHjdmS37CdLlzpzzj02Y9OlSHXHHFqMzc7qe6hKEpz7J7J7PbDbPYbsrsthwwvA8KEghizySuzSyvmmklmme+WWWWaR8kj5HkkusMrA1oz7H7H7N7A7N4XsjslhgwnAMIbIIYeElmeXTSvnmllmmfJNNLNNI+R8kjybuytysa1raoFiVlQEQEQEWg3kH9frdP5UM0/XksRcvKv6ypWPk4/NHsUgrstPsOcM/HLaf7Q8hGNWrCvEmec/8RWxAFIoCICICICICICICICICICICICICICICICICICICICICICICICICICKkc8+pG8/BUfpDAywcqzr9y0sR8SqPN94WLo21VEBEBEBE+EEWuLYHa8dmjq/PM71ZsPljjGO53rfMcp13nuNvaw5AWbtBl+HXU7GsqoX7Ck1FKhT3YlzXzo63YkmRGcUwamXnGzSs/BlY0kF2o61uNw6qlYHCPivF9SNx3G3lHTr5FZVXbKdlqlSkp5lYmtKVKSlfuT8kC76SMySroel/IzSRH/aMvfEX0/Ufgo84LiQJApswB3549fLq++vlX5/hluy3/wCuRif/AIUcj/8A+Lh3xD9P1H4L58jYn9VP24vzp/hluy3/AOuRif8A4Ucj/wD+Lh3xD9P1H4J8jYn9VP24vzqutY9qR2eu6NiYXqXVfKHHMy2PsS8axrCsVi643pUSL+8fjyZTNexZ5JquFAhuKYiSDJcqWw31b7vf7ykkf0TxOIaHXJ3aH4LHLhdfBG+aWmLI4xdxzRmw6bB5PYFnsMq0EBEBEBEBFoN5B/X63T+VDNP15LEXLyr+sqVj5OPzR7FIK7LT7DnDPxy2n+0PIRjVqwrxJnnP/EVsQBSKAiAiAiAiAiAiAiAiAiAiAiAiAiAiAiAiAiAiAiAiAiAiAiAiAiAipHPPqRvPwVH6QwMsHKs6/ctLEfEqjzfeFi6NtVRARARARfqfhL+sv94IoF8Li5qzlL2mHaoUW1Hs1Zg4Tyu5DXlIrC8hrsfkKnXXJraNbNKe7YY/YFJY9WiNdxKUNmlXUzUrqRF0buW7FYNttiWP02MvqGRYZDDKzveVsRJklkjcHF0cl9zSNBaxHPpzXu8d0zafuZYDshXbMMo3T4zUVEE3flPJUNyQ00UjMgjqKctdmcbklwI0sOe/GS9k9xWr6SdYVU3dypcFCZKkSdiY482uK2rpL94jXaDJSGVG5173TowZdD6+XcsP7gvc9mq4oaqXFOClu0ZK2JpDz4Opo3aE8W1hqQb6WP5YxP8Aaw7sNNQz1FHDgRlgs8h+GVTgWDw92Jttlbxr33NOmqtbM7NbjMy4g2pW4fV5DDUmOa89oVK7jhGS0KV7Qy6qQ8h1Bn8Zt9egscf7N/czc055MYL2ktNsQhGo8nePOLH0qqS/tn92ljgWU+zpjka1zb4VV3sRuP8AlbUhwc09S/l/wbvGn7a2/wD/AH3Q/wDoQZP6tvcx/iYz/iMP+4rH/XS7tf1bZ3/Cqv8A4sqZ48aOwTQHa8dnniOvnMldqbrOMRyqarKbeHczitJFhs6lcSxJhVEJLUT1OlhGSDbUrvmtXf6GSS/OXdh2FwLuf7V4RhOz76l9FXYeyrd31M2aQSOqquAgPZFCMuWBpAy6EnUr9hfs/d1Larut9zjazaDa5lFHiGGYrNQRChp5KaIwNoMOqW52S1FS50nCVMgLg9oy5RluCTOBHNV0ZARARARARaDeQf1+t0/lQzT9eSxFy8q/rKlY+Tj80exSCuy0+w5wz8ctp/tDyEY1asK8SZ5z/wARWxAFIoCICICICICICICICICICICICICICICICICICICICICICICICICICKkc8+pG8/BUfpDAywcqzr9y0sR8SqPN94WLo21VEBEBEBF+p+Ev6y/3gihccZ/+dI7X7/5lt4//AOqttjun7P3/AL52w/6pS/8AiZF+dv2uf81e51/1+t/8FAtnppQtKkOIJxtxKm3G1F1S42tJocbUXxpUg1EZfIY/ToJBBabOabg9BGoPWDqvwxZpBa5uZjgQQdxBFiD5CND0rGm3rF1y7GqX3lOUU5XgrV/Odqp5oXHcP5TI1R1q+IjmKF8pqgVDYKhoGWrZqOiRl8w/EB5gXMayldSuqaN1y7D5OKTvdDJ4LuscVx88jmVPDbUasRKL/noOzc/+J4V/+z7kH4q/aW/z82b/APksX/mGJL+l37GP/wAHNvf/AKin/wDKMGUyMcEX6KQEQEQEQEWg3kH9frdP5UM0/XksRcvKv6ypWPk4/NHsUgrstPsOcM/HLaf7Q8hGNWrCvEmec/8AEVsQBSKAiAiAiAiAiAiAiAiAiAiAiAiAiAiAiAiAiAiAiAiAitDtbYq8PhsVlOtpWR2SfFaU4hLzdZAStSFznWVH0ceW4hTbCFF3DUlxau8lo217EEQkJLhxB6z0KGxfEzRMbFCQamXUX1DG/SI5yTo0br3JvaxsGe0NqlFTPO4sSgLMkosFYzUlAWpSzbSlE46TwlKNwjSREvqZkZfCQ2eAgvly69Fzf2qvnFsWyCThXcGfncEzL0eFktv8q9Pus7LUhbickcNDfQluFS0BobNX83vq9ieif7R973h+h6z8V5+WMUIJFRoP7Ef5FdCDn+Uy4UOUVuf+MxWHlEUGr6EtbaTcT/yL4nO+X9gj3tyvc36JP8vUthuK17mhwqTr/Yj/ACL+r275V911f/Q1f8CPK9fKlf8AWT9iP8i9jmSXVtT5JEsppSmE0ipKEqjRWVIdasq5ojSuMyjqk0SF9SV1/mkZdPPrlg5Viyx1tVURVcc8vCMERcOK0WIewb2gczudWxG2tNARARARfqfhL+sv94Iud3s/nPV8OO0o7Tm3g0uCZxOzfl9yVxudWZDsZvD10vsByR2ZaJfT6pVzlvvuOTFNqbcbb7hN9epmfQrbsNt3U7B12L1VPhUeKnFI44nNkmdCGCKR0gILIpC65daxy2te53Kt91HuU0ndXwnZugq8flwBmByy1DXw0rKoymeCOLKWvqIA0NDMwcHOJva2iqn/AA6q/vNaf/8AH+Z/6GHR/wCsJiX/ACPpv/3pv92XGf6n2C/84lZ/hNP/AMSVL3PbStXdi3ZK1FqaKs692tlNtb1kvomMLNxTSlLPC0G04g3PIyJXUkILy7okaT9pfFaSF0H9C6WUZw9pOIzNyEWuAO9HXBtru3npUTXfsS4DXVTao90qvhvEYntbg9MRI03tqcSFi2511vZu6ypX/C+tkRF7mmrTMi8z92p4up/L09qnkN/+tPiv/IKj/wAUqP8AclFf1D8B/wCdXEP8Dpv+KKu+F3Kup5OdrN2fuVyImHYtPptn4th0emo82Yyf11mKvYF6md4z0OK4h413zjZtpaURFGSrvGajIuQd0HuhVHdJx/DMZqcIjwWSgo20YiiqH1DXtbPUVHCF74YS03qC3LlIs0HNrYfoHuWdyGj7i+xG0ezVFtDNtLFi1dJiJnnpI6NzHPpaOk4IRxz1Ac0CkD85eDd5blsATPZFSU4gIgIgIgIsUNNcZ9J7myTkzmOzcRl5RdwOUmycRr1+2zL6CJBpqqkwy9abZi4veQkvSHLDKbE3XHzdUaWmUo8Mkq78XLyj+sqRDiGRgH5o9i2G6sx2m0nhsHX2roa8Ww+um2thDqDmTb82pl3YyLWzeOyyeRNlu+JPlPr7q31JR4ndQSUkSSxrZirqyFgjhnyMFzbKw7zc6lpO/wAvqVdzc/ymHCmSztjP1aK+8kjg1nRS0NqNpJ/4l8bncL+0emNzPa36RA+PYNV7OK4g0Fxqbgf2GflVrfdc2QRJ65KfmXUj9h6H3xfB1L/ivzLqRiQ73h+h6z8VrfLOJi16n7kf5F7/AHUtpnFVOK4n+oJM0qsCxqqOAhSVk2pKp3sL4SVE4ZJMjX1JR9D8x84CC+XKL9Fzfsuvfyti2ThBK4x/S4JmXfbwslt/lV+9U7FXmEN+suFtJyOtR4rqm20sN2cBS0oROZZSfRDyFrQ2+hJd1KltrT3UukhGtPDwZzNHEPqPQrBhGJmtY6KYgVMeptoHt+kB0jc4btxFgbC7411MoCICICICICICICICICICICICICICICICKmcuyiBh9HKup/8AKE10ZhxErJDs+e6SvVoTKjI+6pRoUald1XhttrcNJpQZD2xhkcGjn9QWrWVcdFA+eTW2jRzucdzR1855gCeZYqYXi1ttPKZ11euLXWIlJkX0xPfaRId7qTjUVefe7zaCjpbSrumZsR0p6qJ11pSt6R7YGBrdHcw95/W/ybqjQ0k2LVck9QSYgbyO3X6I29Gltx4ree5BNxdqZEdq/E1dirLCzUuEm5OO0hMavYhOMSYVWwlCO614Zsx3HO53SQlDTBea3EowwRkXmfu5vTpf9eU8yksXqhK5uFUoGuXORuaGkFrBYc1gTa1uK3nIFQx8CpsbxdSJpNqMo61yHHST1ccNBmtTnX4ep/6iMi6dCDhnPks0ac3P7v1vWUYfDS0hMhGYjXm1trz/AK8itridTPuK2Q7R1Ux+ri2k6HEfIkJadbSpuSo2DdcT32kvSXkdUkaSNo09SUkyLHUA8Le9y5ov1jTX0AKGhppqhr301O50Ic4A6W010ud2vNpzKpvankv3Gl/64/78YbHydoWb5Prvqzvu/Ff0ewNxW1GSyp8B2JHOjXHS46tn3zztlWuJQlCHTUfvGHDM+nQuhF16mQyQi0rFmipKmCOrkmhMbOCLbkjeXsO4E8wKtsNtaqAiAiAiAi95SXiNR98jNalLWpSG1KWtajUtalKSZqUajMzMz6mZ9TH25618sF++tP8A+cn801/5AufJ2BLDy9pVD5J4zU1uQk0kiU159G2y6vR+6255EjyLwlR/6zMxkYbix5lo1LMrw4bne0foKnvWXv8AOL/Yb/8AKPa1l+HIeMyPvkRpMzSokoJSTNJpM0qJPVJ91Si8viMwRekEQEQEQEQEWNOiN+6X1be8ncU2PsSlwu+lcq9l5RDhXUa5JM2ktMfwamjTIkqDWPtOmVljVs2433ycb8NtSkEl1Bqi5eUf1qRAJZHYX4o9iz719d0+18XiZrrWyjZpic6VYwod9Tm6mE/LqZr1dZMITPbYdJbM6O+2rq2Rd5s+6Zl5jGtiOjqpWh8cDnsN9Rbm0O89K+5d0EuJHiN39fLiV0+zhQXXlkjwO8o3JLTb7jTivCQt6K0gu90JSnUo69VER56cHhMw1c0Ejr3ewn9XR9HNHk75hdHE9wFza194Bsee1ui9hzqpcv1fEscealU6GkS4rJORzQRElZERdW1ElJe8URdD+HofQy+DzyxzWdlfof1+tf8A0kazC2yUwkgsS0X9Qv7wV8nTmYMNtva5yJllBKVORVIlNNm1IKU6/IsqSYhaTS64pb0hxvvEZOtuLaPp3WkuKlhuJmnovbyaAjsXjBK1oacNqQLHNkuNCCSXMPMb3JF94uOgGhszxe21ZlUG6onForFy1SaGWo1uojrJKjk0Vgfe7ziDjqcSXePq/HUZko3W3TTljkbMwtcLu5/iP1ofQtCupJcJq456c2iuTG7fbpjd06XAv4Tb7yDbKzEcogZhRRLuAXhk71ZlxFLJx2BOaJPrMJ5REXeUk1JNKu6nxG3EOEkkrIaL2GNxaeb1jpVuo6uOtp2Tx6ZtCOdrhvaermPOCDuKqUeFtICICICICICICICICICICICICICICICLF7f9dern1Fr4bzuNxa44xONka2YFu/Le8d6Wki/kSejnXobcV701MKb6pUoiXu0rm2c355PqVU2iiqC+GWxNM1ttNzXkm5PRmGUAnnBHPr+w9r4/QYDApsQgSYuSmyiC3AfiuPIizXfKVcyJymSYsVLdNbiCIzWtxxBOsttkokjA98rjI67Ovm6OkfrW6+sxemp8PZDRRllT4OUi9nHe8utZ1zqOcmwIAVaatwlujgOX1ur1i1nd+VLkyFKed8R1RvOKW+4Zm64a1qUtR9TWtZmfUx4qJbkMabj3brfDq6lt4TRCFjqqc5pX6knU3OpJJ57nU851Kp/KbKw2Tk7eD0Dy2KuMon8itGv5kSC2oicbQvoZLkuGfcbT595avMibS6pHpjWwxmR+rj+gLdHPv3eUrWqZZMVqxRU5yxM1kePmt+J3AdPkBIv7V1kGmr4dVWx24sCAwiPGYbLolDaC+FRn5uOKUalLWozUta1LUZqUZnqOcXOLnG5KskUUcEbIYmhkcYsAP1vO8neTqdV/ePiyKkc8+pG8/BUfpDAywcqzr9y0sR8SqPN94WLo21VEBEBEBEBEBFFY9Il7QLnTw639wS1lw65DyNE1m+MT2MvPnz15qvOq9UmkzvGqxnJ5iM+wO3lIZrqCdZvOMQnG1PNxjQ22p5Rd7FM9zMmU2zXvoDz+VSuGUsFSJ+GZnyFttXC1wb7iOhRmpPbvduC/kttiV7zYkx5WK41a5nkbrOmOLUoqumoqxc+6bjoa0017IW6FtuRGoxOIbflm2ZyG4hnNRhE8o3Ot6B8FJOwnD3WzU+a39p/5lJu9Ht5pc2+V+UdpBgfNjdRbkyXjBsLQGv8AF32MQ1xi1dQ2dra8oqPYS617AMHpTtok6frbHVIXNQ6pDdYg2ksm46S9qnkfJnzuva1vWq9jlHTUhpRTxcHwnCX1cb2yW3k9JUkYbKgUBEBEBEBEBFoN5B/X63T+VDNP15LEXLyr+sqVj5OPzR7FIK7LT7DnDPxy2n+0PIRjVqwrxJnnP/EVsCs62FcV8ursWESYU5lbEhlfX3yFfApCi823UrJKkLSZKQtCVoMlJIy+tcWkOabELdlijnjfFK3PHILEH9aEbwd4Oo1VtcWtJuO2z+EZE+bzjLZvUlm7/NuapRmhp4+hESZrZkTUhHQu64nvpI2nG1HnkAkaJGCx1uOj38+n6tE0kj6Wd1BUuz87HHQOYdx84eC4dNiNCFbzbuBrjvJymkJxp5pTch8opqbeQthROtS47jXQ0Sm3EpUhST73vS6H1IumWnlzDITc9e8Hyfoe+OxfDzG5tVBpbXTfcagi2txvB9d16pW2ccyLX0yqyyG/NyJcY4pw40VxpqbLQRep3UWelk2K9SXPDcWRmS23G1k2y42aCWED2yhzCAy/TzdFt5/VyF9djFLU4c+KrYX1BFsoFg4/NeHWyt11POCDZpFr/nH+uvUT7e0NDzWNyq4oynHCNtifbsSmSYeiIV/lSZjlPQ44n3pKeSgzUpJkj5VFtmt+eD6l82djnD55bEUz2213OeCLEdNhmBPlA5tMoRpq1oCICICICICICICICICICICICICICICL1vMsyGXY8hpt9h9tbL7DzaXWXmnEmhxp1tZGlxtSFGSkmRkZGZGXQASDcGxC+Oa1wLXAOa7Qg6gjoIWvrtBOR3GDs/8AjHmPJ3dUytwfHcHlwGseq8Xo6SVnG0c5smprGNapwKielQ1ZFlNq4mUttlMlhiFGq5V1ZyYlNVWUyPJYdBWV9S2mp2mZ7wb62DQLEuJ3ADQa7yQ0akKGxChoo6fhGNjpHxuBDgwamxGU2F7EEkkeDbMbgEKneP8Azj07zM0dh+1eLefVWy8PzlSaiHIq1FEvsbyZhmEdthGcY5KMpWHZzXnYQimV05DTjbcuPNaU9XyokuRlnopKOZ8dTHwT2a+QjWxBtqLgjyEEEBwIEPNiEz2R0kTbzSZQAP7VrWOrSCDoRdtuNct1WemA4ZGwqjRB7yJNrMWUy7sSIzVMnLLzShayJXqjSTNDKTIvIlOGknHXDVGyyGR19wG4frnPOrHh1CyhpxGDmlfxnu+k78o3NHp3kqtxiW+gIqRzz6kbz8FR+kMDLByrOv3LSxHxKo833hYujbVUQEQEQEQEQEUFv0wa+tsU352b2VY/LKvv8X15t7I6KecaJMKFc0e0cItKyWcSew6xKJubFZUbbzbjThJNDiFIUaTwVG6PqPtU5gu6q62ewqLtobLsUyrDcwwnNpTr2fuT8RqtayIq7BV7ZxcsRe4VlUuWl+DJhZJX1sWxw560rZi2F2NFRuR0LKI3cInaynFKk9EAubXIovahZDfWEu3vL/JuGF5dW095cidaW9unmJY2djMkLPvPyn5sl91xZ+alumZ+ZjcpP9J6PeqttLvoeqX/APmpmI3FWEBEBEBEBEBFoN5B/X63T+VDNP15LEXLyr+sqVj5OPzR7FIK7LT7DnDPxy2n+0PIRjVqwrxJnnP/ABFbEAUiqPzXFiyirSiK6iFeVjvr9DZqSfWJPQnp4TykkalQH0F4b6CI+qVE4STcabNOSKTg3ai7XaEdI+PQtKupBVxANOSeI5o3/Rd+Vw0dv6bEgLCDk3zm0XxK0Tlu3uUOe1Gr8SwwzqbIrZfrV9e5U61LVWYPhGNxVKl5pmtgqBM9Rr4LbjrjUV+W6bMCLKlsSNNQy1M7Y6Zpkc+x0BsAbanmAu4C5FySGi5NjAOxJz4zTyt/fsuC02uC297ncALXLjZoALibA28uz15DcXOe3F7DOS+j5ldm+L5vKsGr6qyikpoucauzevbiM5NqjPKFmXMVjeU1Ly46nGDkvx5sa0i3VXJmU1rWzZPjEYKugqn01Q0xPaARrcOab2cCNCDuNtxBaeM0qRw7D6F1Nmc1lW57iS7KNDpxRpfKN4v4V8w0cFsJZZZjstR47TbDDDaGmWGW0tMstNpJDbTTaCJLbaUEREkiIiIuhF0EaSSSSbkqaa1rWhrQGtaLADQADcAOYBewF9QEQEQEQEQEQEQEQEQEQEQEQEQEQEQEVv8Aa+1ddaN1rnO4duZfTYDrLWuM22Y5xmWQSFRqnHscpIjkyxsJSm0LceNLLZpaYZbdkSHVtsR2nX3G21ZIopJ5GQxNL5JCAAOcn1Dyk6AanReXODGlzjYN9PqGpPQBqeZc1vfO3eVnpRPadYpqPTca61pxl1y7bOa+j5DAcn1egdD+ycSFmPIjatRCsCjWu6cmQzBZr6VmWhpEh6qxdiw9VhXGSSOm08FHsnhrp6g8NWSgXA0zPtoxpI0a06XIJtmeG72qqTPqMaqTDEODpIjYm5IdY3tpa4HFLg0ht7fvDeIrokcSOIGh+EmgtX8cNBYexQa/1TTrr6aXYohT8rvbmxT4uU5xll6zBYO2zW7slyJltMQ0w28/KU2xHjQ248Vnm9XVz1tRLUzuvJMbm17DoAuSbDmuSeckkkmzx08UbYg1gvCLNNhcXABtYC1wACGgCwAAAACycGssyAiAipHPPqRvPwVH6QwMsHKs6/ctLEfEqjzfeFi6NtVRARARARARARYHcyuzI4N9oJda+yHl9pOVtu21bSXuO4NIZ2nt7XzVLU5JZRLe4jnE1pnVQ1YOOzoUdXiSUOuJJBJSokkRF8c1rrZm5rbt/uKzQ1M9Pm4GTg89r6NN7bvCBWGB+jd9iqfTrwym+Rkoj/4SvKw+iiPqRl13X5GRkPPBR/Q9Z+Kz/KNb/H+6z8qyy4rdnFw17PJWx4/D7T0jUkHdJYM9sJl7ZG0thJvJOsvbm1ihtr2Xmduqq9Va2DkfUohseN7JF4xLJlnuZomMbfKLX3/r9elReI1FRUOiMz87WA5dGixNr7gOgb1lsMqjkBEBEBEBEBFoN5B/X63T+VDNP15LEXLyr+sqVj5OPzR7FIK7LT7DnDPxy2n+0PIRjVqwrxJnnP8AxFbEAUigIsYeXPD3Q3N3QO0OOG/cPYv8A2rTtwbibWohQMsoLuuSbmK5ziV89Bf9ic2pLJMeXVS3GpDbL0YmpEeTCdkRXtqkrJ6KoiqYH2khNwDexF7kEAjQ89iDzgggEYZKeGRsrXRgGYcYgC50sL3BvYG1nAi1wQQSFzutB7g5V+i79p1leoNzRrrZfGbYr1U5sOPj1e5Aq9+aIOylwcM5GaoqJtgceq3PjSHZ7NjSuy3GnH2LXF37D1aXT5JH6PUQ0e1mGNngPA1kI0vqWvtqxxA1a4/OAvbK4t0DTWIXz4LUiGUcJSSkAG9g0kk21vYHUtDjlvfjgiUrpSaq2nrveGtsH3BqTL6bPdZ7JxmpzHB8yx+QcmoyHHLyI3NrbGItaEra7zDpE4y8ht9h1C2JDTT7bjaeZSxSQyPilaWSRkgg8xH63jQ7xorW1we0Oabh3o9R1B6QdRzqvxjXpARARARARARARARARARARARARARARDMiIzM+hF5mZ/ARfKYIucj223af7h7ZLlhg3Zh9nlHnbH0TF2axjdS1hstJxOVu5ceclSp2cW9+2vwGuN+Fxq+1sokta00z6aSdm1i/KhQcdfq+k4FhUOC0cuLYk0Mny3Gf/RtO4WsSHuNgdC65DGgEnPVsSrH187cOpH3a7Rxbre41ANxmJF9LhoBOd2ruDmWdkv2X+puyw4vVOm8OOuyzbOXOQct5D7o9jii3O1NilEW0SWHHkm/W69pGJEmBjVR3iagw1vzHUOXFrczp1KxfFZ8WqjPKcsbNI2Dc1vPpc8Z29xuSTYXsABPUdHFRRCKIa853k23a+S53WFyTYElbQhFrbQEQEQEVI559SN5+Co/SGBlg5VnX7lpYj4lUeb7wsXRtqqICICICICICICICL4mQRvHrlOEXVcRxL5eXn4fm28XX4k9xZLP/AERD2w2NulYKhmaMnnZr8fj6FQQyqOQEQEQEQEQEWg3kH9frdP5UM0/XksRcvKv6ypWPk4/NHsUgrstPsOcM/HLaf7Q8hGNWrCvEmec/8RWxAFIoCICLV32tPZe6m7VDi9a6dzA67FNt4e7Oy7jvuc68pNxq3YioiGlNSHWE+PY67u2I0WBktQSjanRG481pCLippp0GVwjFZ8JqhPEc0b9JGHc5vVpxm72m4I1F7OcDqVtHDWxGOVtzrY7iL9B9AOoIuASDlChrdiN2oO4Oxx5W5z2YXaGsTtb6KkbOkYzZs5nKQUXijufIXYsqJmtVfuOeA5xuzNixqrKXMbWqlYK8hZtXPRYNhkUizuuPYVDjVHHi2Gt4SctucmvCtG8EWBMjTcDQPvdjm3tkgMNrH0E7sPrJLNGjS7SwA0BJJDbAbrlpFix2jTL0bRzVWpARARARARARARARARARARARARARARQhfSZu2klpXkPZVcNL23v86y9cfCOW2a4AmXZWkdrK1M1kHibr46Ylyb7Pr5M+OxlyISVFEgWzGKIXLtLO+g0l52YwRoy4xX2jhi40QdpcjUSG+gAPgc5PGAHEcYHF68gChpm8JUT3BFtANQb9IGt/m6EPJDXtO0D0fLsV4HZsaaVvLe9LTzebW8sYgtZihkoljH0DrmY5Et67ReM2zXeRIujkR66Xl8+Gv1SdcQGK+G7NrKSDZ2EXtHjZxSpMUDiKKA2bzZyNC+3MN+W+tjc2uGt2sLoBRQDMP30mrjvN/Kenybm7hc5nvkdCtKUWGfJ/tEeDXC4243KPlTpXTN4/DYsYeGZVm1WrY1lWyFOIZsqjWlS7JyC4rTcaWn1iLWvMkrok1kpSSPcpsPrawjvamfMCbXA4twL2zGzb21te9lhlnhhDjI+2QXIFyQDfUtAJtodbW0KtDxv7YnsxOWuX1+vtC80tL5bsC5nM1mPYFeXFlrbN8qs5KlJYrsPxLaFVS2GXz1d1RkzWRpbndSau73SMxnqsGxSibmqKJ7GgEkizwGjeSWFwAFxqbDVY4a2lqBeKUOBNhcFtz0DMBc+QXWyoRi2kBFSOefUjefgqP0hgZYOVZ1+5aWI+JVHm+8LF0baqiAiAiAiAiAiAiAi8VoQ6hbThd5txCm1kfxoWk0qL/ZMx9BsQehfCAQQRcHQ9Sta80uO86w55rYcW0o/lNtRoNRfMfTqXzGM6iXNLXFp3tNl6wXxARARARARaDeQf1+t0/lQzT9eSxFy8q/rKlY+Tj80exSCuy0+w5wz8ctp/tDyEY1asK8SZ5z/xFbEAUitbPI/thezG4lZdP19vvmlpXENgU016tyDAqe7n7FzjFrGOaCer8vxDWVZc2OIzkktBmzZxorndWSiT3TIxJUuD4nWNDqaje9pAcCbNBaSRdpeWhwuCLi4uD0LVmrKaAF0soAacpsC6zt9jlBsba2Nld7jD2hnBzmebkfi5yp0nui6jw3rKbh2I5zUK2HV1sdbbTtlca2sno9/TVpOuoT6xKrWWTUZpSs1EZFhqcPraMkVNM+INNiSOLffbMLtv5L3WWOeKUNLHg5xcA6EjpsbG2o1ssyBprKo4XpB/YrQe0l02nemh6Woh82tHYxOaxFp1MSuj8gNcRHJVtY6MyW1e7qI96UiRYy8Pny1+qQ7edIrZrsKtu5tnXWXZzGzhdQIZ3E0M5s7nyE6Z7c4+kBrYXF7ZXReKUArYbsFp49Wncb6bj06btztxscr2axfRme2mlvKx3sq+ZV7b0Od4gcnCuJWcZ8mVXWctjEzdrZ3FDYJ3Hck0WwKFECQxiSJqUlMgVL+LOKiWlXRQ7yU2nwMcbF6C0kMnGlDddSdZBbeL+Hzg8Yg8dw1cJry69DUt4Oog08hHMRbcDpb5u4NIDmNE3cUZTyAiAiAiAiAiAiAiAiAiAiAiAijpekNdsars09AQNR6OuqouZvIijt2teyZHqtgWkNbMOOVWT75uad5C25Fm3J9ZrsRjTkphTb1qRPeasoGO21XKsmzeC/KtVwk7T3jTnjEaZ3WuGA26i61zYgaZswjMTxAUUPFIdO+wa3UnW9tAQdbEA3AFidSA12r30ZnsV5Fc3jvam8yMesrvYOYk9mXEzBc8KTY2lTBygnLGVyozz2XWuRcbEyBFhJexY5neOBXWLmSr9ZtbWpkUcptPjgdmwmiHBwwnLI4HfbTgxbQAfP1JPgkjjtOnhOHubetqXcJPMARutbQi1tCG2GW1m87QQ2Nym3ijqfUVf0kjttMv7P7E8a4ncWshiUPKfb+IvZrmOyDhNWMjQWmpM+fR1t3RRp8ZcN/ZmR29VfRahTqZXsRDx6fZPxW5MmjfctezWBtxKR9TUi9JAbWuOM7fqN+UA9GUnQk5S0w+K4iaNjIogXVExAaLHW+lr7t9r2OaxAGUuD26j+z09FR3Vypx+Lye7S3eO1tM2u4FyM8m6ooShZFyrvlZOt2yTlu+Np7Wg3LGFZ7OcdROl0kinvrllNolq9m0141YU8SZxHayCicaTCadkjYbNDzfg+KALNAsXtsA3Nmb4N2lzSHLQpsFfUgT4jI6R78xyG4tmN7ixGU3u4gjXNYsaWkm7HaLeiL4drnQOYbU4Dbj3ZszYOusftMssdEb39ouY2G06+kZ9kJtPrDKtc4Bjj2P58VdGmLq4UyBas288mICZVV4xSkYcP2zlkqGx4hTxtikIAdHduU8xIe51xe1yXANAv5V6n2fhjhJpJXMlaHcZxJLr7wcoAsRdpDW3sb8a2V2e3otHavbC5nab2LxF5F5tNz7dnGykxrLNa7EyOfLsM02lx7yF5VG0nLZ8o3Xchy3EMpZgV064kuok2NbnGOlJRKso1pZTY7arB4qGaOspW2paq9x81r99gdNHC5A1tlJJN7DdwiudUxOhnIFVAS1w5zlIBOXmGo10BcXBoAaFLKFSUwqRzz6kbz8FR+kMDLByrOv3LSxHxKo833hYujbVUQEQEQEQEQEQEQEXj4jfiqY8Rvx0MsyFseIjx0R5DklmPIUz3u8lhx6FMQhZl3VqiOpSZm2siXGYszDOGtcW3GYNcXNa4jeGuLHhpIs4scATlNlxe19bXtz2NwDboJBAPOQegqiMjj+FPJ8i6IltEsz+LxmSJpwv9jwT/rUYzMPFHkUfVNyyB3M8esaH3dq+APS10BEBEBEBFoN5B/X63T+VDNP15LEXLyr+sqVj5OPzR7FIK7LT7DnDPxy2n+0PIRjVqwrxJnnP/EVpI9KV7V/YXC/TeuuI/HPNpmA7u5KUmTZZsjYuOT5VfmmrOPmPPJo3valPiqadx3Lsvyl6fXQLmO6uTXV2EZF6qiLZyKqzhW3ZbB4q+aWrqm5qWltYHwXP3kE9DW2JGl8w10IODF659NE2GAg1M5DWjnGYkA2NrjQi+ozWBBDjbAPs6fRGMR2RoPD9rc+dx7r1hsDY2P1mWVuiNEpwTELPV1fdslYQanaGWbIwDJHb/PVV0iKuzgw6+raqJ5vwVS7U2VSVyOIbZzRzujw+nY6KMkZpLuzdJAY5ttb2OYg+s6VPs/DJCHVcjnzPDdQSC23MMw8G1m2c24AvxfBbajtCvRVN3cU6GVyg7NHeO1tzWen1s55D1Vd+qY1ytx48ZU1ZLy3RG0tUwqZjN88gracmxaSNT0Fy6irU1RS7q8egVErNh21kFaRR4vAyNk125/9HxhazgbljbcUvzHwruLWgleanBX0wfUYfK6N0eUhgub5TfUEnMdzhpoW2axxcMu3X0bjttMu7QTEsl4o8pMhiXvKjT+IsZriGx0wWq17fumo8+BRWN9dxq+OiHH2Xjtza0UW4NpMUraHkUCyjxXJEe8eahdpsDbhkrammbakmNrXByuIvYDfYjXdlB3EBwaJDCsRNYx8coy1ERIcLHS3l3dOW5zWBBDspe6VKKqpdQjvSZexWkzk5D2p3DXHrKjz/DzYzPlng2BFKrbSyiYv3LKLyrwIqdaJFNsOgTBjP5UcLunOr61rJ0erWlXcSbu8bMY2BlwiutJDKcsbnHdfTgzfeN2TUOHggniNEBi+HudatpXcHPCCebKRqTe+4G5zXJZrdwAc962j+jzdsartLNAWGpd4XNT/AMM3jvSVDOxJEcotcW7tcSHEVeMb6paZlCG49k7JKPXZbGgpVCg3rjE5lqsr8iqauLF7SYL8lVIlgae8qg3Zz5Hc7Ce0tvY5dNcuY7eF14rYeOQJ23zN3HQjmJJ0uATcg6HQktbIqFbUogIgIgIgIgIgIgIgIgIgIqYzfNMV1vheX7Ezu9gYvhGBYvf5pmWS2rimazHcVxaql3mQ3ti6lKjagRKiDMkPKIjNLcdRkR9Og9xxvleyKNpfJIQ1oG8kmwA8pJsvLnNY1z3nK1gJJO4AaknqC5rvAfUuVekU9tjs3knv+kt5fGvD7qNuzYuHW7ipFZS6SxS0PHOLvFl15iA9CbcuCrIr2RsNtwUXkLHc7smXY1rYE8fSsQmbs3gcFJTOHfcwy5rWJJBLn2zBwsTdt84DgGkBrgFWKZrsUxJ9RJcQUpIaNCMwtm1AcwnUAEZXFuVwdmYumM222y22yy2hpppCG2mm0JQ222hJJQ22hJESEEkiIiIiIiLoQ5krSvMEXOR2pitNyU9L7bw3dUZE/GYHLbXnq9LNQmTWSYPH3ifQ7H1fTPwZXfbep5uVYFj0iZGUk2JR3UvxW1FJcJXRYZn0ux73QOBc5rm3tqM5u7XpBcSDvHNuCrcsTJcdaX3GSMO0JtcScHqN1nN4pHON66Nw50rIgIuc32HkaNoj0mXk/prX7DdRg6M/7SjRjFTGIkR4+A4HuywyTGaltBERJjxpes8YShJERJKIki8iHSMda6p2XoqmV5fIGwya87nhoPpAcRfoJ6Sq1QFkOL1sMTAxhcxthpbLE8+s6+s6royDm6sqpHPPqRvPwVH6QwMsHKs6/ctLEfEqjzfeFi6NtVRARARARARARARWR5A79wnjjr6TnWYK9fnS1v12F4dGktx7jN8ibZJ1NbBUpKjiVbCXGXbKeba2oMdxJml2S9FjSKR3QO6BgXc32flxzGT3xUSl0dFRMcGzV1QBcRsJDuDhZcOqagtLYY+Z8r4opIvGMXpcFo3VdTx3Ou2KIGzpX28Eb7NGhe+xDG9Li1rsX+zyzLNtuUW/N37DsSs8ozza1Rjpertrj1NPR4Nh0KyqsaxyCtxfsdj0FefTG2Gu+ta1KckSXX5b0h93mH7POM43tfQbfbcbRVXfWK47isNNxQWwwwUNFHLDTU0ZJ4Ong7/e2Nt3OJLpJHyTPkkdBbHVVViMOL4pWycJPV1DWaaNayGIFrGC5ysZwpAF73uXFziSc8shj+NXm6kuq4jiHi6F1M2lH4TxfMREtKz+Zkfolh1tzFWmpbmjuN7Tf3H4+hUGMqj0BEBEBEBFoN5B/X63T+VDNP15LEXLyr+sqVj5OPzR7FIK7LT7DnDPxy2n+0PIRjVqwrxJnnP/ABFQq+3EjRd8ekycYNM7AYbuMHXn/ZsaLkVMkiWxIwLPd2V+SZNUuINJkqPJlbNyZK0mRkopaiPyMdIwMOp9lqyohfkkLZpNOYsDgPSQ0C/RboUVXlk2L0UMrA5gc9uut80TDz9B16/KujIObqzICLnI6pxSn41el9O4ZpWMiDjE/ltsT1ilhJKJWRYHILiffbH2dTMQYpoaap4OVZ7kEiHGSkmYx0sQmm0lHbJPRZ5n1Wx7TObFoa29hd2Q3aSekkC53nn3lVuOJkWOOLCTnjL9Sd5lyaDoDOKBuA3Lo3DnSsi8HWmn2nGXm23mXm1tOtOoS40604k0ONuNrIyW2pBmRkZGRkZkZdA5784RcznnrqfK/R1O2x1nyR0BS28XjXmFzJ3XrvDqh1bFbd6Pyu0TjnKDi02/IgswnXqb2SlPY4w4icikhX+CWT7sm0gKeLpuHzN2kwOakqXA1cIy5iLkFoBY/wAIuN7cYjKCTlAsNarUNdhWJsqIwe96kgOFwBmN8pJIawHQi5zODQ55dmeulFhOaYrsjDMR2Hgt7AyfCM9xigzTDslqnTeq8ixXKaqJeY9e1rykkbsCXUTochlRkRqbkJPoXXoOayRvie+KRpZJGS1wO8EGxB8oIsrQ1zXta9hzNeAQRuIOoI6wqnHhekBEBEBEBEBEBEBEBEBFHt9J95IS+P3ZIbexynnWVXk3KDOde8YKSwrXDaNuszWXZZvs2BNUSD71fY6W1vsyrdLqjr7NpLvf0FWDZilFVjFOHZC2AGQtfudl0sBcXcL5hv8ABuRYFRuLVBpqKWQFzXHQOaL5XWJaTcEBpcA03041t5Csj6JnxlqdQ9mS9v56HDVmXL3cewM5l2ZRHo9rH1/qi/s9JYDi0xx3oUiuZtMJzu9hKSnu93ZDyiUslF02drqt1RipgsWso2htiQRmdxi4dGZpYCP7O4G6xYLA2Ghic2zjKA64FjY62d0lri4X6LKUAKspdARc6Pk7OTg/pimOzYnSM3N5gcQonUj7vfVsLh5pfGrAy6fD4krIZZH8prMdGo4c+xkrjqSyZ/Vkc4exu/8AmqzUTNZjzGjUlkbD1ulDh6iNV0XBzlWZARc63sXWU5f6ULy3yeKZvRoW3O1CzBLpe+LwLTfd1SNO9S+AjPJWy6/9p0+MdDxd+TZShjPhFsTfsED3KvUbQ7GK54+aYj2wvC6KQ54rCqRzz6kbz8FR+kMDLByrOv3LSxHxKo833hYujbVUQEQEQEQEQEVtNv7dwjRmAXGyNgT1xaWsNMSBXRPDXdZTfyWnnKzF8diurSUq4kmw6Zd40tR2GXpclbUZh5xNa2v2uwPYXZ+s2l2hnMVDS2ZHGy3D1dQ8ExUtM1xAfNLlcbkhkUbXzSlsUb3DRxLEaXCqOWtq3Wij0DRbNI83yxsB3udbqaAXOIaCVGX3lu/OOQmwrDYmdPNsvuNqrsbxqE867SYVjTby3oePUxOkk3eilG5LlqQh2dKWuQ6lBG201/MrbnbfHO6DtDUbRY68NkcODpqZjiYKKmBJZTw3AvbwpZSA6eUmRwaMrG8OxXFavGax9bVmxPFjjHgxR3uGN9rnb3uu48wG8vs36L2G4l4hONHcXl2Z7JylZmXQ1pbyh/DWF/ORxsOZ6fN0H7m/ZvoBR9yXCKi1nYxW4lVHyhtU6jaT/dpBbyWXVdiohHs9TOAsamWeT/tDF7Igs5ltodQtpwurbiFNrL5ULSaVF/smY7qDY3VpIDgWncRZWsdaWw66w508RlxxlfTr077ajQoy6/EZl1L5jGdRJBBIO8aLwBfEBEBEBFoN5B/X63T+VDNP15LEXLyr+sqVj5OPzR7FIK7LT7DnDPxy2n+0PIRjVqwrxJnnP/EVC97aJlOIelC8ScmlH4MaZtzsvcvU6fvS8Cr31SUjzvUy8yI8acLr/wBmZfEOh4O/PspXRjeGyt+2SPeo6sa1uMUL/pGUn0QtXRSHPFYkBFzo+Mc5GcemKZFNlkUhuDzA5exOpn3+4vXnD3dGNQD8y8vCl47EIv8ANNsi+EiHR62Is2MhI0syF323NHscqzBM1+PPaTqGSMHW2Uu9gXRcHOFZkBFF+9LN4y1W3uzJY38xDhJzLiFuPX+cxLNUR6RayNfbXv6zSWfYtCcaIyj1z1rmuB3s1Sk93u63ZUakpQfW07IVb4MVbTgFzKxpbYGwzN4wcemwDhb+1pc2URjcDZqGVxsDCCbkXNt9m9Bc4NbfoJV8PRg+SEvkD2SGoMduJ1laZNxfzfYPF+8sLJw3DcrcJmVubaygQTNsuldXaV2PrKrbLvL6ewivf/0Ea209KKXGKgNDWtnAkDWbm5rix1JDiQXG9r5rgWIWXCqg1NFFIS5zhoXOFsztC4jQDKHEtFtAG23hSERX1JICICICICICICICICICKFh6Zvn8yu0hwM1ciT3K3Kt07f2VLh97oT8vWOuanE4Mk0fAomo+5LJPX+j650/pGLvsTTMkqqyoc276ZrA09BfnB7QLKu7RTcHSsi/j3FvNcx1/Vb0qRx2QWMVeIdlR2cNPUQigR3uEXGPIZcckkgzvMw09iOXZJKWkkl0dfyG8tH19S7xrkKNRmrqZ1XETKa+sE7s8zZHtcektcW+5TsOTgmGO3BuGYW3EO41x13uti40llQEXON7ShldD6WxpWxR7w7rmH2XkszI+hqRZQNDYYv4Ph6ohqSfykRkOnYWQdjagH5sFV7ZSFTq2MnaGAj50kX3WsJ9S6OQ5irigIudR6MNLTnHbncw8ye6PLl6O5o5o28ZkfR/JuYGjUk6k/jUqPdyPP4yUY6LtTGYsDw5o0DXsb2sc7/Z/V1W8JlbNiFe4by2Ij0MLT2XAPWuiuOdKyKkc8+pG8/BUfpDAywcqzr9y0sR8SqPN94WLo21VEBEBEBEBFSGf59h+rMMv9hZ9ctUWJY1E9as5y0+NIeccUTUKqqoaVEqzu5cpTbESM379551KfepJS0w+0O0GD7K4LiG0OP1goMJw1maR51c5x0jiiYNZJ5n2ZFG3jPeQBpcjXq6umoKWatrJOBpoBdx5z0NaN7nuPFa0ak+kqNFyV5G5fyXz9WWX7btLi9KmVXa9wdEnx4eJ0j7qVOvSVo6In5VONlh2ym93q4ppqMz3IcWM0j+aPdK7o+M90zaA4tiANHhdEHR4fQh12UkDiC4utxX1U+Vrqma13FrI2Whija3iGOY1U45Wd8SgxU8VxDFfSNhO88xkdYGR3OQALNa0DHsc9UMt0/FPnlx2wDUGttRZt7esFssLx86mdkU7FfbDh9lZTLWxubGbElYdOnWUVl2wtJS+kmpaS2Suhuq81D9pdyju8dzvZ/ZHZzZHGm12A1GDU/BSVL6XvmkllfLJLI9jqN89S1rnyud+8pWBo3uO9dPwDa3BaTDaHDqoy0klIzKXmPPE4lznlwMZfILucfCjAHStlmAbV1ftZpLms9jYVnizb8VUHGcirbC5joIu8ZzceS+mwr1EXwpkRWlF08yIfpfANrNltqo+E2a2kocd4uYspqmKSZg5+Ep8wnjI5xJG0jnCu1HX0GID/wBhrYqw9EcjXOHWy+celoXtyWIuNY+IpCkestpUpKkmk0vM9GXUmky6kfdJlR/O4YswDho4FrhpYiyxVLS2S9rZvaNCqfH1a6AiAiAi0G8g/r9bp/Khmn68liLl5V/WVKx8nH5o9ikFdlp9hzhn45bT/aHkIxq1YV4kzzn/AIioXPpPMxODdudw8zNnoyuJo7hdmjrpKJJ+NjPMDeSTdUfxGmPSMefxEkh0XZaPhcDxBp1zPc23Uxrur5yjMWlbFiFA4nUNlPazKPYV0VhzpWRARc43s12V33pbG6rFZ986XmH2oUsjM+ppRWQN84Y2fzdETUpL5CPoOm4oQ3Y2nH04KX2xkqnUbHf0hmcfmyS9jmvIXRyHMlcUBFro7X7GKrL+yo7R6nt4RT47HCLk5kUSOaSWabzD9PZdl2NSkJNJ9XmMio6t9HQu8S4yTSZK6GW7hxlFfRiB2WV0jGtPQXODfescwZwTzJbI0ZjfdxeNf0Wuo5HoZGfzLHR/PLVypPfrsV3VqHZUSJ3upMS9m65tcTnSCR16JJ1jTdcnr8KvU+hn70ulq22pmRVVHUNbZ9S1+Y9JZkaOwEKB2dn4SmfDfxewt5znuv6b29CmnCkKxICICICICICICICICICLn0+mkbMatt7cJNOxEmqz19obfmzHEtl3nVluHMcAxKmQTaS6rUcnSVqSC8+prUSS6mfXoOxcMjafEalgvmswDpcxpcNea2f1qt47JA6Whp5SL8JG43+g4ua7XmBsOfm8inh6M1nB0tpLTunKzwvY3U2rNfazr/AI0s+o4JiVRi0TwSMupNer1TfdI/Pp0FEqJTUVE853zPc8/wB5xPvVgiYIoo4xujaG9gAV0xhWRARc6ztemEVPpU3E2xUXdKXyF7Ky4WfTyV4G6MGrDV5n/mVXQ/mT0HRMLcf6I1oHMyYfaLh71XapuXGqJ30jJ6omropjnasSAi5xPoeiHL3tJOSGXOdVqd4X5u644fmZuZfyE0tcqMz+M1HTqP5+6OnbakDCqRg/jtI9Ecg96p2zzXCvqXO3hj2m/SHsXR2HMVcVSOefUjefgqP0hgZYOVZ1+5aWI+JVHm+8LF0baqiAiAiAiAitztHUWtN1YyeIbSxGvy2jRLTYwUSHZcGzpbZuPIiNXFBd1j7Mums0R5UhHiMOpJxt5bL6HWVrbVXNqdkdmttcLODbU4THi1AHiRgcXRywygFolgnjLZYZA1zm5mOAc0ljw5hLTpV+HUOKQd7V9OKiG9xckOY6xAexzSHNcATqDqLgggkLUNvDsv8ANse9bvdA5EWxKZHfePA8tlVtHn0Rsj6+DTXxpj1OWdE94+6/7ESe6kkNImvKIj/IW3H7L+N4dwtfsDiH9I6Ia94VbooK9g00hn/d0tWNTo/vOQNbYCZ5F+dYrsJVQ5pcHm78iGvAyFrJh5Gv4scnp4J24AOJWsG8pLzF7qfjeUUdzjGR1bnhWeP5FVzqS7gLPr3Sl1lkw28ylRF1Qo0d1affIUpJkY/MFdRV2F1s+G4pQzYZiNKbS09RE+GeMndnika17Qd4JFnDUEjVUSWKWCV8E8ToJo9HMe0te3ra4Ajs15l8way8KrNf65yza+c45gmAUS73NL2Z3Khls/V0V6IxePMu7KzJJ+w1LCjpW/KlqMiZbbPu95xSG1yuAbO4rtVjmG4FgNCa7Ga54EIHF4PLq+eSS37mGFvHkl0ygWF3lrTsUdFU4hVw0lFFwtVMeKN1rb3ud81rRq53MB02Ck26v1LM1DqShwizz3MtmXtKs7C7y3M8lyHInpdjNQxHnQsaYyGykqxzD4yWo7cCvZNCG2oyn3SXLfkOL/qRsHstNsZs1QYDVY9WbS10Iz1FZW1NRUufM5rQ5lOKiWQ09JEGiOngYQGtBe/NLJI93cKTDn4fhsNLJWS18sNy6SWR7ySd4YHlxZE3QMYLWAu67i4n74uaICICICLQbyD+v1un8qGafryWIuXlX9ZUrHycfmj2KQV2Wn2HOGfjltP9oeQjGrVhXiTPOf8AiKhM+mFpcou0k435e2ZoUzwvwh1t0vIycw/kJum5SaVfKk7hJ/N3iHTtiiDhVWy9v37vXHGPcq/tCxxr6ZzRcljG28pe9dHYcxVxQEXOs7IVlFt6VLyysU++TE5C9qncoPoXQvH3RnNYSi6H5e8ten9Sug6Jijz/AEQomnnZCPskD3Ku0ozY1Wu35TH64nLopjnasSAitXvTWcLdOktx6cszaKt2zqvYWs7A3yM2ShZ5iVvi0s3iIjM2vAtXO8RefTqM1PKYJ4Jxvhe1462uB9yxys4SKSPdwjS3tBCgfehb7Laqd683NOy0mm02BobQWy20udUuoLT2YbAxK6Sbai6pUUjdlSS/gMjQklF1Iul721hldT4dUv0DSWFvQ57Q49fgW9Cr+BSQtlrqeK3KPcLc7AWtZqN41PbpvXQVHPlZEBEBEBEBEBEBEBEBEBFzle3wcgco/SO+M3HiUlDlfTWvZ88ZrlCS8Uii7H3ZI2ZeHIa+Dyx/djK3Pg6stpM/Ih0nZ8S0mzVZVMPhCWUDzAWk9jO0Kr4i6CfF6SCQAubmYdN+djTGL+c426Dc9K6NQ5srQgIgIudp23X+Lek5cPn2/JZ7C7MWQZ9On8o3yOZQk+pH5+9ZQOgYT/mpXjyP9qr1Yf8AK1D5DN/3LF0Sxz9WFfzTZSIUOXNd8mokZ+U4Zn0LuR2lur6n8XvUGPoFyB0r4TYE9C53/oXtaT3KrlfcGnqqu4oazriX0MzIrzZBS1J6/F1OgSfT4+58w6Fte8uwzDLm+ctcevgzr61X8HZaqxB2+80w7HNPvXRJHPFYVSOefUjefgqP0hgZYOVZ1+5aWI+JVHm+8LF0baqiAiAiAiAiAiAi05drLmUJ2Xo3XbbEB64jw8sz+2nuxIrlxCp33ouK4lXRrNTZyGKqROi5y6/GS4llx6piOrQpbTak/jf9rLGoXz7EbOtbHJWRMqq+Z5jaZmROLKWkjbMRnEMrm1rnxAhhfDE4hxa3JzbuhVLS7CaMAGRokmcSBmDSRHG0Hwg0kSktvYlrTa4utTWLYtkuc5NRYXhtLMyPLMnsGqqho69KVSp810lLPqtxSURYbTDbz0mQ8pDEWPHdkSHG2W1rT+TsKwrE8dxOhwXBaF+JYticgiggjF3yPNzvNmsY1oc+SR5bHFG18kjmsY5w59T089XPFS00RnqJzlYxu8n2AAXLnGwa0FxIAJUknihxZxrjJhbkY3IV/tHJ4sZWws1YbUbTqm1eO1iWLqfQlyJh8N8y6GaW3rKS2c6WhBeqxYX9Je5R3K8M7mOCujLmYjtTijGnEa1oOW44wpKQuAcyjhdzkNfUyAzyhv7qKHtmz+AwYFSltxNXzgcNKNxtqI476iNp9L3cd3zWtymcbQ824y4XVt5tbThF8PccSaF9Pn7qjHVBoQehTpAIIO46K1rja2XHGXPJxlxbS/h/ntqNCvh+LqX/AORsDUA9KiSC0kHeNF4AviAiAi0G8g/r9bp/Khmn68liLl5V/WVKx8nH5o9ikFdlp9hzhn45bT/aHkIxq1YV4kzzn/iKhjemhVpM8q+KFuSS71jxP2ZXGo+vUyo9kKlpL4PPod+o/wDvDoWyDy3DcUsbFhLv+z3+pR+MMBq8PdziWEdrn/BdECFKRNhxJjX+TlxmJTfn195IaQ6jz+P3qyHPiLEjoVgBuAelf0j4vq52nYi9JPpOXMF9zzWWwu06kEf/AGjnI91Cj8//AHXl/wCsdAxb/NSgG4WZ7dFX6M3xauJ3kxf9y9dEsc/VgQEQEXOW7A9yBxc9I75M8eYyUt19zadoLxlpUKLwyVF1vuyNsyjOO38Bdce0k8tvp8DLiunkZjpO0Amq9maOqebZRFKR54DWnsfu3a+RVfDXU8GLVlPGBdxaxun0GOMgvzcdovzEgdAXRpHNlaEBEBEBEBEBEBEBEBEBFzk8Om1vLT0wiZNmpS9W4zzOzqL322+rTU3hHxcvMZrTcJKDJCk5pomAg1eXV5ZGoyUo+nR3slotjOK7MJWNdv3Nnc24Hpfe3lJVYa+Gpx8tcAHxMLRcfPjkzAjf8zn9hXRsHOFZ0BEBFzs+2rMrL0n7h/AR75SNo9l/WGReZkuRyIr5JJPoRefdnI+Mz8/h+Dp0HCdNk68ndaTsBVfrNcXoAN5MvrhYPcuiYOfKwKls5WprCswcQfdW3i2QLSr5FIqZakn1/rIh7j5RnWPavjvBd1FQCfQsG0HvTmo6Ze/Rx448tpV8iHMw2CpZf2m0j/ZF52tJ7wwgc2Vv4AoLCfGK/wD18/4o10HxQ1PKkc8+pG8/BUfpDAywcqzr9y0sR8SqPN94WLo21VEBEBEBEBEBF+kRmZERdTMyIiL4TM/IiH0AkgDUlFGt5n5Va7j5e7DrsYhTskl1mR1OmcKpalhc6fZS8NbRQTa2sjtdTfXIzheUPJ6e9IphrUZJJSi/mr3aMVq9sO69tFTYZDJiUtNUxYNQwRNL5ZH0Y73fFE0eEX1xqnjm45cTa7lxPaaokxLaOsZAwzGN7aaJrQXFxi4hDQN5dLwh9PQtwHDjiLU8a8acvsjKDc7qyuuQxlV2wpuVCxOqeU1JPBcUlEnocRLzbSrKag+tjJjpJJ+px4yR+v8AuNdyOl7muGOxDEslZtri0YbVTtIcykhdZxoKV30A4NNTMNaiVo14GOJo6Ns3s5HgcHCz5ZcUqG2keNRG068FGegHlHDw3D6LWrNEdqVmQEVC5FG8Gf4xEZIltJc6/F4zf8k6kvn7pMqP53RlYbi3Qo+pbaTNzPHrGnw7V8Ee1roCICLQbyD+v1un8qGafryWIuXlX9ZUrHycfmj2KQV2Wn2HOGfjltP9oeQjGrVhXiTPOf8AiKh4emntoLenCt0i9+vjxyGbUr5UN5hr5SC/sN1f+0L5skT3ji/QGu/AVpYvy9AP+ng/FIp+2DLU5hOHuLPvLcxbH1qV8qlVMRSj/wBZmKNJyj+s+1TrfBb1KqR4X1c7TsUzKt9J+5gQF+Sl7Q7UCsIj+HxI/IifJNPn1Pr3IK/j6+9Pz+XoGLC+ylA4bgGH0EqvUYti9cL6gxeqF4966JY5+rCgIgIucpmE2u4l+mERJsIkM1uT8zsGjd91vo07N5t8W6PGbE2iUhJLUrM97zkErz6PoMyUpSep9HYyau2MOZ2VsTHHTnZA42B9LL+gdKrDpIabHg1ou+ZoabDc+STMSejiHf7yujWOcKzoCICICICICICICICICLnKejYWtZyq7ebk5yasY61rs9e81+T9C+ljvMx73dvI3AKuGS1p7qYzq8T25liUdC6qS04lKST3jT0TaSKXD8BoKJhzwFwY431uP3jAOkCzh0Cw8irWFvZVYnXzublmbwdgRY6NLH9WttOpdGsc7VlQEQEXOd7Vad7Nele8aq9J+J7Ccp+yqqHEF1V3UozzUmTuoMi+D+QuDV/Urr8Y6ThcY/ofVk/OiqXfZz29YVWqpg3HqVrvmPsP78bAPWexdGIc2VpXyb6CdpR3VYRd47GpsYJJ8vM5cN6ORef+kHphyuab2sQV8cLgjpC57/oW9klnklzBqDURKsOMWmLFKOpdVFS57fRHFdPjJJ3rZH8niF8ovm1rLYdhLiNQGg//AI/5KBwhwNTiDRzTTHtcz4FdDYUFT6pHPPqRvPwVH6QwMsHKs6/ctLEfEqjzfeFi6NtVRARARARARARUzm2YNa+wzLs8dgv2p4bjV3kkamiMuyZ19ZVFdImVGO10VhKnJlpY2rcKDFZbSpx6RYNNNpUtZEcZjeLt2fwXF8ddA6qOD001Q2FgJknkiYXRQRtHGdLPLkhjY0F7nva1oLiAsFVUijpqirLTJ3rG+QNAJL3NaS1jWi5LnuAY0AXJcAFhRwl4fPaNrD2ltdLF1yDzCLJlWbrqmpjOuo14bkm3qa6QhSkScvnvSn1XNghRkgnVVkFXqyZcmy4r3Eu4+7YWl/pTtYG13dCxhjnyk2eMNbPd00MbgS19ZO5zjWVDSQ0E00J4MTSVNX2X2bOFMFfiFpcYqAS46EQh18zWkaGR9zwrxuvwbDlzF+fo76regIgIvg5FH8aATxF1VEdS58Hn4bnRpwi+QiNTaj+Zse2Gxt0rXqWZo787NfRz/ryKhRlUegIgItBvIP6/W6fyoZp+vJYi5eVf1lSsfJx+aPYpBXZafYc4Z+OW0/2h5CMatWFeJM85/wCIqG16aRZJe5I8PqgldV1/GLdFitPXr3Sus9oIrR934u8qidLr8fc+YX/ZJn+TsWcNXEEAf/bWji7gKjD2nnmhPY59/aug/QQTq6KlrDIiOuqa6CZERERHEhsxzIiL4C6tihON3OPSSp5osAOgL6w8r6uc72VE32G9K95LV61E2dzyn7VWpbR1Mu+hzPNtZM0jp08/5CoJfydE9R0jFIx/Q+jI+bFTn0uLL+1VelmDseqgBo91vsRvB9YXRiHN1aEBEBFzlPSTrSr4q9vPxj5NV8daF1mvuFHJ/IH1MdGZN7pLkZn9VMJtau8mS6jE9RYmlfvfepcbStPdNJq6Hs3FLiGA19FIcsAcWMN9bn944Hdobt67n0VrFHspcToJ2tzSvz3AFzq0Rs3anW5tqd+mq6NY54rKgIgIgIgIgIgIgIgIse+W+2HtDcUuTe8o5ml/THHvdG2GVEZkZPa61xkuXtmRkfUj79OkbNHCKirpYDunkYz7Tg33rFO8xwTSC5LGOItv0BOnlUJ/0K/W8RzN+fGz5cRZ2OKa64uawpp6mi8M2cpst0ZPl8Nt0z6ocJzDcHccQXkonGjV5pSLptqXxNw2mD7wBrrDnzMs255tQ63aoLAXRzGtnDcsjpXu3fNksQL8+rD1elT5BQlYkBEBFzmOY1cvPfTBcOqYxlLRUcx+Cspsm1eISEa8406J2DYkZF16GzIqZ5rL+ibJmfmQ6TQyiPYyUHQ8FUN9L3Pt2hwVUqqcv2gY8a6RSdWV7WH2etdGcc2VrQEXOP8ARASlYb2mPJjWksjakQ+HOwoUtlRkkyna15FaXxl5CkfGtC8hfL5S8/nHTNs8jsKo3s3CZtrbrGN/vAsqlgBl7+q84OrS4n+09zXD0kAn0FdHAczVtVI559SN5+Co/SGBlg5VnX7lpYj4lUeb7wsXRtqqICICICICICJ8nzKQovmU2tLjai+RSXEIUR/CSkkZeZEF/d6iCOwgEdBAKfrs19uqBv3ogIgIgIvBxtDzbjLhdW3m1tOEXw9xxJoV0+fumfT5x9BIIsvhAcCDuKtY42tlxxlz/KMuLacIuvkttRoX8Pxd5JjOokggkHeF4gviAi0G8g/r9bp/Khmn68liLl5V/WVKx8nH5o9ikFdlp9hzhn45bT/aHkIxq1YV4kzzn/iKhPel/lKzLtMeM+tYhG6/L4c69hRGUn1M52yuRW6MaZQlPxOLXjscvlPon5h0zYzI3Cq17v4zr9QiZb2lQePGYV1JwYOjQ5p/tMc4nTXUAg7ucLo4jmatqAi5zHDmuXgXpguZVMkyiIt+Y3OqS4ThkgnG9hcat7bCr0+fTqb0m1rzR/nG6n4TMdKrpWv2LiG88HTtHkLHsv6gehVWlpyzH5HHS4lk68z3MHt9q6M45qrUgIgIoDfpqGt4jeb8B9nxIjnsjlmuuUesLqeTReETGLWWl8nxCG46Xmt03MzzhxtB+RE04afNShfdis8zcSpy60GVtxz5pLtuPQ3X0Ku48+OE0U+W8jJWO3fNjuSL82rgpsPEnbDu+uKfGTeT5mb+5+PmmNsPGZ9TN3YuuMby9wzMzPqffuDFLrIRT1lXTjdBJIz7Li33KdgeZIYZCCC9rTrodQDqOnpWQY1llQEQEQEQEQEQEQEWnzt+9lydUdjlz5ySI4bT1/phvU3eL4TZ3vmuJ6Qkt/B/TjbCdR/3xMYBAKjGKCImwLy77DXP/wBlalfMaekmmDS/g7Gw1NswB9AFyegarU96HRgEWm4D8l9lLiKZtNgcxsgoUS1JIkzca13pjTkWr8NXTqpDWSZHmjZ/ESiV08zMTG2jnfKcMZdma2JrgOjMSCPuA+lR2z4HeDTlyvaS06b9S9p8os9S5BT1OICICLnMcV7T3b/TAstvpDS50PHOY3MWHJWpJOFFToLjht/U1W8rqXvUNZDhdO2g/wCiZo6efQdHq4hBsZGWusXshf1l7mAjrsT2KrwTl+Pvjewgta+O9uh5laT5C0WHToRobrozjnCtCAi5zXY9Tj42+lG8hdLxI71ZV53ubtHNH10RaTR3sbj5Xl2/8S8RPkSWXaHUlM+35dD8Vvu/CQ6NjMYqNlaOpe/NJGyF4635QR1tBI6bA811WKKUsxqrgbEQ2S2p5mxMcy/UXWsfiujKOcqzqkc8+pG8/BUfpDAywcqzr9y0sR8SqPN94WLo21VEBEBEBEBEBEBEBEBEBEBEBFQmRR/BsDdIuiJbSXfkLxUfyTpEXy+9bUfzuf1jM03HUo+oZlkvzP1+K+EPS10BFoN5B/X63T+VDNP15LEXLyr+sqVj5OPzR7FIK7LT7DnDPxy2n+0PIRjVqwrxJnnP/EVCr7YWcfJH0o3j1peZHdsqvBNzdnFo+xhpR3zTjcnK8R5AZb4ZH5KZbodt3D6/iLw3OvwGOj4PGINk6ypZJlfIyZxtzFhc0DrIA9BUTWyl+NUsLoiWxk6jW7ZWNZfqa69zzWPQujIOcKzoCLnMcp7X3D/TA8TvozS4EPI+Y3DyHGWhJNlKTv7jfqDU1o8np/ObdyHNbhtZ/wBI+/18+o6PSRNn2MkL3XLGTPHkMbnho7G+tVeafg8fYxsZJc1ke7peJXOHkAOp5je/SujOOcK0ICICKI36Yvr+Jc8B+NGy0xFvWmvuY2P0C5SSI0wsb2JpncUW08Q+nUkO5JjmFtl8RqNPXz6C4bFvd8pzRh2Vroi4jpLXNAH3yfQoPaADvBxy5nkhosN2oe49VmarbD2Auy5O1+xy4DZJLcNx+g0u5qbvGXQya0PmmWaQjt9Pi7kfXjSf+4IfH4BT4xXRNNxnDvtta/8A2lI0MxqKSGYtLOEBIB32zG3aLEeRbgxDrbQEQEQEQEQEQEQEUYz0tbZUvCOyhj4dGcWhreHKfRetZyUde67Dx1rM97eG708vD9b0xFUXXy77afj6Cz7IwMmxhhebGFjnt1HhAtGnToToNbX5rqJxuV0VBK5rcwddp8ge1zb+hxCv76MZgcfCuxi4uWBQVQbPY2Qb/wBjXJrQaFzXbnkDsyqoZ6uv89LmGUWL9xXwG2hHTy6GMG1Dy7G6xpdnEeQA+TI11vQXELLhPiFMSwsJaAQd928S/py3HkOuq37CvqRQEXg442y2t11aGmmkKccccUlDbbaEmpa1rUZEhBJIzMzPoRF1MN+5N29c5r0XubM5TdtTye5W5DVS3nbPTvKHf67B1PiIps65F8hcAm18Wa91MkzX8YynYqEGRmaygPmR9CUOh7StjpcBw+nppQ6B7mgDW7mlpeHC4HFB6ekKtYU90+I10k0ZbKC0X0IDowY3i45zmB0uOk7r9Ggc8VlQEXN87Yya72b/AKStrXl9PkHR6/yvOOKPLK0foojjz7Gr3IsPjzyHgpYb/wCVXk2k1ls6W80Rms/bfHcNB+MgldGwbLiWzFTRNZmmgD25pDZgcSS0hx0GRliRpzX0JKrFc51LjFNO59o5hlysF3kAh4BGp48psLAGwI6SukA242822604h1p1CXGnW1JW242tJKQ42tJmS0GkyMjIzIyPqQ5yrOqUzz6kbz8FR+kMDLByrOv3LSxHxKo833hYujbVUQEQEQEQEQEQEQEQEQEQEQEXwcij+LAJ8i6riOpX8/gvGTTpF83eNlR/M0Y9sNj1rXqW3jzDe0+oqhRlUegItBvIP6/W6fyoZp+vJYi5eVf1lSsfJx+aPYpA/ZcONtcNsQddWhpprL9quOOOKShtttGwciUta1qMiQgkkZmZn0Ii6mMe/crVhelEy/S/8RUI/sdZz3aQ+kr7K5ewJJ3uv8Tznldyxq372G4y/I1czEmceOO8I2HD/wAVvIVLszV8tlszJRe1GQ4SP5JZJ6PjAbhuzFPRlmWWcRtzMN2Fws5xc4CxL2gm3TexOW5iaFxqsYqp2vvHCMuV4s8AnMQBof3cosSQdCB0FdIMc4VnQEXOX9KDmy+LPbVcYeVuPVMtp2s07xe5AIsGkk2i5zrjpyGz+ZYRYbvUiVNYxjFddIWZmRoKcx1MiNI6Hs01lVgOI09TKG07HOB33a0ND3ONgdCeYXOh01VaxV7oMSoJIoi6QlwvoAXSARsF+nQnXTo510ZW3G3m0OtLQ606hLjbjakrbcbWklIWhaTMloNJkZGR9DI+pDnm7erKvMEQEWgj0nPA4+bdjDyjsDgqm2euch0BsamNKO+uG7TcgdZ1V7PL/MS3hl7k/fV8SFq6+XUWDZd7m43RtDsgkzg+UZHOt6S0BR2K6YfUkNLyGkADfd3Ev6M1z5BpqrCeiU7Kl5v2UEjDpLi1taP5Tb01rBSvr3WomRN4bvbw2uvwN+tbnlKPp5d9avj6jPtdCyHGHlhuZmNe7yOJcLH0AeiyxYJK6Wgjc5uUNs1vlDGtbf0uBUnIVhSyAiAiAiAiAiAiAihK+mg7On1GreAOok98qbLdjcgdv2Ku/wBGSnaewrAMKrUuJ69DX6rvm4NKunvSQrzLr0O7bExwvq6uR5tNCxpYPIczXno0u0ann7K/tE+VtLHGxuZk7sh6b3a5thz3ykelSaeyhwFOsOzF7PnCFViqefT8NeOLt9WrSSXI2VXOp8Vvcu8VJIT0eXk9nbuL6l3u86feM1dTOr4k5zsQrcz+FIleM3SGuLQfSAFNwFphic1uRrwHWNrjNxrG1xpfmJHlK2AjRWVARaz+2R5EtcV+y75vbiRYTKq9h6Fy/AsGsK51LU+DsvcjLOntZ2EQzIzNUbPM6x6Svul3iZhuK6pJJqKTwandVYpQwtAN5GuIduIZxyD1htus6arWrJGxUs735gwNIJaLuAOhIFj4N77rAC50Ud30MrQUnHdGc1eSkptooGxdp6v0HiyHYqUyWYOh8NtsyyCwhSltEpddMtN8QYjncWbapGFmlReIwZFYttZWGspKdrCx0UZJN+KWuPFs29hlIcNwOvOLKK2fa7vSSZ787pnucbjjBx33POHAMcOtTUhSlPICKKv6Vx2e91yg4Z4ryv1rQP3uyuFL+X5DmNPXRjdsMj43ZxDqS206hiNEU7ZS8bnYvi2SIJ11DMOlqcmW0lciUlDlr2SxFtJiHe0rgIq2zQTrZ4vlG+wzXsdCSQ0AKHxqlNRSFzDlfBxwb2tlB1vbm1Gpa1ocXk8VfE9Hp7cvj/uvixrTiNyq3JhGp+TXH3FKTW2K3W0svo8Po+Qur8dZjUeucgxDI8jlxo1vsqFjTdTV31OqS/bz36VeSMJkRp8xur97R4DU09ZLV0kDpqWoJccrS4scblwIHzSbuBAAbfLYWaXfMLxKKenayRwiliFiCbAWNgNdRzAXJzDnLg8NklXm6NOZZTTqHF9taxyO8tGCarKejz7FLW0sXUGUpTUGBBtluy3SjR33O62lSu4ypRF0IxW44J2Pa98L2tG8lrgB1my2cQljdR1AbI1xtuBBO8cwVqBmVXQEQEQEQEQEQEQEQEQEQEQEXg60h9p1hz+Y+24yvp06klxBoUZdfjIj6l85D6DYg9C+EBwIO4q1i0LaWtpwujjS1tOF8jjajQsv9pJjODfUKJIIJB3g27F4gvij38i8rxGHyA3hGm5jh0GVF2tnMeVFnZbjsKVGkM30xt5iTGlWaHGHkOJUlaFpJSTIyURGI+SGd0j3Ngkc0m9wxxBHSDaxClGOaI2XcBoOcdCsTzx7Z7UfF/so7bhjx/2XjGc8sOQrO4cHyeRgWS1WRV/HjUea5pksDNsrzG8o332KnYVnhkufAx2rRJZtIjuQtZI74EevjM2Nl2bwGoqauKrq4HwUtOcwztLS9zdW2DrHKDYl1iHWyi93FsmcQjpsMETSJJpS8BoN73cdNNTfnsRYfODiwO2CeijdnzdcYeGeVcsNk0D9Fsnms/iGQYbUWUY2bHHuN2Dw7b3Jn1sSoiXa2Tks7KMpyRRNOrZmUtrjLjqUyIxob87W4i2rrxTRG8VFdpI0u/5w32OXcLgEEuFlI4LSup6UOecz5znJvmBzAag259AbFzXZQ9p4ylVCqKYQEUKz0zTQUnItG8KuSsVppUHXe0toaDylDURK5D0He+G1OZ49YTpSGjUmuh2eiLCI2TiiaTIzQkJLxX0kd12KmYKyqgczO6WO4N9A1p412k2OYlg0BOnMLqB2ga7vRkrH5DC8OFhxi4aNseYNBe49Q3aqRL2OHIprlR2XnCLcblhMtb2doTD8DzmxsXUu2E7ZmnGXtP7NsJZkXUlSc9wXIZKO8XeNmY2ozV3iUdcximNJidbAQBaQuAbuAfx2gdQcB0ggg6qVo5Gy0sD2XLC0AFwsSBoCRYeFa4sACDcaLZcI1bKAi1/dq/gKdn9mJ2g2EJrFXM+44a8jnqGtQklOScqptT5Ve4j4STQrq8jKKyocR0Lr3mi7pkroZb2GOc3EaIsfwTjKwZvo5nBpPoBKxTlrYZXObmawFxAtc5eNYX05vJ1qMt6F9s2db6s5/ahV3zpsS2Px/wBv16u91ZOduHCc+wqxS2jr5L9V0LUGpXQu8S0kZn3ehWjbaKFlZSSMP76Zji8eQFrWH02cPQoTZ18rqWRj25WQOyDpvdz3XHMeOB6OtTahSVYEBEBEBEBEBEBEBFBW9NK1HllhW8DN0w6+yfwSIjkdpDIrzok6XHs2zqBq/NNf1rvVzqiyt6PX+y3UGSe6pGEmlS+93Endti7ST10BcGl0Rta+c5i0EjQgBthck7y2wNyoHHnOiipp2sLxDKx51AaAwmw11u4v0sDoCToFKV7LjnHonnhw40ntHTmY4hY3ldrLAqLbWtKS2iOZJpjZFdjsWryfAcsxxXhzKEo15WWrda/IjMR7atYj2laqRXyo77lbxWhqKCtninjcwOc4scdz2k3BBFwTYjNYmxuDqpSjninp4nRvDrNF7X0IFtxAIFwbXAuNVsUEatpARQFvSxO0do92ZtqjsxOO9hI2RaYBsOrz/kDEwRmRkEqz3Y+1Mw/THHmmbpJDjl/mMWVkdxZXVQiM+bNrZ4rFad9lYdjDidA2Sw11MyXGKocFGWlseYgXboS4hwsA42DHZ2nQ6FrgVWscqTKYqCAkySnUi9gNQTdpzWaMwcMrmkFw8JhAludlJwxVwA7P3jTxcsiguZvg+DHebYnV7seZFn7i2FbWOwNpKiWrDDZ3NTFzXJbivrJLiScVU08BBklLaUJp+K1nf+IVVUPAkdxdLcVoytNrmxIAc4XPGJU7SQ9700MR0LGgakG3kuAL5RxQbC4AWw0R62EBEBFEm50eiP8AEzkXsa42bxU3HZ8MHstt591l2qmdW1m4tEJnTush9euMETmuLztXMPWTkh1yBFuZlDFbdRFpqSqisoZFto9sMQpoDDPG2sc0AMe8kEWOpfbWQkaXu0kjM4uJJMLUYHSzSMkYTTlpuSzR242DTewAJvq0kAZQQ0AC0PCP0Vm84F8tdGcwpPNLB9lQtCZZY5dJwWt4tzsCm5O1PxPIsUTXtZOvfdwmqWleRJkEtUGQRLhp978Y81e0kuJRd6vo4o85NnNacwOUi7SXHKdSDobtJbpe4w1GHmmpp5e+5prBukkmZuj2uvbKNeLbfpcqTOIRQ6AiAiAiAiAiAiAiAiAiAiAiAioLII/gWKnSL3kttL5eXQicSXhOp/r6oSo/9KMzTdo8ij6ltpL20cL+4/H0r4g9LXUFXnX2PNht3m9zB2wjfuKY+1szkxufPWqOTpWbdSqdrK87ubpqtdtEbMipnusImJbU8TDROqQpwm0EokFY6fbFtHTwUnycZO9mMZm4UC5Y0NJI4M+Fa+moFhrvW/HCwxx5nSbuaSwFyTo3Ibb9dd9zz2G3nsfPRmuI02lwvlPyk2Bd8onKvLLp3F9GTcFq9d6MZs8MyOzp2JGxcb9sd5O21D9erIcxuvlWFdRPpU5AuaW5iLWhzUxDbGtqozFSwihDgQXB2d9jztdlZkNtNLkbwQQLT2F4VSFnfLmmQucbB2pGU2IJFgQSL+C02u0lzSQZrIp6saAiAi149q5wxXz/AOz85LcXKsoKM4zfBivdTTbB2NDiwdx68tq7YGrTlWshhz2GqZWaY1UV9nJbSbiKq4nIIlJcUhUjhNb8n4jS1RNmRuGbeeKdHGwIuQDmAvvAWvVw98U80W8vaRoQCdNRcg2zC7SbXANxqok3onXaOUels02v2YnIawka4tc/2FabB4/Q85ZfoJVbullmHiW6OPVy3dSW3KDMZMnHKizpalcVg3rSuyqM86VrLrocu3bW4c6pZFi9LaWNrQ1+Ug8XUh1mixDTcOdmcdRoGtuoLA6kxGWgnNpIjoTexGgBBcc1nAtDQGNaAG65ngKfOKArKgItd3ajc4NFcEOG+7NqbkzDEq64sdZ57Q6m1vd2kVvItz7Jsccl1uMa+xLHUk5Mv1Sruzq0WT0eM/Hqa1+Ra2ao9dFkyG5LCqCor62GKCNzw1zS9wGjGg3LiTYDQHLcjMbAalatXPFBBI6R4bdptfn5twBJGovYGwUWf0LXUmWV9dz03RLr7JjA5SOOOkMevOhFS5Dm+CwNo5pn9a10d6rsqijz/Wrq+qDJKM3SSV9fESLJtpljnoIA4OLItb+GLEgF2gBDr6EHeHaC2sXgRdJHUzujLBPK941BBDyLgWN7tLDe7RoQRoVOpFJU8gIgIgIgIgIgIgIse+U/FnR/NDRWecceROFRM71ZsOvZiXNS6+/Asa+fBktWFHkuN3MNaZGP5TW20aLLgTo60usPxkmffbU42vPTVM1JPHUQPySRm4+B8nrG8EEArHLEyZjo5G5mO0I/Wh6CDcEXBBBIUIDfXofPKfXexizHgnzB1tfUsWZPm47I3lP2DozcmFwiceVWVTGzNKYjkEbNbco6Y6HLFqsxNpbi1KKEylPU7zFtpC+Fza2gzykBvFILXajMTm1aOcAB24AnnFffgLmSA0tUYGAl1jxxfc2zCbHS4LnON+gA2FCJ7D30muKXsLH5o5sVS2RtI9W7TnlA1Tm2kzSRNwlRkOJaNPQ+hxiPofQ09fIYflTZc/vHYeRIea8n/p5Nyy954tu7+Nv9TD+Zel30bTt9s2Qp/L+ams1uvoU08zmvPHmNkDi23iNDrcj1XTFk280aVKJaTWolEoy6GR9B6btNhEBtBhAIHPmH+00o7C694IdiI43/AEEYPaHewrcP2NPoyuG8DdnY7yk5eZzg++eRGEqcm6mwTAay2Vo3TWTOnJZd2BFsctrYdltLYjURxHsRYT6qmh0L0qRNjVcq5aqris0Ma2plxCJ9LSRmmpZPCJtncLC7TYkBpde9jdzbA2GYOy4fg0dG5ssjzNM0WvfTTRpseYACzdQ063cQwtleipKaQEQEQEQEVrd1Wcyn1jlVjXrbblx2K7wlustSGyJ65rmHCUy8k0rI2nVl5l5depeZEMsAvKwbt/sK0MTdloZza/g+tzQtf3ul5d9s1n0JW/uBuadB7f5KrXPQPX8U90vLvtms+hK39wGnQe3+SXPQPX8U90vLvtms+hK39wGnQe3+SXPQPX8U90vLvtms+hK39wGnQe3+SXPQPX8U90vLvtms+hK39wGnQe3+SXPQPX8U90vLvtms+hK39wGnQe3+SXPQPX8U90vLvtms+hK39wGnQe3+SXPQPX8U90vLvtms+hK39wGnQe3+SXPQPX8U90vLvtms+hK39wGnQe3+SXPQPX8U90vLvtms+hK39wGnQe3+SXPQPX8U90vLvtms+hK39wGnQe3+SXPQPX8U90vLvtms+hK39wGnQe3+SXPQPX8U90vLvtms+hK39wGnQe3+SXPQPX8V/LKz7I5pNlKXVvE13/D61EJvud/u9/obSEmfXuJ+H5B9Btuv2/yXlzWvtma11t2h5/Sv5Pbhcf8AR1f0az/5h9zny+r4LzwUf8NvYfitB3IbaMmDyD3XDl4bh1k0zsvKEqlEvMqu0c785Tq1+LXZcmEh01uKPr7HqLz80mNCXlH9ZUlHTwmKP93Y2GoLhzeUkepSNuyevYeRcMMOsYVY/UMnnG1mDgyLVFyttxnYN8Ti0zUVcPq0pR95KFNGpCVElTjhl3jx+m6ncPY1lM1rbkAu37/CPkHsWyMFuoCICICKJ/2y3oyuIc8Nn5Dyl4g5zg+h+Q2butzttYHsCttkaN3FkzRxWW9hPWWI1c2y1dsV2I0s7idBqrmHfvxY86RWQ7l21uLS24LtTLh0LKSqjNRTR+CRbO0WNm6kAtDrFpJu0XaLjKGQtfg8dW8zRPMM50uDYa6ONgOcE3boHO1u27y7T616OD6QFhSUvYjzV1+lxhCWmGsL58cxKFbbbKUtstx/W9QVqGWiQhJISSkklKSLonp0LedtJg0+k2EhoO+xt+Fo/msLcMxCMAMxEHLu/cR308pdr1nVeZ9iR6TrJI6SRzP2CdO4XhOHI7T/AJOO0xtq96ZOQi77i2u78JerH1IundP4B5+UtlQM4w4mTovJ8bepfe9MWOhrjb/UwfnVd6J9D95XbI2R7c+d3MLWtFTy5NfNyOZpOy2Hvfc+ZQzcZVZ1D+yd14lj8bDLY46pCG7Jyvy1pt1CVeovoPqWaXbOCOBraHD+Dls4EOIyNGuUgt1dYm5BDb7rg6rEzAXPe41VUZo3OD8oGQF2512NNhxbAOa4W6CBZTfuK3FjR3C3ROCcceOuFRcE1Zr2A9Fp6pt9+fZWNhPku2F5kuS3UxapGQZTZW0iVLnzZC1OPPyVdO40ltpFHqamasnkqKh/CSyG5P6/R3m5JKsMcbImNjYLNaLD0dWnkAFgBYAAABZDDAvaAiAiAiAiAiAiAiAiAiAiAiAiAiAiAiAiAis9v360eY/6Cp/X9UM1PyzPT7Co/FfEJ/7v42rWgNpVdARARARARARARARARARARARARARARR5uTP2Rm8vym5P+lENOXlX9ZUpFyTOoKSz2Nzne4RY4jr18HZW2G/j8u/mU98i8/meL/WMamaLkBpbjO9pW1AFtoCICICICICICICICICICICICICICICICICICICICICICICICICICKz2/frR5j/oKn9f1QzU/LM9PsKj8V8Qn/u/jataA2lV0BEBEBEBEBEBEBEBEBEBEBEBEBEBFHm5M/ZGby/Kbk/6UQ05eVf1lSkXJM6gpJvYyr73CuAn/AKLa20EH83evGnv7PJ0v9YxqZouQ/vO9q2uAttARARARARARARARARARARARARARARARARARARARARARARARARARARfOtqirva+TU3NfEtKyWTaZUCcw3JiSEtOtvtk8w6k0uEl5ptRdS8lII/hIfQS0gg2IXh8bJWFkjQ9jt4IuDz+1UX7kWrfvfYh9A137ge+Fl+me1YO8aP6sz7IT3ItW/e+xD6Brv3AcLL9M9qd40f1Zn2QnuRat+99iH0DXfuA4WX6Z7U7xo/qzPshPci1b977EPoGu/cBwsv0z2p3jR/VmfZCe5Fq3732IfQNd+4DhZfpntTvGj+rM+yE9yLVv3vsQ+ga79wHCy/TPaneNH9WZ9kJ7kWrfvfYh9A137gOFl+me1O8aP6sz7IT3ItW/e+xD6Brv3AcLL9M9qd40f1Zn2QnuRat+99iH0DXfuA4WX6Z7U7xo/qzPshPci1b977EPoGu/cBwsv0z2p3jR/VmfZCe5Fq3732IfQNd+4DhZfpntTvGj+rM+yE9yLVv3vsQ+ga79wHCy/TPaneNH9WZ9kJ7kWrfvfYh9A137gOFl+me1O8aP6sz7IT3ItW/e+xD6Brv3AcLL9M9qd40f1Zn2QnuRat+99iH0DXfuA4WX6Z7U7xo/qzPshWDzHgDwzz65tMhyjjxr2beXUx+wtraFBm0U+wnST6vy5UmgnRVOyFn5qWZ94z8+oxkkkkm5K9d6U1gBC0AC2gtp6LK9WmdH6t4+Yb7n2n8Uaw3D/ZizvipWbW9uG021wttyylJl5FaS5CCdcabPwydJpBl7xCep9SysYyNuVgyt/XSrrgvaAiAiAiAiAiAiAiAiAiAiAiAiAiAiAiAiAiAiAiAiAiAiAiAiAiAiAiAiAiAiAiAiAiAiAiAiAiAiAiAiAiAiAiAiAiAiAiAiAiAiAiAiAiAiAiAiAiAiAiAiAiAiAiAiAiAiAiAiAiAiAiAiAiAiAiAiAiAiAiAiAiAiAiAiAiAiAiAiAiAiAiAiAiAiAiAiAiAiAiAiAiAiAiAiAiAiAiAiAiAiAiAiAiAiAiAiAiAiAiAiAiAiAiAiAiAiAiAiAiAiAiAiAiAiAiAiAiAiAiAiAiAiAiAiAiAiAiAiAiAiAiAiAiAiAiAiAiAiAiAiAiAiAiAiAiAiAiAiAiAiAiAiAiAiAiAiAiAiAiAiAiAiAiAiAiAiAiAiAiAiAiAi/9k=;" vertex="1" parent="1">
          <mxGeometry x="364" y="340" width="100" height="100" as="geometry" />
        </mxCell>
        <mxCell id="O1dx7EC58STcq-n9Xf8L-14" value="协议程序" style="rounded=1;whiteSpace=wrap;html=1;" vertex="1" parent="1">
          <mxGeometry x="120" y="200" width="120" height="60" as="geometry" />
        </mxCell>
        <mxCell id="O1dx7EC58STcq-n9Xf8L-15" value="tcp" style="text;html=1;align=center;verticalAlign=middle;resizable=0;points=[];autosize=1;strokeColor=none;fillColor=none;" vertex="1" parent="1">
          <mxGeometry x="340" y="268" width="40" height="30" as="geometry" />
        </mxCell>
      </root>
    </mxGraphModel>
  </diagram>
</mxfile>
